# FreeCAD v0.21 build2 Arch module
# http://www.freecad.org
mtllib platform.mtl
o Cut
usemtl color_ff0000
v -0.3 -0.3 0.2
v -0.3 -0.3 0.0
v -0.3 1.3 0.2
v -0.3 1.3 0.0
v 1.3 -0.3 0.0
v 1.3 -0.3 0.2
v 1.3 1.3 0.2
v 0.0 1.0 0.2
v 0.0 0.0 0.2
v 1.0 0.0 0.2
v 1.0 1.0 0.2
v 1.3 1.3 0.0
v 0.0 1.0 0.0
v 0.0 0.0 0.0
v 1.0 0.0 0.0
v 1.0 1.0 0.0
f 1 3 4 2
f 5 6 1 2
f 8 3 1
f 8 1 9
f 6 10 9
f 6 9 1
f 7 8 11
f 7 11 10
f 7 10 6
f 7 3 8
f 4 3 7 12
f 4 13 2
f 2 13 14
f 15 5 14
f 14 5 2
f 13 12 16
f 16 12 15
f 15 12 5
f 4 12 13
f 5 12 7 6
f 14 13 8 9
f 14 9 10 15
f 10 11 16 15
f 16 11 8 13
o in003
usemtl color_0000ff
v 0.0 0.0 0.2
v 0.0 0.0 0.0
v 0.0 1.0 0.2
v 0.0 1.0 0.0
v 1.0 0.0 0.2
v 1.0 0.0 0.0
v 1.0 1.0 0.2
v 1.0 1.0 0.0
f 17 19 20 18
f 22 24 23 21
f 22 21 17 18
f 20 19 23 24
f 20 24 22 18
f 17 21 23 19
