mtllib arm_1_2.mtl
o arm_1_2
v -51.96152 24.00000 9.83612
v -51.96152 24.00000 9.83612
v -51.96152 24.00000 9.83612
v -51.96152 -24.00000 9.83611
v -51.96152 -24.00000 9.83611
v -51.96152 -24.00000 9.83611
v -51.62506 24.00000 9.79182
v -51.62506 24.00000 9.79182
v -51.62506 -24.00000 9.79181
v -51.62506 -24.00000 9.79181
v -51.31152 24.00000 9.66195
v -51.31152 24.00000 9.66195
v -51.31152 -24.00000 9.66194
v -51.31152 -24.00000 9.66194
v -51.04229 24.00000 9.45535
v -51.04229 24.00000 9.45535
v -51.04229 -24.00000 9.45535
v -51.04229 -24.00000 9.45535
v -50.83569 24.00000 9.18612
v -50.83569 24.00000 9.18612
v -50.83569 -24.00000 9.18611
v -50.83569 -24.00000 9.18611
v -50.70582 24.00000 8.87258
v -50.70582 24.00000 8.87258
v -50.70582 -24.00000 8.87257
v -50.70582 -24.00000 8.87257
v -50.66153 24.00000 8.53612
v -50.66153 24.00000 8.53612
v -50.66153 -24.00000 8.53611
v -50.66153 -24.00000 8.53611
v -50.70582 24.00000 8.19965
v -50.70582 24.00000 8.19965
v -50.70582 -24.00000 8.19964
v -50.70582 -24.00000 8.19964
v -50.83569 24.00000 7.88612
v -50.83569 24.00000 7.88612
v -50.83569 -24.00000 7.88611
v -50.83569 -24.00000 7.88611
v -51.04229 24.00000 7.61688
v -51.04229 24.00000 7.61688
v -51.04229 -24.00000 7.61687
v -51.04229 -24.00000 7.61687
v -51.31152 24.00000 7.41028
v -51.31152 24.00000 7.41028
v -51.31152 -24.00000 7.41028
v -51.31152 -24.00000 7.41028
v -51.62506 24.00000 7.28041
v -51.62506 24.00000 7.28041
v -51.62506 -24.00000 7.28041
v -51.62506 -24.00000 7.28041
v -51.96152 24.00000 7.23612
v -51.96152 24.00000 7.23612
v -51.96152 -24.00000 7.23611
v -51.96152 -24.00000 7.23611
v -52.29799 24.00000 7.28041
v -52.29799 24.00000 7.28041
v -52.29799 -24.00000 7.28041
v -52.29799 -24.00000 7.28041
v -52.61152 24.00000 7.41028
v -52.61152 24.00000 7.41028
v -52.61152 -24.00000 7.41028
v -52.61152 -24.00000 7.41028
v -52.88076 24.00000 7.61688
v -52.88076 24.00000 7.61688
v -52.88076 -24.00000 7.61687
v -52.88076 -24.00000 7.61687
v -53.08736 24.00000 7.88612
v -53.08736 24.00000 7.88612
v -53.08736 -24.00000 7.88611
v -53.08736 -24.00000 7.88611
v -53.21723 24.00000 8.19965
v -53.21723 24.00000 8.19965
v -53.21723 -24.00000 8.19964
v -53.21723 -24.00000 8.19964
v -53.26152 24.00000 8.53612
v -53.26152 24.00000 8.53612
v -53.26152 -24.00000 8.53611
v -53.26152 -24.00000 8.53611
v -53.21723 24.00000 8.87258
v -53.21723 24.00000 8.87258
v -53.21723 -24.00000 8.87257
v -53.21723 -24.00000 8.87257
v -53.08736 24.00000 9.18612
v -53.08736 24.00000 9.18612
v -53.08736 -24.00000 9.18611
v -53.08736 -24.00000 9.18611
v -52.88076 24.00000 9.45535
v -52.88076 24.00000 9.45535
v -52.88076 -24.00000 9.45535
v -52.88076 -24.00000 9.45535
v -52.61152 24.00000 9.66195
v -52.61152 24.00000 9.66195
v -52.61152 -24.00000 9.66194
v -52.61152 -24.00000 9.66194
v -52.29799 24.00000 9.79182
v -52.29799 24.00000 9.79182
v -52.29799 -24.00000 9.79181
v -52.29799 -24.00000 9.79181
v -53.16153 24.00000 10.01111
v -53.16153 24.00000 10.01111
v -53.16153 24.00000 10.01111
v -53.16153 24.00000 10.26111
v -53.16153 24.00000 10.26111
v -53.16153 24.00000 10.26111
v -50.76153 24.00000 10.01111
v -50.76153 24.00000 10.01111
v -50.76153 24.00000 10.01111
v -50.76153 24.00000 10.26111
v -50.76153 24.00000 10.26111
v -50.76153 24.00000 10.26111
v -53.16152 -24.00000 10.01111
v -53.16152 -24.00000 10.01111
v -53.16152 -24.00000 10.01111
v -53.16152 -24.00000 10.26111
v -53.16152 -24.00000 10.26111
v -53.16152 -24.00000 10.26111
v -50.76152 -24.00000 10.01111
v -50.76152 -24.00000 10.01111
v -50.76152 -24.00000 10.01111
v -50.76152 -24.00000 10.26111
v -50.76152 -24.00000 10.26111
v -50.76152 -24.00000 10.26111
vn 0.00000 0.67892 0.73422
vn 0.00000 0.67892 0.73422
vn 0.00000 0.67892 0.73422
vn 0.00000 -0.67892 0.73422
vn 0.00000 -0.67892 0.73422
vn 0.00000 -0.67892 0.73422
vn 0.19000 0.67891 0.70921
vn 0.19000 0.67891 0.70921
vn 0.19000 -0.67891 0.70921
vn 0.19000 -0.67891 0.70921
vn 0.36709 0.67889 0.63589
vn 0.36709 0.67889 0.63589
vn 0.36709 -0.67889 0.63589
vn 0.36709 -0.67889 0.63589
vn 0.51919 0.67889 0.51919
vn 0.51919 0.67889 0.51919
vn 0.51919 -0.67889 0.51919
vn 0.51919 -0.67889 0.51919
vn 0.63589 0.67889 0.36709
vn 0.63589 0.67889 0.36709
vn 0.63589 -0.67889 0.36709
vn 0.63589 -0.67889 0.36709
vn 0.70921 0.67891 0.19000
vn 0.70921 0.67891 0.19000
vn 0.70921 -0.67891 0.19000
vn 0.70921 -0.67891 0.19000
vn 0.73422 0.67892 0.00000
vn 0.73422 0.67892 0.00000
vn 0.73422 -0.67892 -0.00000
vn 0.73422 -0.67892 -0.00000
vn 0.70921 0.67891 -0.19000
vn 0.70921 0.67891 -0.19000
vn 0.70921 -0.67891 -0.19000
vn 0.70921 -0.67891 -0.19000
vn 0.63589 0.67889 -0.36709
vn 0.63589 0.67889 -0.36709
vn 0.63589 -0.67889 -0.36709
vn 0.63589 -0.67889 -0.36709
vn 0.51919 0.67889 -0.51919
vn 0.51919 0.67889 -0.51919
vn 0.51919 -0.67889 -0.51919
vn 0.51919 -0.67889 -0.51919
vn 0.36709 0.67889 -0.63589
vn 0.36709 0.67889 -0.63589
vn 0.36709 -0.67889 -0.63589
vn 0.36709 -0.67889 -0.63589
vn 0.19000 0.67891 -0.70921
vn 0.19000 0.67891 -0.70921
vn 0.19000 -0.67891 -0.70921
vn 0.19000 -0.67891 -0.70921
vn 0.00000 0.67892 -0.73422
vn 0.00000 0.67892 -0.73422
vn 0.00000 -0.67892 -0.73422
vn 0.00000 -0.67892 -0.73422
vn -0.19000 0.67891 -0.70921
vn -0.19000 0.67891 -0.70921
vn -0.19000 -0.67891 -0.70921
vn -0.19000 -0.67891 -0.70921
vn -0.36709 0.67889 -0.63589
vn -0.36709 0.67889 -0.63589
vn -0.36709 -0.67889 -0.63589
vn -0.36709 -0.67889 -0.63589
vn -0.51919 0.67889 -0.51919
vn -0.51919 0.67889 -0.51919
vn -0.51919 -0.67889 -0.51919
vn -0.51919 -0.67889 -0.51919
vn -0.63589 0.67889 -0.36709
vn -0.63589 0.67889 -0.36709
vn -0.63589 -0.67889 -0.36709
vn -0.63589 -0.67889 -0.36709
vn -0.70921 0.67891 -0.19000
vn -0.70921 0.67891 -0.19000
vn -0.70921 -0.67891 -0.19000
vn -0.70921 -0.67891 -0.19000
vn -0.73422 0.67892 0.00000
vn -0.73422 0.67892 0.00000
vn -0.73422 -0.67892 -0.00000
vn -0.73422 -0.67892 -0.00000
vn -0.70921 0.67891 0.19000
vn -0.70921 0.67891 0.19000
vn -0.70921 -0.67891 0.19000
vn -0.70921 -0.67891 0.19000
vn -0.63589 0.67889 0.36709
vn -0.63589 0.67889 0.36709
vn -0.63589 -0.67889 0.36709
vn -0.63589 -0.67889 0.36709
vn -0.51919 0.67889 0.51919
vn -0.51919 0.67889 0.51919
vn -0.51919 -0.67889 0.51919
vn -0.51919 -0.67889 0.51919
vn -0.36709 0.67889 0.63589
vn -0.36709 0.67889 0.63589
vn -0.36709 -0.67889 0.63589
vn -0.36709 -0.67889 0.63589
vn -0.19000 0.67891 0.70921
vn -0.19000 0.67891 0.70921
vn -0.19000 -0.67891 0.70921
vn -0.19000 -0.67891 0.70921
vn -1.00000 -0.00000 0.00000
vn 0.00000 0.00000 -1.00000
vn -0.00000 1.00000 0.00000
vn -1.00000 -0.00000 0.00000
vn 0.00000 0.00000 1.00000
vn -0.00000 1.00000 0.00000
vn 1.00000 0.00000 0.00000
vn 0.00000 0.00000 -1.00000
vn -0.00000 1.00000 0.00000
vn 1.00000 0.00000 0.00000
vn 0.00000 0.00000 1.00000
vn -0.00000 1.00000 0.00000
vn -1.00000 -0.00000 0.00000
vn 0.00000 0.00000 -1.00000
vn 0.00000 -1.00000 0.00000
vn -1.00000 -0.00000 0.00000
vn 0.00000 0.00000 1.00000
vn 0.00000 -1.00000 0.00000
vn 1.00000 0.00000 0.00000
vn 0.00000 0.00000 -1.00000
vn 0.00000 -1.00000 0.00000
vn 1.00000 0.00000 0.00000
vn 0.00000 0.00000 1.00000
vn 0.00000 -1.00000 0.00000
usemtl WF_Yellow
f 2//2 5//5 10//10
f 2//2 10//10 8//8
f 8//8 10//10 14//14
f 8//8 14//14 12//12
f 12//12 14//14 18//18
f 12//12 18//18 15//15
f 15//15 18//18 22//22
f 15//15 22//22 19//19
f 19//19 22//22 26//26
f 19//19 26//26 23//23
f 23//23 26//26 30//30
f 23//23 30//30 27//27
f 27//27 30//30 34//34
f 27//27 34//34 31//31
f 31//31 34//34 38//38
f 31//31 38//38 35//35
f 35//35 38//38 42//42
f 35//35 42//42 39//39
f 39//39 42//42 46//46
f 39//39 46//46 43//43
f 43//43 46//46 50//50
f 43//43 50//50 47//47
f 47//47 50//50 54//54
f 47//47 54//54 51//51
f 51//51 54//54 58//58
f 51//51 58//58 55//55
f 55//55 58//58 62//62
f 55//55 62//62 59//59
f 59//59 62//62 66//66
f 59//59 66//66 63//63
f 63//63 66//66 70//70
f 63//63 70//70 67//67
f 67//67 70//70 74//74
f 67//67 74//74 71//71
f 71//71 74//74 78//78
f 71//71 78//78 75//75
f 75//75 78//78 82//82
f 75//75 82//82 79//79
f 79//79 82//82 86//86
f 79//79 86//86 83//83
f 83//83 86//86 90//90
f 83//83 90//90 87//87
f 87//87 90//90 93//93
f 87//87 93//93 91//91
f 13//13 9//9 4//4
f 4//4 98//98 94//94
f 94//94 89//89 85//85
f 85//85 81//81 77//77
f 77//77 73//73 69//69
f 69//69 65//65 61//61
f 61//61 57//57 53//53
f 53//53 49//49 45//45
f 45//45 41//41 37//37
f 37//37 33//33 29//29
f 29//29 25//25 21//21
f 21//21 17//17 13//13
f 13//13 4//4 94//94
f 94//94 85//85 77//77
f 77//77 69//69 61//61
f 61//61 53//53 45//45
f 45//45 37//37 29//29
f 29//29 21//21 13//13
f 13//13 94//94 77//77
f 77//77 61//61 45//45
f 45//45 29//29 13//13
f 77//77 45//45 13//13
f 91//91 93//93 97//97
f 91//91 97//97 95//95
f 95//95 97//97 6//6
f 95//95 6//6 3//3
f 96//96 1//1 7//7
f 7//7 11//11 16//16
f 16//16 20//20 24//24
f 24//24 28//28 32//32
f 32//32 36//36 40//40
f 40//40 44//44 48//48
f 48//48 52//52 56//56
f 56//56 60//60 64//64
f 64//64 68//68 72//72
f 72//72 76//76 80//80
f 80//80 84//84 88//88
f 88//88 92//92 96//96
f 96//96 7//7 16//16
f 16//16 24//24 32//32
f 32//32 40//40 48//48
f 48//48 56//56 64//64
f 64//64 72//72 80//80
f 80//80 88//88 96//96
f 96//96 16//16 32//32
f 32//32 48//48 64//64
f 64//64 80//80 96//96
f 32//32 64//64 96//96
f 101//101 104//104 110//110
f 101//101 110//110 107//107
f 105//105 108//108 120//120
f 105//105 120//120 117//117
f 119//119 122//122 116//116
f 119//119 116//116 113//113
f 111//111 114//114 102//102
f 111//111 102//102 99//99
f 106//106 118//118 112//112
f 106//106 112//112 100//100
f 121//121 109//109 103//103
f 121//121 103//103 115//115
