mtllib arm_0_1.mtl
o arm_0_1
v -4.63324 3.97500 7.88611
v -4.63324 3.97500 7.88611
v -4.63324 3.97500 7.88611
v -46.20246 27.97500 7.88611
v -46.20246 27.97500 7.88611
v -46.20246 27.97500 7.88611
v -4.56830 4.08747 8.19965
v -4.56830 4.08747 8.19965
v -46.13752 28.08747 8.19965
v -46.13752 28.08747 8.19965
v -4.54615 4.12583 8.53611
v -4.54615 4.12583 8.53611
v -46.11537 28.12583 8.53611
v -46.11537 28.12583 8.53611
v -4.56830 4.08747 8.87258
v -4.56830 4.08747 8.87258
v -46.13752 28.08747 8.87258
v -46.13752 28.08747 8.87258
v -4.63324 3.97500 9.18611
v -4.63324 3.97500 9.18611
v -46.20246 27.97500 9.18611
v -46.20246 27.97500 9.18611
v -4.73653 3.79608 9.45535
v -4.73653 3.79608 9.45535
v -46.30575 27.79608 9.45535
v -46.30575 27.79608 9.45535
v -4.87115 3.56292 9.66195
v -4.87115 3.56292 9.66195
v -46.44037 27.56292 9.66194
v -46.44037 27.56292 9.66194
v -5.02792 3.29139 9.79182
v -5.02792 3.29139 9.79182
v -46.59714 27.29139 9.79182
v -46.59714 27.29139 9.79182
v -5.19615 3.00000 9.83611
v -5.19615 3.00000 9.83611
v -46.76537 27.00000 9.83611
v -46.76537 27.00000 9.83611
v -5.36438 2.70861 9.79182
v -5.36438 2.70861 9.79182
v -46.93360 26.70861 9.79182
v -46.93360 26.70861 9.79182
v -5.52115 2.43708 9.66195
v -5.52115 2.43708 9.66195
v -47.09037 26.43708 9.66194
v -47.09037 26.43708 9.66194
v -5.65577 2.20392 9.45535
v -5.65577 2.20392 9.45535
v -47.22499 26.20392 9.45535
v -47.22499 26.20392 9.45535
v -5.75907 2.02500 9.18611
v -5.75907 2.02500 9.18611
v -47.32829 26.02500 9.18611
v -47.32829 26.02500 9.18611
v -5.82400 1.91253 8.87258
v -5.82400 1.91253 8.87258
v -47.39322 25.91253 8.87258
v -47.39322 25.91253 8.87258
v -5.84615 1.87417 8.53611
v -5.84615 1.87417 8.53611
v -47.41537 25.87417 8.53611
v -47.41537 25.87417 8.53611
v -5.82400 1.91253 8.19965
v -5.82400 1.91253 8.19965
v -47.39322 25.91253 8.19965
v -47.39322 25.91253 8.19965
v -5.75907 2.02500 7.88611
v -5.75907 2.02500 7.88611
v -47.32829 26.02500 7.88611
v -47.32829 26.02500 7.88611
v -5.65577 2.20392 7.61688
v -5.65577 2.20392 7.61688
v -47.22499 26.20392 7.61687
v -47.22499 26.20392 7.61687
v -5.52115 2.43708 7.41028
v -5.52115 2.43708 7.41028
v -47.09037 26.43708 7.41028
v -47.09037 26.43708 7.41028
v -5.36438 2.70861 7.28041
v -5.36438 2.70861 7.28041
v -46.93360 26.70861 7.28041
v -46.93360 26.70861 7.28041
v -5.19615 3.00000 7.23611
v -5.19615 3.00000 7.23611
v -46.76537 27.00000 7.23611
v -46.76537 27.00000 7.23611
v -5.02792 3.29139 7.28041
v -5.02792 3.29139 7.28041
v -46.59714 27.29139 7.28041
v -46.59714 27.29139 7.28041
v -4.87115 3.56292 7.41028
v -4.87115 3.56292 7.41028
v -46.44037 27.56292 7.41028
v -46.44037 27.56292 7.41028
v -4.73653 3.79608 7.61688
v -4.73653 3.79608 7.61688
v -46.30575 27.79608 7.61687
v -46.30575 27.79608 7.61687
v -4.59614 4.03922 10.01111
v -4.59614 4.03922 10.01111
v -4.59614 4.03922 10.01111
v -4.59614 4.03922 10.26111
v -4.59614 4.03922 10.26111
v -4.59614 4.03922 10.26111
v -5.79615 1.96076 10.01111
v -5.79615 1.96076 10.01111
v -5.79615 1.96076 10.01111
v -5.79615 1.96076 10.26111
v -5.79615 1.96076 10.26111
v -5.79615 1.96076 10.26111
v -46.16538 28.03924 10.01111
v -46.16538 28.03924 10.01111
v -46.16538 28.03924 10.01111
v -46.16538 28.03924 10.26111
v -46.16538 28.03924 10.26111
v -46.16538 28.03924 10.26111
v -47.36538 25.96078 10.01111
v -47.36538 25.96078 10.01111
v -47.36538 25.96078 10.01111
v -47.36538 25.96078 10.26111
v -47.36538 25.96078 10.26111
v -47.36538 25.96078 10.26111
vn 0.90588 0.21120 -0.36711
vn 0.90588 0.21120 -0.36711
vn 0.90588 0.21120 -0.36711
vn -0.27003 0.89012 -0.36711
vn -0.27003 0.89012 -0.36711
vn -0.27003 0.89012 -0.36711
vn 0.94255 0.27473 -0.19006
vn 0.94255 0.27473 -0.19006
vn -0.23336 0.95364 -0.19006
vn -0.23336 0.95364 -0.19006
vn 0.95506 0.29643 -0.00003
vn 0.95506 0.29643 -0.00003
vn -0.22081 0.97532 -0.00003
vn -0.22081 0.97532 -0.00003
vn 0.94254 0.27476 0.19004
vn 0.94254 0.27476 0.19004
vn -0.23332 0.95365 0.19004
vn -0.23332 0.95365 0.19004
vn 0.90586 0.21122 0.36715
vn 0.90586 0.21122 0.36715
vn -0.27001 0.89011 0.36715
vn -0.27001 0.89011 0.36715
vn 0.84753 0.11014 0.51919
vn 0.84753 0.11014 0.51919
vn -0.32838 0.78905 0.51919
vn -0.32838 0.78905 0.51919
vn 0.77151 -0.02153 0.63585
vn 0.77151 -0.02153 0.63585
vn -0.40440 0.65738 0.63585
vn -0.40440 0.65738 0.63585
vn 0.68298 -0.17486 0.70920
vn 0.68298 -0.17486 0.70920
vn -0.49292 0.50405 0.70920
vn -0.49292 0.50405 0.70920
vn 0.58795 -0.33942 0.73424
vn 0.58795 -0.33942 0.73424
vn -0.58792 0.33947 0.73424
vn -0.58792 0.33947 0.73424
vn 0.49291 -0.50402 0.70923
vn 0.49291 -0.50402 0.70923
vn -0.68295 0.17487 0.70923
vn -0.68295 0.17487 0.70923
vn 0.40436 -0.65740 0.63586
vn 0.40436 -0.65740 0.63586
vn -0.77151 0.02148 0.63586
vn -0.77151 0.02148 0.63586
vn 0.32836 -0.78909 0.51915
vn 0.32836 -0.78909 0.51915
vn -0.84755 -0.11018 0.51915
vn -0.84755 -0.11018 0.51915
vn 0.27003 -0.89012 0.36711
vn 0.27003 -0.89012 0.36711
vn -0.90588 -0.21120 0.36711
vn -0.90588 -0.21120 0.36711
vn 0.23336 -0.95364 0.19006
vn 0.23336 -0.95364 0.19006
vn -0.94255 -0.27473 0.19006
vn -0.94255 -0.27473 0.19006
vn 0.22081 -0.97532 0.00003
vn 0.22081 -0.97532 0.00003
vn -0.95506 -0.29643 0.00003
vn -0.95506 -0.29643 0.00003
vn 0.23332 -0.95365 -0.19004
vn 0.23332 -0.95365 -0.19004
vn -0.94254 -0.27476 -0.19004
vn -0.94254 -0.27476 -0.19004
vn 0.27001 -0.89011 -0.36715
vn 0.27001 -0.89011 -0.36715
vn -0.90586 -0.21122 -0.36715
vn -0.90586 -0.21122 -0.36715
vn 0.32838 -0.78905 -0.51919
vn 0.32838 -0.78905 -0.51919
vn -0.84753 -0.11014 -0.51919
vn -0.84753 -0.11014 -0.51919
vn 0.40440 -0.65738 -0.63585
vn 0.40440 -0.65738 -0.63585
vn -0.77151 0.02153 -0.63585
vn -0.77151 0.02153 -0.63585
vn 0.49292 -0.50405 -0.70920
vn 0.49292 -0.50405 -0.70920
vn -0.68298 0.17486 -0.70920
vn -0.68298 0.17486 -0.70920
vn 0.58792 -0.33947 -0.73424
vn 0.58792 -0.33947 -0.73424
vn -0.58795 0.33942 -0.73424
vn -0.58795 0.33942 -0.73424
vn 0.68295 -0.17487 -0.70923
vn 0.68295 -0.17487 -0.70923
vn -0.49291 0.50402 -0.70923
vn -0.49291 0.50402 -0.70923
vn 0.77151 -0.02148 -0.63586
vn 0.77151 -0.02148 -0.63586
vn -0.40436 0.65740 -0.63586
vn -0.40436 0.65740 -0.63586
vn 0.84755 0.11018 -0.51915
vn 0.84755 0.11018 -0.51915
vn -0.32836 0.78909 -0.51915
vn -0.32836 0.78909 -0.51915
vn 0.50000 0.86603 0.00000
vn 0.00000 0.00000 -1.00000
vn 0.86603 -0.50000 0.00000
vn 0.50000 0.86603 0.00000
vn 0.00000 0.00000 1.00000
vn 0.86603 -0.50000 0.00000
vn -0.50000 -0.86603 0.00000
vn 0.00000 0.00000 -1.00000
vn 0.86603 -0.50000 0.00000
vn -0.50000 -0.86603 0.00000
vn 0.00000 0.00000 1.00000
vn 0.86603 -0.50000 0.00000
vn 0.50000 0.86603 0.00000
vn 0.00000 0.00000 -1.00000
vn -0.86603 0.50000 0.00000
vn 0.50000 0.86603 0.00000
vn 0.00000 0.00000 1.00000
vn -0.86603 0.50000 0.00000
vn -0.50000 -0.86603 0.00000
vn 0.00000 0.00000 -1.00000
vn -0.86603 0.50000 0.00000
vn -0.50000 -0.86603 0.00000
vn 0.00000 0.00000 1.00000
vn -0.86603 0.50000 0.00000
usemtl WF_Yellow
f 2//2 5//5 10//10
f 2//2 10//10 8//8
f 8//8 10//10 14//14
f 8//8 14//14 12//12
f 12//12 14//14 18//18
f 12//12 18//18 15//15
f 15//15 18//18 22//22
f 15//15 22//22 19//19
f 19//19 22//22 26//26
f 19//19 26//26 23//23
f 23//23 26//26 30//30
f 23//23 30//30 27//27
f 27//27 30//30 34//34
f 27//27 34//34 31//31
f 31//31 34//34 38//38
f 31//31 38//38 35//35
f 35//35 38//38 42//42
f 35//35 42//42 39//39
f 39//39 42//42 46//46
f 39//39 46//46 43//43
f 43//43 46//46 50//50
f 43//43 50//50 47//47
f 47//47 50//50 54//54
f 47//47 54//54 51//51
f 51//51 54//54 58//58
f 51//51 58//58 55//55
f 55//55 58//58 62//62
f 55//55 62//62 59//59
f 59//59 62//62 66//66
f 59//59 66//66 63//63
f 63//63 66//66 70//70
f 63//63 70//70 67//67
f 67//67 70//70 74//74
f 67//67 74//74 71//71
f 71//71 74//74 78//78
f 71//71 78//78 75//75
f 75//75 78//78 82//82
f 75//75 82//82 79//79
f 79//79 82//82 86//86
f 79//79 86//86 83//83
f 83//83 86//86 90//90
f 83//83 90//90 87//87
f 87//87 90//90 93//93
f 87//87 93//93 91//91
f 13//13 9//9 4//4
f 4//4 98//98 94//94
f 94//94 89//89 85//85
f 85//85 81//81 77//77
f 77//77 73//73 69//69
f 69//69 65//65 61//61
f 61//61 57//57 53//53
f 53//53 49//49 45//45
f 45//45 41//41 37//37
f 37//37 33//33 29//29
f 29//29 25//25 21//21
f 21//21 17//17 13//13
f 13//13 4//4 94//94
f 94//94 85//85 77//77
f 77//77 69//69 61//61
f 61//61 53//53 45//45
f 45//45 37//37 29//29
f 29//29 21//21 13//13
f 13//13 94//94 77//77
f 77//77 61//61 45//45
f 45//45 29//29 13//13
f 77//77 45//45 13//13
f 91//91 93//93 97//97
f 91//91 97//97 95//95
f 95//95 97//97 6//6
f 95//95 6//6 3//3
f 96//96 1//1 7//7
f 7//7 11//11 16//16
f 16//16 20//20 24//24
f 24//24 28//28 32//32
f 32//32 36//36 40//40
f 40//40 44//44 48//48
f 48//48 52//52 56//56
f 56//56 60//60 64//64
f 64//64 68//68 72//72
f 72//72 76//76 80//80
f 80//80 84//84 88//88
f 88//88 92//92 96//96
f 96//96 7//7 16//16
f 16//16 24//24 32//32
f 32//32 40//40 48//48
f 48//48 56//56 64//64
f 64//64 72//72 80//80
f 80//80 88//88 96//96
f 96//96 16//16 32//32
f 32//32 48//48 64//64
f 64//64 80//80 96//96
f 32//32 64//64 96//96
f 101//101 104//104 110//110
f 101//101 110//110 107//107
f 105//105 108//108 120//120
f 105//105 120//120 117//117
f 119//119 122//122 116//116
f 119//119 116//116 113//113
f 111//111 114//114 102//102
f 111//111 102//102 99//99
f 106//106 118//118 112//112
f 106//106 112//112 100//100
f 121//121 109//109 103//103
f 121//121 103//103 115//115
