mtllib column_1.mtl
o column_1
v -0.00000 6.00000 -20.00000
v -0.00000 6.00000 -20.00000
v -0.00000 6.00000 -20.00000
v -0.00000 6.00000 1.50000
v -0.00000 6.00000 1.50000
v -0.00000 6.00000 1.50000
v 0.58810 5.97111 -20.00000
v 0.58810 5.97111 -20.00000
v 0.58810 5.97111 1.50000
v 0.58810 5.97111 1.50000
v 1.17054 5.88471 -20.00000
v 1.17054 5.88471 -20.00000
v 1.17054 5.88471 1.50000
v 1.17054 5.88471 1.50000
v 1.74171 5.74164 -20.00000
v 1.74171 5.74164 -20.00000
v 1.74171 5.74164 1.50000
v 1.74171 5.74164 1.50000
v 2.29610 5.54328 -20.00000
v 2.29610 5.54328 -20.00000
v 2.29610 5.54328 1.50000
v 2.29610 5.54328 1.50000
v 2.82838 5.29153 -20.00000
v 2.82838 5.29153 -20.00000
v 2.82838 5.29153 1.50000
v 2.82838 5.29153 1.50000
v 3.33342 4.98882 -20.00000
v 3.33342 4.98882 -20.00000
v 3.33342 4.98882 1.50000
v 3.33342 4.98882 1.50000
v 3.80636 4.63806 -20.00000
v 3.80636 4.63806 -20.00000
v 3.80636 4.63806 1.50000
v 3.80636 4.63806 1.50000
v 4.24264 4.24264 -20.00000
v 4.24264 4.24264 -20.00000
v 4.24264 4.24264 1.50000
v 4.24264 4.24264 1.50000
v 4.63806 3.80636 -20.00000
v 4.63806 3.80636 -20.00000
v 4.63806 3.80636 1.50000
v 4.63806 3.80636 1.50000
v 4.98882 3.33342 -20.00000
v 4.98882 3.33342 -20.00000
v 4.98882 3.33342 1.50000
v 4.98882 3.33342 1.50000
v 5.29153 2.82838 -20.00000
v 5.29153 2.82838 -20.00000
v 5.29153 2.82838 1.50000
v 5.29153 2.82838 1.50000
v 5.54328 2.29610 -20.00000
v 5.54328 2.29610 -20.00000
v 5.54328 2.29610 1.50000
v 5.54328 2.29610 1.50000
v 5.74164 1.74171 -20.00000
v 5.74164 1.74171 -20.00000
v 5.74164 1.74171 1.50000
v 5.74164 1.74171 1.50000
v 5.88471 1.17054 -20.00000
v 5.88471 1.17054 -20.00000
v 5.88471 1.17054 1.50000
v 5.88471 1.17054 1.50000
v 5.97111 0.58810 -20.00000
v 5.97111 0.58810 -20.00000
v 5.97111 0.58810 1.50000
v 5.97111 0.58810 1.50000
v 6.00000 0.00000 -20.00000
v 6.00000 0.00000 -20.00000
v 6.00000 0.00000 1.50000
v 6.00000 0.00000 1.50000
v 5.97111 -0.58810 -20.00000
v 5.97111 -0.58810 -20.00000
v 5.97111 -0.58810 1.50000
v 5.97111 -0.58810 1.50000
v 5.88471 -1.17054 -20.00000
v 5.88471 -1.17054 -20.00000
v 5.88471 -1.17054 1.50000
v 5.88471 -1.17054 1.50000
v 5.74164 -1.74171 -20.00000
v 5.74164 -1.74171 -20.00000
v 5.74164 -1.74171 1.50000
v 5.74164 -1.74171 1.50000
v 5.54328 -2.29610 -20.00000
v 5.54328 -2.29610 -20.00000
v 5.54328 -2.29610 1.50000
v 5.54328 -2.29610 1.50000
v 5.29153 -2.82838 -20.00000
v 5.29153 -2.82838 -20.00000
v 5.29153 -2.82838 1.50000
v 5.29153 -2.82838 1.50000
v 4.98882 -3.33342 -20.00000
v 4.98882 -3.33342 -20.00000
v 4.98882 -3.33342 1.50000
v 4.98882 -3.33342 1.50000
v 4.63806 -3.80636 -20.00000
v 4.63806 -3.80636 -20.00000
v 4.63806 -3.80636 1.50000
v 4.63806 -3.80636 1.50000
v 4.24264 -4.24264 -20.00000
v 4.24264 -4.24264 -20.00000
v 4.24264 -4.24264 1.50000
v 4.24264 -4.24264 1.50000
v 3.80636 -4.63806 -20.00000
v 3.80636 -4.63806 -20.00000
v 3.80636 -4.63806 1.50000
v 3.80636 -4.63806 1.50000
v 3.33342 -4.98882 -20.00000
v 3.33342 -4.98882 -20.00000
v 3.33342 -4.98882 1.50000
v 3.33342 -4.98882 1.50000
v 2.82838 -5.29153 -20.00000
v 2.82838 -5.29153 -20.00000
v 2.82838 -5.29153 1.50000
v 2.82838 -5.29153 1.50000
v 2.29610 -5.54328 -20.00000
v 2.29610 -5.54328 -20.00000
v 2.29610 -5.54328 1.50000
v 2.29610 -5.54328 1.50000
v 1.74171 -5.74164 -20.00000
v 1.74171 -5.74164 -20.00000
v 1.74171 -5.74164 1.50000
v 1.74171 -5.74164 1.50000
v 1.17054 -5.88471 -20.00000
v 1.17054 -5.88471 -20.00000
v 1.17054 -5.88471 1.50000
v 1.17054 -5.88471 1.50000
v 0.58810 -5.97111 -20.00000
v 0.58810 -5.97111 -20.00000
v 0.58810 -5.97111 1.50000
v 0.58810 -5.97111 1.50000
v -0.00000 -6.00000 -20.00000
v -0.00000 -6.00000 -20.00000
v -0.00000 -6.00000 1.50000
v -0.00000 -6.00000 1.50000
v -0.58810 -5.97111 -20.00000
v -0.58810 -5.97111 -20.00000
v -0.58810 -5.97111 1.50000
v -0.58810 -5.97111 1.50000
v -1.17054 -5.88471 -20.00000
v -1.17054 -5.88471 -20.00000
v -1.17054 -5.88471 1.50000
v -1.17054 -5.88471 1.50000
v -1.74171 -5.74164 -20.00000
v -1.74171 -5.74164 -20.00000
v -1.74171 -5.74164 1.50000
v -1.74171 -5.74164 1.50000
v -2.29610 -5.54328 -20.00000
v -2.29610 -5.54328 -20.00000
v -2.29610 -5.54328 1.50000
v -2.29610 -5.54328 1.50000
v -2.82838 -5.29153 -20.00000
v -2.82838 -5.29153 -20.00000
v -2.82838 -5.29153 1.50000
v -2.82838 -5.29153 1.50000
v -3.33342 -4.98882 -20.00000
v -3.33342 -4.98882 -20.00000
v -3.33342 -4.98882 1.50000
v -3.33342 -4.98882 1.50000
v -3.80636 -4.63806 -20.00000
v -3.80636 -4.63806 -20.00000
v -3.80636 -4.63806 1.50000
v -3.80636 -4.63806 1.50000
v -4.24264 -4.24264 -20.00000
v -4.24264 -4.24264 -20.00000
v -4.24264 -4.24264 1.50000
v -4.24264 -4.24264 1.50000
v -4.63806 -3.80636 -20.00000
v -4.63806 -3.80636 -20.00000
v -4.63806 -3.80636 1.50000
v -4.63806 -3.80636 1.50000
v -4.98882 -3.33342 -20.00000
v -4.98882 -3.33342 -20.00000
v -4.98882 -3.33342 1.50000
v -4.98882 -3.33342 1.50000
v -5.29153 -2.82838 -20.00000
v -5.29153 -2.82838 -20.00000
v -5.29153 -2.82838 1.50000
v -5.29153 -2.82838 1.50000
v -5.54328 -2.29610 -20.00000
v -5.54328 -2.29610 -20.00000
v -5.54328 -2.29610 1.50000
v -5.54328 -2.29610 1.50000
v -5.74164 -1.74171 -20.00000
v -5.74164 -1.74171 -20.00000
v -5.74164 -1.74171 1.50000
v -5.74164 -1.74171 1.50000
v -5.88471 -1.17054 -20.00000
v -5.88471 -1.17054 -20.00000
v -5.88471 -1.17054 1.50000
v -5.88471 -1.17054 1.50000
v -5.97111 -0.58810 -20.00000
v -5.97111 -0.58810 -20.00000
v -5.97111 -0.58810 1.50000
v -5.97111 -0.58810 1.50000
v -6.00000 0.00000 -20.00000
v -6.00000 0.00000 -20.00000
v -6.00000 0.00000 1.50000
v -6.00000 0.00000 1.50000
v -5.97111 0.58810 -20.00000
v -5.97111 0.58810 -20.00000
v -5.97111 0.58810 1.50000
v -5.97111 0.58810 1.50000
v -5.88471 1.17054 -20.00000
v -5.88471 1.17054 -20.00000
v -5.88471 1.17054 1.50000
v -5.88471 1.17054 1.50000
v -5.74164 1.74171 -20.00000
v -5.74164 1.74171 -20.00000
v -5.74164 1.74171 1.50000
v -5.74164 1.74171 1.50000
v -5.54328 2.29610 -20.00000
v -5.54328 2.29610 -20.00000
v -5.54328 2.29610 1.50000
v -5.54328 2.29610 1.50000
v -5.29153 2.82838 -20.00000
v -5.29153 2.82838 -20.00000
v -5.29153 2.82838 1.50000
v -5.29153 2.82838 1.50000
v -4.98882 3.33342 -20.00000
v -4.98882 3.33342 -20.00000
v -4.98882 3.33342 1.50000
v -4.98882 3.33342 1.50000
v -4.63806 3.80636 -20.00000
v -4.63806 3.80636 -20.00000
v -4.63806 3.80636 1.50000
v -4.63806 3.80636 1.50000
v -4.24264 4.24264 -20.00000
v -4.24264 4.24264 -20.00000
v -4.24264 4.24264 1.50000
v -4.24264 4.24264 1.50000
v -3.80636 4.63806 -20.00000
v -3.80636 4.63806 -20.00000
v -3.80636 4.63806 1.50000
v -3.80636 4.63806 1.50000
v -3.33342 4.98882 -20.00000
v -3.33342 4.98882 -20.00000
v -3.33342 4.98882 1.50000
v -3.33342 4.98882 1.50000
v -2.82838 5.29153 -20.00000
v -2.82838 5.29153 -20.00000
v -2.82838 5.29153 1.50000
v -2.82838 5.29153 1.50000
v -2.29610 5.54328 -20.00000
v -2.29610 5.54328 -20.00000
v -2.29610 5.54328 1.50000
v -2.29610 5.54328 1.50000
v -1.74171 5.74164 -20.00000
v -1.74171 5.74164 -20.00000
v -1.74171 5.74164 1.50000
v -1.74171 5.74164 1.50000
v -1.17054 5.88471 -20.00000
v -1.17054 5.88471 -20.00000
v -1.17054 5.88471 1.50000
v -1.17054 5.88471 1.50000
v -0.58810 5.97111 -20.00000
v -0.58810 5.97111 -20.00000
v -0.58810 5.97111 1.50000
v -0.58810 5.97111 1.50000
v -0.00000 9.50000 -20.00000
v -0.00000 9.50000 -20.00000
v -0.00000 9.50000 -20.00000
v -0.00000 9.50000 -19.00000
v -0.00000 9.50000 -19.00000
v -0.00000 9.50000 -19.00000
v 0.93116 9.45426 -20.00000
v 0.93116 9.45426 -20.00000
v 0.93116 9.45426 -19.00000
v 0.93116 9.45426 -19.00000
v 1.85336 9.31746 -20.00000
v 1.85336 9.31746 -20.00000
v 1.85336 9.31746 -19.00000
v 1.85336 9.31746 -19.00000
v 2.75770 9.09093 -20.00000
v 2.75770 9.09093 -20.00000
v 2.75770 9.09093 -19.00000
v 2.75770 9.09093 -19.00000
v 3.63549 8.77686 -20.00000
v 3.63549 8.77686 -20.00000
v 3.63549 8.77686 -19.00000
v 3.63549 8.77686 -19.00000
v 4.47827 8.37825 -20.00000
v 4.47827 8.37825 -20.00000
v 4.47827 8.37825 -19.00000
v 4.47827 8.37825 -19.00000
v 5.27792 7.89896 -20.00000
v 5.27792 7.89896 -20.00000
v 5.27792 7.89896 -19.00000
v 5.27792 7.89896 -19.00000
v 6.02674 7.34360 -20.00000
v 6.02674 7.34360 -20.00000
v 6.02674 7.34360 -19.00000
v 6.02674 7.34360 -19.00000
v 6.71751 6.71751 -20.00000
v 6.71751 6.71751 -20.00000
v 6.71751 6.71751 -19.00000
v 6.71751 6.71751 -19.00000
v 7.34360 6.02674 -20.00000
v 7.34360 6.02674 -20.00000
v 7.34360 6.02674 -19.00000
v 7.34360 6.02674 -19.00000
v 7.89896 5.27792 -20.00000
v 7.89896 5.27792 -20.00000
v 7.89896 5.27792 -19.00000
v 7.89896 5.27792 -19.00000
v 8.37825 4.47827 -20.00000
v 8.37825 4.47827 -20.00000
v 8.37825 4.47827 -19.00000
v 8.37825 4.47827 -19.00000
v 8.77685 3.63549 -20.00000
v 8.77685 3.63549 -20.00000
v 8.77685 3.63549 -19.00000
v 8.77685 3.63549 -19.00000
v 9.09093 2.75770 -20.00000
v 9.09093 2.75770 -20.00000
v 9.09093 2.75770 -19.00000
v 9.09093 2.75770 -19.00000
v 9.31746 1.85336 -20.00000
v 9.31746 1.85336 -20.00000
v 9.31746 1.85336 -19.00000
v 9.31746 1.85336 -19.00000
v 9.45425 0.93116 -20.00000
v 9.45425 0.93116 -20.00000
v 9.45425 0.93116 -19.00000
v 9.45425 0.93116 -19.00000
v 9.50000 0.00000 -20.00000
v 9.50000 0.00000 -20.00000
v 9.50000 0.00000 -19.00000
v 9.50000 0.00000 -19.00000
v 9.45425 -0.93116 -20.00000
v 9.45425 -0.93116 -20.00000
v 9.45425 -0.93116 -19.00000
v 9.45425 -0.93116 -19.00000
v 9.31746 -1.85336 -20.00000
v 9.31746 -1.85336 -20.00000
v 9.31746 -1.85336 -19.00000
v 9.31746 -1.85336 -19.00000
v 9.09093 -2.75770 -20.00000
v 9.09093 -2.75770 -20.00000
v 9.09093 -2.75770 -19.00000
v 9.09093 -2.75770 -19.00000
v 8.77685 -3.63549 -20.00000
v 8.77685 -3.63549 -20.00000
v 8.77685 -3.63549 -19.00000
v 8.77685 -3.63549 -19.00000
v 8.37825 -4.47827 -20.00000
v 8.37825 -4.47827 -20.00000
v 8.37825 -4.47827 -19.00000
v 8.37825 -4.47827 -19.00000
v 7.89896 -5.27792 -20.00000
v 7.89896 -5.27792 -20.00000
v 7.89896 -5.27792 -19.00000
v 7.89896 -5.27792 -19.00000
v 7.34360 -6.02674 -20.00000
v 7.34360 -6.02674 -20.00000
v 7.34360 -6.02674 -19.00000
v 7.34360 -6.02674 -19.00000
v 6.71751 -6.71751 -20.00000
v 6.71751 -6.71751 -20.00000
v 6.71751 -6.71751 -19.00000
v 6.71751 -6.71751 -19.00000
v 6.02674 -7.34360 -20.00000
v 6.02674 -7.34360 -20.00000
v 6.02674 -7.34360 -19.00000
v 6.02674 -7.34360 -19.00000
v 5.27792 -7.89896 -20.00000
v 5.27792 -7.89896 -20.00000
v 5.27792 -7.89896 -19.00000
v 5.27792 -7.89896 -19.00000
v 4.47827 -8.37825 -20.00000
v 4.47827 -8.37825 -20.00000
v 4.47827 -8.37825 -19.00000
v 4.47827 -8.37825 -19.00000
v 3.63549 -8.77686 -20.00000
v 3.63549 -8.77686 -20.00000
v 3.63549 -8.77686 -19.00000
v 3.63549 -8.77686 -19.00000
v 2.75770 -9.09093 -20.00000
v 2.75770 -9.09093 -20.00000
v 2.75770 -9.09093 -19.00000
v 2.75770 -9.09093 -19.00000
v 1.85336 -9.31746 -20.00000
v 1.85336 -9.31746 -20.00000
v 1.85336 -9.31746 -19.00000
v 1.85336 -9.31746 -19.00000
v 0.93116 -9.45426 -20.00000
v 0.93116 -9.45426 -20.00000
v 0.93116 -9.45426 -19.00000
v 0.93116 -9.45426 -19.00000
v -0.00000 -9.50000 -20.00000
v -0.00000 -9.50000 -20.00000
v -0.00000 -9.50000 -19.00000
v -0.00000 -9.50000 -19.00000
v -0.93116 -9.45426 -20.00000
v -0.93116 -9.45426 -20.00000
v -0.93116 -9.45426 -19.00000
v -0.93116 -9.45426 -19.00000
v -1.85336 -9.31746 -20.00000
v -1.85336 -9.31746 -20.00000
v -1.85336 -9.31746 -19.00000
v -1.85336 -9.31746 -19.00000
v -2.75771 -9.09093 -20.00000
v -2.75771 -9.09093 -20.00000
v -2.75771 -9.09093 -19.00000
v -2.75771 -9.09093 -19.00000
v -3.63549 -8.77686 -20.00000
v -3.63549 -8.77686 -20.00000
v -3.63549 -8.77686 -19.00000
v -3.63549 -8.77686 -19.00000
v -4.47827 -8.37825 -20.00000
v -4.47827 -8.37825 -20.00000
v -4.47827 -8.37825 -19.00000
v -4.47827 -8.37825 -19.00000
v -5.27792 -7.89896 -20.00000
v -5.27792 -7.89896 -20.00000
v -5.27792 -7.89896 -19.00000
v -5.27792 -7.89896 -19.00000
v -6.02674 -7.34360 -20.00000
v -6.02674 -7.34360 -20.00000
v -6.02674 -7.34360 -19.00000
v -6.02674 -7.34360 -19.00000
v -6.71752 -6.71751 -20.00000
v -6.71752 -6.71751 -20.00000
v -6.71752 -6.71751 -19.00000
v -6.71752 -6.71751 -19.00000
v -7.34360 -6.02674 -20.00000
v -7.34360 -6.02674 -20.00000
v -7.34360 -6.02674 -19.00000
v -7.34360 -6.02674 -19.00000
v -7.89896 -5.27792 -20.00000
v -7.89896 -5.27792 -20.00000
v -7.89896 -5.27792 -19.00000
v -7.89896 -5.27792 -19.00000
v -8.37825 -4.47827 -20.00000
v -8.37825 -4.47827 -20.00000
v -8.37825 -4.47827 -19.00000
v -8.37825 -4.47827 -19.00000
v -8.77686 -3.63549 -20.00000
v -8.77686 -3.63549 -20.00000
v -8.77686 -3.63549 -19.00000
v -8.77686 -3.63549 -19.00000
v -9.09093 -2.75770 -20.00000
v -9.09093 -2.75770 -20.00000
v -9.09093 -2.75770 -19.00000
v -9.09093 -2.75770 -19.00000
v -9.31746 -1.85336 -20.00000
v -9.31746 -1.85336 -20.00000
v -9.31746 -1.85336 -19.00000
v -9.31746 -1.85336 -19.00000
v -9.45426 -0.93116 -20.00000
v -9.45426 -0.93116 -20.00000
v -9.45426 -0.93116 -19.00000
v -9.45426 -0.93116 -19.00000
v -9.50000 0.00000 -20.00000
v -9.50000 0.00000 -20.00000
v -9.50000 0.00000 -19.00000
v -9.50000 0.00000 -19.00000
v -9.45426 0.93116 -20.00000
v -9.45426 0.93116 -20.00000
v -9.45426 0.93116 -19.00000
v -9.45426 0.93116 -19.00000
v -9.31746 1.85336 -20.00000
v -9.31746 1.85336 -20.00000
v -9.31746 1.85336 -19.00000
v -9.31746 1.85336 -19.00000
v -9.09093 2.75770 -20.00000
v -9.09093 2.75770 -20.00000
v -9.09093 2.75770 -19.00000
v -9.09093 2.75770 -19.00000
v -8.77686 3.63549 -20.00000
v -8.77686 3.63549 -20.00000
v -8.77686 3.63549 -19.00000
v -8.77686 3.63549 -19.00000
v -8.37825 4.47827 -20.00000
v -8.37825 4.47827 -20.00000
v -8.37825 4.47827 -19.00000
v -8.37825 4.47827 -19.00000
v -7.89896 5.27792 -20.00000
v -7.89896 5.27792 -20.00000
v -7.89896 5.27792 -19.00000
v -7.89896 5.27792 -19.00000
v -7.34360 6.02674 -20.00000
v -7.34360 6.02674 -20.00000
v -7.34360 6.02674 -19.00000
v -7.34360 6.02674 -19.00000
v -6.71752 6.71751 -20.00000
v -6.71752 6.71751 -20.00000
v -6.71752 6.71751 -19.00000
v -6.71752 6.71751 -19.00000
v -6.02674 7.34360 -20.00000
v -6.02674 7.34360 -20.00000
v -6.02674 7.34360 -19.00000
v -6.02674 7.34360 -19.00000
v -5.27792 7.89896 -20.00000
v -5.27792 7.89896 -20.00000
v -5.27792 7.89896 -19.00000
v -5.27792 7.89896 -19.00000
v -4.47827 8.37825 -20.00000
v -4.47827 8.37825 -20.00000
v -4.47827 8.37825 -19.00000
v -4.47827 8.37825 -19.00000
v -3.63549 8.77686 -20.00000
v -3.63549 8.77686 -20.00000
v -3.63549 8.77686 -19.00000
v -3.63549 8.77686 -19.00000
v -2.75771 9.09093 -20.00000
v -2.75771 9.09093 -20.00000
v -2.75771 9.09093 -19.00000
v -2.75771 9.09093 -19.00000
v -1.85336 9.31746 -20.00000
v -1.85336 9.31746 -20.00000
v -1.85336 9.31746 -19.00000
v -1.85336 9.31746 -19.00000
v -0.93116 9.45426 -20.00000
v -0.93116 9.45426 -20.00000
v -0.93116 9.45426 -19.00000
v -0.93116 9.45426 -19.00000
v -0.00000 6.40000 10.00000
v -0.00000 6.40000 10.00000
v -0.00000 6.40000 10.00000
v -0.00000 6.40000 10.50000
v -0.00000 6.40000 10.50000
v -0.00000 6.40000 10.50000
v 0.62731 6.36918 10.00000
v 0.62731 6.36918 10.00000
v 0.62731 6.36918 10.50000
v 0.62731 6.36918 10.50000
v 1.24858 6.27703 10.00000
v 1.24858 6.27703 10.00000
v 1.24858 6.27703 10.50000
v 1.24858 6.27703 10.50000
v 1.85782 6.12442 10.00000
v 1.85782 6.12442 10.00000
v 1.85782 6.12442 10.50000
v 1.85782 6.12442 10.50000
v 2.44917 5.91283 10.00000
v 2.44917 5.91283 10.00000
v 2.44917 5.91283 10.50000
v 2.44917 5.91283 10.50000
v 3.01694 5.64430 10.00000
v 3.01694 5.64430 10.00000
v 3.01694 5.64430 10.50000
v 3.01694 5.64430 10.50000
v 3.55565 5.32141 10.00000
v 3.55565 5.32141 10.00000
v 3.55565 5.32141 10.50000
v 3.55565 5.32141 10.50000
v 4.06012 4.94727 10.00000
v 4.06012 4.94727 10.00000
v 4.06012 4.94727 10.50000
v 4.06012 4.94727 10.50000
v 4.52548 4.52548 10.00000
v 4.52548 4.52548 10.00000
v 4.52548 4.52548 10.50000
v 4.52548 4.52548 10.50000
v 4.94727 4.06012 10.00000
v 4.94727 4.06012 10.00000
v 4.94727 4.06012 10.50000
v 4.94727 4.06012 10.50000
v 5.32140 3.55565 10.00000
v 5.32140 3.55565 10.00000
v 5.32140 3.55565 10.50000
v 5.32140 3.55565 10.50000
v 5.64430 3.01694 10.00000
v 5.64430 3.01694 10.00000
v 5.64430 3.01694 10.50000
v 5.64430 3.01694 10.50000
v 5.91283 2.44917 10.00000
v 5.91283 2.44917 10.00000
v 5.91283 2.44917 10.50000
v 5.91283 2.44917 10.50000
v 6.12442 1.85782 10.00000
v 6.12442 1.85782 10.00000
v 6.12442 1.85782 10.50000
v 6.12442 1.85782 10.50000
v 6.27702 1.24858 10.00000
v 6.27702 1.24858 10.00000
v 6.27702 1.24858 10.50000
v 6.27702 1.24858 10.50000
v 6.36918 0.62731 10.00000
v 6.36918 0.62731 10.00000
v 6.36918 0.62731 10.50000
v 6.36918 0.62731 10.50000
v 6.40000 0.00000 10.00000
v 6.40000 0.00000 10.00000
v 6.40000 0.00000 10.50000
v 6.40000 0.00000 10.50000
v 6.36918 -0.62731 10.00000
v 6.36918 -0.62731 10.00000
v 6.36918 -0.62731 10.50000
v 6.36918 -0.62731 10.50000
v 6.27702 -1.24858 10.00000
v 6.27702 -1.24858 10.00000
v 6.27702 -1.24858 10.50000
v 6.27702 -1.24858 10.50000
v 6.12442 -1.85782 10.00000
v 6.12442 -1.85782 10.00000
v 6.12442 -1.85782 10.50000
v 6.12442 -1.85782 10.50000
v 5.91283 -2.44917 10.00000
v 5.91283 -2.44917 10.00000
v 5.91283 -2.44917 10.50000
v 5.91283 -2.44917 10.50000
v 5.64430 -3.01694 10.00000
v 5.64430 -3.01694 10.00000
v 5.64430 -3.01694 10.50000
v 5.64430 -3.01694 10.50000
v 5.32140 -3.55565 10.00000
v 5.32140 -3.55565 10.00000
v 5.32140 -3.55565 10.50000
v 5.32140 -3.55565 10.50000
v 4.94727 -4.06012 10.00000
v 4.94727 -4.06012 10.00000
v 4.94727 -4.06012 10.50000
v 4.94727 -4.06012 10.50000
v 4.52548 -4.52548 10.00000
v 4.52548 -4.52548 10.00000
v 4.52548 -4.52548 10.50000
v 4.52548 -4.52548 10.50000
v 4.06012 -4.94727 10.00000
v 4.06012 -4.94727 10.00000
v 4.06012 -4.94727 10.50000
v 4.06012 -4.94727 10.50000
v 3.55565 -5.32141 10.00000
v 3.55565 -5.32141 10.00000
v 3.55565 -5.32141 10.50000
v 3.55565 -5.32141 10.50000
v 3.01694 -5.64430 10.00000
v 3.01694 -5.64430 10.00000
v 3.01694 -5.64430 10.50000
v 3.01694 -5.64430 10.50000
v 2.44917 -5.91283 10.00000
v 2.44917 -5.91283 10.00000
v 2.44917 -5.91283 10.50000
v 2.44917 -5.91283 10.50000
v 1.85782 -6.12442 10.00000
v 1.85782 -6.12442 10.00000
v 1.85782 -6.12442 10.50000
v 1.85782 -6.12442 10.50000
v 1.24858 -6.27703 10.00000
v 1.24858 -6.27703 10.00000
v 1.24858 -6.27703 10.50000
v 1.24858 -6.27703 10.50000
v 0.62731 -6.36918 10.00000
v 0.62731 -6.36918 10.00000
v 0.62731 -6.36918 10.50000
v 0.62731 -6.36918 10.50000
v -0.00000 -6.40000 10.00000
v -0.00000 -6.40000 10.00000
v -0.00000 -6.40000 10.50000
v -0.00000 -6.40000 10.50000
v -0.62731 -6.36918 10.00000
v -0.62731 -6.36918 10.00000
v -0.62731 -6.36918 10.50000
v -0.62731 -6.36918 10.50000
v -1.24858 -6.27703 10.00000
v -1.24858 -6.27703 10.00000
v -1.24858 -6.27703 10.50000
v -1.24858 -6.27703 10.50000
v -1.85782 -6.12442 10.00000
v -1.85782 -6.12442 10.00000
v -1.85782 -6.12442 10.50000
v -1.85782 -6.12442 10.50000
v -2.44917 -5.91283 10.00000
v -2.44917 -5.91283 10.00000
v -2.44917 -5.91283 10.50000
v -2.44917 -5.91283 10.50000
v -3.01694 -5.64430 10.00000
v -3.01694 -5.64430 10.00000
v -3.01694 -5.64430 10.50000
v -3.01694 -5.64430 10.50000
v -3.55565 -5.32141 10.00000
v -3.55565 -5.32141 10.00000
v -3.55565 -5.32141 10.50000
v -3.55565 -5.32141 10.50000
v -4.06012 -4.94727 10.00000
v -4.06012 -4.94727 10.00000
v -4.06012 -4.94727 10.50000
v -4.06012 -4.94727 10.50000
v -4.52548 -4.52548 10.00000
v -4.52548 -4.52548 10.00000
v -4.52548 -4.52548 10.50000
v -4.52548 -4.52548 10.50000
v -4.94727 -4.06012 10.00000
v -4.94727 -4.06012 10.00000
v -4.94727 -4.06012 10.50000
v -4.94727 -4.06012 10.50000
v -5.32141 -3.55565 10.00000
v -5.32141 -3.55565 10.00000
v -5.32141 -3.55565 10.50000
v -5.32141 -3.55565 10.50000
v -5.64430 -3.01694 10.00000
v -5.64430 -3.01694 10.00000
v -5.64430 -3.01694 10.50000
v -5.64430 -3.01694 10.50000
v -5.91283 -2.44917 10.00000
v -5.91283 -2.44917 10.00000
v -5.91283 -2.44917 10.50000
v -5.91283 -2.44917 10.50000
v -6.12442 -1.85782 10.00000
v -6.12442 -1.85782 10.00000
v -6.12442 -1.85782 10.50000
v -6.12442 -1.85782 10.50000
v -6.27703 -1.24858 10.00000
v -6.27703 -1.24858 10.00000
v -6.27703 -1.24858 10.50000
v -6.27703 -1.24858 10.50000
v -6.36918 -0.62731 10.00000
v -6.36918 -0.62731 10.00000
v -6.36918 -0.62731 10.50000
v -6.36918 -0.62731 10.50000
v -6.40000 0.00000 10.00000
v -6.40000 0.00000 10.00000
v -6.40000 0.00000 10.50000
v -6.40000 0.00000 10.50000
v -6.36918 0.62731 10.00000
v -6.36918 0.62731 10.00000
v -6.36918 0.62731 10.50000
v -6.36918 0.62731 10.50000
v -6.27703 1.24858 10.00000
v -6.27703 1.24858 10.00000
v -6.27703 1.24858 10.50000
v -6.27703 1.24858 10.50000
v -6.12442 1.85782 10.00000
v -6.12442 1.85782 10.00000
v -6.12442 1.85782 10.50000
v -6.12442 1.85782 10.50000
v -5.91283 2.44917 10.00000
v -5.91283 2.44917 10.00000
v -5.91283 2.44917 10.50000
v -5.91283 2.44917 10.50000
v -5.64430 3.01694 10.00000
v -5.64430 3.01694 10.00000
v -5.64430 3.01694 10.50000
v -5.64430 3.01694 10.50000
v -5.32141 3.55565 10.00000
v -5.32141 3.55565 10.00000
v -5.32141 3.55565 10.50000
v -5.32141 3.55565 10.50000
v -4.94727 4.06012 10.00000
v -4.94727 4.06012 10.00000
v -4.94727 4.06012 10.50000
v -4.94727 4.06012 10.50000
v -4.52548 4.52548 10.00000
v -4.52548 4.52548 10.00000
v -4.52548 4.52548 10.50000
v -4.52548 4.52548 10.50000
v -4.06012 4.94727 10.00000
v -4.06012 4.94727 10.00000
v -4.06012 4.94727 10.50000
v -4.06012 4.94727 10.50000
v -3.55565 5.32141 10.00000
v -3.55565 5.32141 10.00000
v -3.55565 5.32141 10.50000
v -3.55565 5.32141 10.50000
v -3.01694 5.64430 10.00000
v -3.01694 5.64430 10.00000
v -3.01694 5.64430 10.50000
v -3.01694 5.64430 10.50000
v -2.44917 5.91283 10.00000
v -2.44917 5.91283 10.00000
v -2.44917 5.91283 10.50000
v -2.44917 5.91283 10.50000
v -1.85782 6.12442 10.00000
v -1.85782 6.12442 10.00000
v -1.85782 6.12442 10.50000
v -1.85782 6.12442 10.50000
v -1.24858 6.27703 10.00000
v -1.24858 6.27703 10.00000
v -1.24858 6.27703 10.50000
v -1.24858 6.27703 10.50000
v -0.62731 6.36918 10.00000
v -0.62731 6.36918 10.00000
v -0.62731 6.36918 10.50000
v -0.62731 6.36918 10.50000
v -0.00000 6.00000 1.50000
v -0.00000 6.00000 1.50000
v -0.00000 6.00000 1.50000
v -0.00000 6.00000 10.00000
v -0.00000 6.00000 10.00000
v -0.00000 6.00000 10.00000
v 0.58810 5.97111 1.50000
v 0.58810 5.97111 1.50000
v 0.58810 5.97111 10.00000
v 0.58810 5.97111 10.00000
v 1.17054 5.88471 1.50000
v 1.17054 5.88471 1.50000
v 1.17054 5.88471 10.00000
v 1.17054 5.88471 10.00000
v 1.74171 5.74164 1.50000
v 1.74171 5.74164 1.50000
v 1.74171 5.74164 10.00000
v 1.74171 5.74164 10.00000
v 2.29610 5.54328 1.50000
v 2.29610 5.54328 1.50000
v 2.29610 5.54328 10.00000
v 2.29610 5.54328 10.00000
v 2.82838 5.29153 1.50000
v 2.82838 5.29153 1.50000
v 2.82838 5.29153 10.00000
v 2.82838 5.29153 10.00000
v 3.33342 4.98882 1.50000
v 3.33342 4.98882 1.50000
v 3.33342 4.98882 10.00000
v 3.33342 4.98882 10.00000
v 3.80636 4.63806 1.50000
v 3.80636 4.63806 1.50000
v 3.80636 4.63806 10.00000
v 3.80636 4.63806 10.00000
v 4.24264 4.24264 1.50000
v 4.24264 4.24264 1.50000
v 4.24264 4.24264 10.00000
v 4.24264 4.24264 10.00000
v 4.63806 3.80636 1.50000
v 4.63806 3.80636 1.50000
v 4.63806 3.80636 10.00000
v 4.63806 3.80636 10.00000
v 4.98882 3.33342 1.50000
v 4.98882 3.33342 1.50000
v 4.98882 3.33342 10.00000
v 4.98882 3.33342 10.00000
v 5.29153 2.82838 1.50000
v 5.29153 2.82838 1.50000
v 5.29153 2.82838 10.00000
v 5.29153 2.82838 10.00000
v 5.54328 2.29610 1.50000
v 5.54328 2.29610 1.50000
v 5.54328 2.29610 10.00000
v 5.54328 2.29610 10.00000
v 5.74164 1.74171 1.50000
v 5.74164 1.74171 1.50000
v 5.74164 1.74171 10.00000
v 5.74164 1.74171 10.00000
v 5.88471 1.17054 1.50000
v 5.88471 1.17054 1.50000
v 5.88471 1.17054 10.00000
v 5.88471 1.17054 10.00000
v 5.97111 0.58810 1.50000
v 5.97111 0.58810 1.50000
v 5.97111 0.58810 10.00000
v 5.97111 0.58810 10.00000
v 6.00000 0.00000 1.50000
v 6.00000 0.00000 1.50000
v 6.00000 0.00000 10.00000
v 6.00000 0.00000 10.00000
v 5.97111 -0.58810 1.50000
v 5.97111 -0.58810 1.50000
v 5.97111 -0.58810 10.00000
v 5.97111 -0.58810 10.00000
v 5.88471 -1.17054 1.50000
v 5.88471 -1.17054 1.50000
v 5.88471 -1.17054 10.00000
v 5.88471 -1.17054 10.00000
v 5.74164 -1.74171 1.50000
v 5.74164 -1.74171 1.50000
v 5.74164 -1.74171 10.00000
v 5.74164 -1.74171 10.00000
v 5.54328 -2.29610 1.50000
v 5.54328 -2.29610 1.50000
v 5.54328 -2.29610 10.00000
v 5.54328 -2.29610 10.00000
v 5.29153 -2.82838 1.50000
v 5.29153 -2.82838 1.50000
v 5.29153 -2.82838 10.00000
v 5.29153 -2.82838 10.00000
v 4.98882 -3.33342 1.50000
v 4.98882 -3.33342 1.50000
v 4.98882 -3.33342 10.00000
v 4.98882 -3.33342 10.00000
v 4.63806 -3.80636 1.50000
v 4.63806 -3.80636 1.50000
v 4.63806 -3.80636 10.00000
v 4.63806 -3.80636 10.00000
v 4.24264 -4.24264 1.50000
v 4.24264 -4.24264 1.50000
v 4.24264 -4.24264 10.00000
v 4.24264 -4.24264 10.00000
v 3.80636 -4.63806 1.50000
v 3.80636 -4.63806 1.50000
v 3.80636 -4.63806 10.00000
v 3.80636 -4.63806 10.00000
v 3.33342 -4.98882 1.50000
v 3.33342 -4.98882 1.50000
v 3.33342 -4.98882 10.00000
v 3.33342 -4.98882 10.00000
v 2.82838 -5.29153 1.50000
v 2.82838 -5.29153 1.50000
v 2.82838 -5.29153 10.00000
v 2.82838 -5.29153 10.00000
v 2.29610 -5.54328 1.50000
v 2.29610 -5.54328 1.50000
v 2.29610 -5.54328 10.00000
v 2.29610 -5.54328 10.00000
v 1.74171 -5.74164 1.50000
v 1.74171 -5.74164 1.50000
v 1.74171 -5.74164 10.00000
v 1.74171 -5.74164 10.00000
v 1.17054 -5.88471 1.50000
v 1.17054 -5.88471 1.50000
v 1.17054 -5.88471 10.00000
v 1.17054 -5.88471 10.00000
v 0.58810 -5.97111 1.50000
v 0.58810 -5.97111 1.50000
v 0.58810 -5.97111 10.00000
v 0.58810 -5.97111 10.00000
v -0.00000 -6.00000 1.50000
v -0.00000 -6.00000 1.50000
v -0.00000 -6.00000 10.00000
v -0.00000 -6.00000 10.00000
v -0.58810 -5.97111 1.50000
v -0.58810 -5.97111 1.50000
v -0.58810 -5.97111 10.00000
v -0.58810 -5.97111 10.00000
v -1.17054 -5.88471 1.50000
v -1.17054 -5.88471 1.50000
v -1.17054 -5.88471 10.00000
v -1.17054 -5.88471 10.00000
v -1.74171 -5.74164 1.50000
v -1.74171 -5.74164 1.50000
v -1.74171 -5.74164 10.00000
v -1.74171 -5.74164 10.00000
v -2.29610 -5.54328 1.50000
v -2.29610 -5.54328 1.50000
v -2.29610 -5.54328 10.00000
v -2.29610 -5.54328 10.00000
v -2.82838 -5.29153 1.50000
v -2.82838 -5.29153 1.50000
v -2.82838 -5.29153 10.00000
v -2.82838 -5.29153 10.00000
v -3.33342 -4.98882 1.50000
v -3.33342 -4.98882 1.50000
v -3.33342 -4.98882 10.00000
v -3.33342 -4.98882 10.00000
v -3.80636 -4.63806 1.50000
v -3.80636 -4.63806 1.50000
v -3.80636 -4.63806 10.00000
v -3.80636 -4.63806 10.00000
v -4.24264 -4.24264 1.50000
v -4.24264 -4.24264 1.50000
v -4.24264 -4.24264 10.00000
v -4.24264 -4.24264 10.00000
v -4.63806 -3.80636 1.50000
v -4.63806 -3.80636 1.50000
v -4.63806 -3.80636 10.00000
v -4.63806 -3.80636 10.00000
v -4.98882 -3.33342 1.50000
v -4.98882 -3.33342 1.50000
v -4.98882 -3.33342 10.00000
v -4.98882 -3.33342 10.00000
v -5.29153 -2.82838 1.50000
v -5.29153 -2.82838 1.50000
v -5.29153 -2.82838 10.00000
v -5.29153 -2.82838 10.00000
v -5.54328 -2.29610 1.50000
v -5.54328 -2.29610 1.50000
v -5.54328 -2.29610 10.00000
v -5.54328 -2.29610 10.00000
v -5.74164 -1.74171 1.50000
v -5.74164 -1.74171 1.50000
v -5.74164 -1.74171 10.00000
v -5.74164 -1.74171 10.00000
v -5.88471 -1.17054 1.50000
v -5.88471 -1.17054 1.50000
v -5.88471 -1.17054 10.00000
v -5.88471 -1.17054 10.00000
v -5.97111 -0.58810 1.50000
v -5.97111 -0.58810 1.50000
v -5.97111 -0.58810 10.00000
v -5.97111 -0.58810 10.00000
v -6.00000 0.00000 1.50000
v -6.00000 0.00000 1.50000
v -6.00000 0.00000 10.00000
v -6.00000 0.00000 10.00000
v -5.97111 0.58810 1.50000
v -5.97111 0.58810 1.50000
v -5.97111 0.58810 10.00000
v -5.97111 0.58810 10.00000
v -5.88471 1.17054 1.50000
v -5.88471 1.17054 1.50000
v -5.88471 1.17054 10.00000
v -5.88471 1.17054 10.00000
v -5.74164 1.74171 1.50000
v -5.74164 1.74171 1.50000
v -5.74164 1.74171 10.00000
v -5.74164 1.74171 10.00000
v -5.54328 2.29610 1.50000
v -5.54328 2.29610 1.50000
v -5.54328 2.29610 10.00000
v -5.54328 2.29610 10.00000
v -5.29153 2.82838 1.50000
v -5.29153 2.82838 1.50000
v -5.29153 2.82838 10.00000
v -5.29153 2.82838 10.00000
v -4.98882 3.33342 1.50000
v -4.98882 3.33342 1.50000
v -4.98882 3.33342 10.00000
v -4.98882 3.33342 10.00000
v -4.63806 3.80636 1.50000
v -4.63806 3.80636 1.50000
v -4.63806 3.80636 10.00000
v -4.63806 3.80636 10.00000
v -4.24264 4.24264 1.50000
v -4.24264 4.24264 1.50000
v -4.24264 4.24264 10.00000
v -4.24264 4.24264 10.00000
v -3.80636 4.63806 1.50000
v -3.80636 4.63806 1.50000
v -3.80636 4.63806 10.00000
v -3.80636 4.63806 10.00000
v -3.33342 4.98882 1.50000
v -3.33342 4.98882 1.50000
v -3.33342 4.98882 10.00000
v -3.33342 4.98882 10.00000
v -2.82838 5.29153 1.50000
v -2.82838 5.29153 1.50000
v -2.82838 5.29153 10.00000
v -2.82838 5.29153 10.00000
v -2.29610 5.54328 1.50000
v -2.29610 5.54328 1.50000
v -2.29610 5.54328 10.00000
v -2.29610 5.54328 10.00000
v -1.74171 5.74164 1.50000
v -1.74171 5.74164 1.50000
v -1.74171 5.74164 10.00000
v -1.74171 5.74164 10.00000
v -1.17054 5.88471 1.50000
v -1.17054 5.88471 1.50000
v -1.17054 5.88471 10.00000
v -1.17054 5.88471 10.00000
v -0.58810 5.97111 1.50000
v -0.58810 5.97111 1.50000
v -0.58810 5.97111 10.00000
v -0.58810 5.97111 10.00000
vn 0.00000 0.71782 -0.69622
vn 0.00000 0.71782 -0.69622
vn 0.00000 0.71782 -0.69622
vn 0.00000 0.71782 0.69622
vn 0.00000 0.71782 0.69622
vn 0.00000 0.71782 0.69622
vn 0.07040 0.71439 -0.69619
vn 0.07040 0.71439 -0.69619
vn 0.07040 0.71439 0.69619
vn 0.07040 0.71439 0.69619
vn 0.14001 0.70403 -0.69623
vn 0.14001 0.70403 -0.69623
vn 0.14001 0.70403 0.69623
vn 0.14001 0.70403 0.69623
vn 0.20840 0.68691 -0.69622
vn 0.20840 0.68691 -0.69622
vn 0.20840 0.68691 0.69622
vn 0.20840 0.68691 0.69622
vn 0.27470 0.66320 -0.69620
vn 0.27470 0.66320 -0.69620
vn 0.27470 0.66320 0.69620
vn 0.27470 0.66320 0.69620
vn 0.33840 0.63309 -0.69619
vn 0.33840 0.63309 -0.69619
vn 0.33840 0.63309 0.69619
vn 0.33840 0.63309 0.69619
vn 0.39882 0.59683 -0.69623
vn 0.39882 0.59683 -0.69623
vn 0.39882 0.59683 0.69623
vn 0.39882 0.59683 0.69623
vn 0.45540 0.55490 -0.69620
vn 0.45540 0.55490 -0.69620
vn 0.45540 0.55490 0.69620
vn 0.45540 0.55490 0.69620
vn 0.50760 0.50760 -0.69620
vn 0.50760 0.50760 -0.69620
vn 0.50760 0.50760 0.69620
vn 0.50760 0.50760 0.69620
vn 0.55490 0.45540 -0.69620
vn 0.55490 0.45540 -0.69620
vn 0.55490 0.45540 0.69620
vn 0.55490 0.45540 0.69620
vn 0.59683 0.39882 -0.69623
vn 0.59683 0.39882 -0.69623
vn 0.59683 0.39882 0.69623
vn 0.59683 0.39882 0.69623
vn 0.63309 0.33840 -0.69619
vn 0.63309 0.33840 -0.69619
vn 0.63309 0.33840 0.69619
vn 0.63309 0.33840 0.69619
vn 0.66320 0.27470 -0.69620
vn 0.66320 0.27470 -0.69620
vn 0.66320 0.27470 0.69620
vn 0.66320 0.27470 0.69620
vn 0.68691 0.20840 -0.69622
vn 0.68691 0.20840 -0.69622
vn 0.68691 0.20840 0.69622
vn 0.68691 0.20840 0.69622
vn 0.70403 0.14001 -0.69623
vn 0.70403 0.14001 -0.69623
vn 0.70403 0.14001 0.69623
vn 0.70403 0.14001 0.69623
vn 0.71439 0.07040 -0.69619
vn 0.71439 0.07040 -0.69619
vn 0.71439 0.07040 0.69619
vn 0.71439 0.07040 0.69619
vn 0.71782 0.00000 -0.69622
vn 0.71782 0.00000 -0.69622
vn 0.71782 0.00000 0.69622
vn 0.71782 0.00000 0.69622
vn 0.71439 -0.07040 -0.69619
vn 0.71439 -0.07040 -0.69619
vn 0.71439 -0.07040 0.69619
vn 0.71439 -0.07040 0.69619
vn 0.70403 -0.14001 -0.69623
vn 0.70403 -0.14001 -0.69623
vn 0.70403 -0.14001 0.69623
vn 0.70403 -0.14001 0.69623
vn 0.68691 -0.20840 -0.69622
vn 0.68691 -0.20840 -0.69622
vn 0.68691 -0.20840 0.69622
vn 0.68691 -0.20840 0.69622
vn 0.66320 -0.27470 -0.69620
vn 0.66320 -0.27470 -0.69620
vn 0.66320 -0.27470 0.69620
vn 0.66320 -0.27470 0.69620
vn 0.63309 -0.33840 -0.69619
vn 0.63309 -0.33840 -0.69619
vn 0.63309 -0.33840 0.69619
vn 0.63309 -0.33840 0.69619
vn 0.59683 -0.39882 -0.69623
vn 0.59683 -0.39882 -0.69623
vn 0.59683 -0.39882 0.69623
vn 0.59683 -0.39882 0.69623
vn 0.55490 -0.45540 -0.69620
vn 0.55490 -0.45540 -0.69620
vn 0.55490 -0.45540 0.69620
vn 0.55490 -0.45540 0.69620
vn 0.50760 -0.50760 -0.69620
vn 0.50760 -0.50760 -0.69620
vn 0.50760 -0.50760 0.69620
vn 0.50760 -0.50760 0.69620
vn 0.45540 -0.55490 -0.69620
vn 0.45540 -0.55490 -0.69620
vn 0.45540 -0.55490 0.69620
vn 0.45540 -0.55490 0.69620
vn 0.39882 -0.59683 -0.69623
vn 0.39882 -0.59683 -0.69623
vn 0.39882 -0.59683 0.69623
vn 0.39882 -0.59683 0.69623
vn 0.33840 -0.63309 -0.69619
vn 0.33840 -0.63309 -0.69619
vn 0.33840 -0.63309 0.69619
vn 0.33840 -0.63309 0.69619
vn 0.27470 -0.66320 -0.69620
vn 0.27470 -0.66320 -0.69620
vn 0.27470 -0.66320 0.69620
vn 0.27470 -0.66320 0.69620
vn 0.20840 -0.68691 -0.69622
vn 0.20840 -0.68691 -0.69622
vn 0.20840 -0.68691 0.69622
vn 0.20840 -0.68691 0.69622
vn 0.14001 -0.70403 -0.69623
vn 0.14001 -0.70403 -0.69623
vn 0.14001 -0.70403 0.69623
vn 0.14001 -0.70403 0.69623
vn 0.07040 -0.71439 -0.69619
vn 0.07040 -0.71439 -0.69619
vn 0.07040 -0.71439 0.69619
vn 0.07040 -0.71439 0.69619
vn 0.00000 -0.71782 -0.69622
vn 0.00000 -0.71782 -0.69622
vn 0.00000 -0.71782 0.69622
vn 0.00000 -0.71782 0.69622
vn -0.07040 -0.71439 -0.69619
vn -0.07040 -0.71439 -0.69619
vn -0.07040 -0.71439 0.69619
vn -0.07040 -0.71439 0.69619
vn -0.14001 -0.70403 -0.69623
vn -0.14001 -0.70403 -0.69623
vn -0.14001 -0.70403 0.69623
vn -0.14001 -0.70403 0.69623
vn -0.20840 -0.68691 -0.69622
vn -0.20840 -0.68691 -0.69622
vn -0.20840 -0.68691 0.69622
vn -0.20840 -0.68691 0.69622
vn -0.27470 -0.66320 -0.69620
vn -0.27470 -0.66320 -0.69620
vn -0.27470 -0.66320 0.69620
vn -0.27470 -0.66320 0.69620
vn -0.33840 -0.63309 -0.69619
vn -0.33840 -0.63309 -0.69619
vn -0.33840 -0.63309 0.69619
vn -0.33840 -0.63309 0.69619
vn -0.39882 -0.59683 -0.69623
vn -0.39882 -0.59683 -0.69623
vn -0.39882 -0.59683 0.69623
vn -0.39882 -0.59683 0.69623
vn -0.45540 -0.55490 -0.69620
vn -0.45540 -0.55490 -0.69620
vn -0.45540 -0.55490 0.69620
vn -0.45540 -0.55490 0.69620
vn -0.50760 -0.50760 -0.69620
vn -0.50760 -0.50760 -0.69620
vn -0.50760 -0.50760 0.69620
vn -0.50760 -0.50760 0.69620
vn -0.55490 -0.45540 -0.69620
vn -0.55490 -0.45540 -0.69620
vn -0.55490 -0.45540 0.69620
vn -0.55490 -0.45540 0.69620
vn -0.59683 -0.39882 -0.69623
vn -0.59683 -0.39882 -0.69623
vn -0.59683 -0.39882 0.69623
vn -0.59683 -0.39882 0.69623
vn -0.63309 -0.33840 -0.69619
vn -0.63309 -0.33840 -0.69619
vn -0.63309 -0.33840 0.69619
vn -0.63309 -0.33840 0.69619
vn -0.66320 -0.27470 -0.69620
vn -0.66320 -0.27470 -0.69620
vn -0.66320 -0.27470 0.69620
vn -0.66320 -0.27470 0.69620
vn -0.68691 -0.20840 -0.69622
vn -0.68691 -0.20840 -0.69622
vn -0.68691 -0.20840 0.69622
vn -0.68691 -0.20840 0.69622
vn -0.70403 -0.14001 -0.69623
vn -0.70403 -0.14001 -0.69623
vn -0.70403 -0.14001 0.69623
vn -0.70403 -0.14001 0.69623
vn -0.71439 -0.07040 -0.69619
vn -0.71439 -0.07040 -0.69619
vn -0.71439 -0.07040 0.69619
vn -0.71439 -0.07040 0.69619
vn -0.71782 0.00000 -0.69622
vn -0.71782 0.00000 -0.69622
vn -0.71782 0.00000 0.69622
vn -0.71782 0.00000 0.69622
vn -0.71439 0.07040 -0.69619
vn -0.71439 0.07040 -0.69619
vn -0.71439 0.07040 0.69619
vn -0.71439 0.07040 0.69619
vn -0.70403 0.14001 -0.69623
vn -0.70403 0.14001 -0.69623
vn -0.70403 0.14001 0.69623
vn -0.70403 0.14001 0.69623
vn -0.68691 0.20840 -0.69622
vn -0.68691 0.20840 -0.69622
vn -0.68691 0.20840 0.69622
vn -0.68691 0.20840 0.69622
vn -0.66320 0.27470 -0.69620
vn -0.66320 0.27470 -0.69620
vn -0.66320 0.27470 0.69620
vn -0.66320 0.27470 0.69620
vn -0.63309 0.33840 -0.69619
vn -0.63309 0.33840 -0.69619
vn -0.63309 0.33840 0.69619
vn -0.63309 0.33840 0.69619
vn -0.59683 0.39882 -0.69623
vn -0.59683 0.39882 -0.69623
vn -0.59683 0.39882 0.69623
vn -0.59683 0.39882 0.69623
vn -0.55490 0.45540 -0.69620
vn -0.55490 0.45540 -0.69620
vn -0.55490 0.45540 0.69620
vn -0.55490 0.45540 0.69620
vn -0.50760 0.50760 -0.69620
vn -0.50760 0.50760 -0.69620
vn -0.50760 0.50760 0.69620
vn -0.50760 0.50760 0.69620
vn -0.45540 0.55490 -0.69620
vn -0.45540 0.55490 -0.69620
vn -0.45540 0.55490 0.69620
vn -0.45540 0.55490 0.69620
vn -0.39882 0.59683 -0.69623
vn -0.39882 0.59683 -0.69623
vn -0.39882 0.59683 0.69623
vn -0.39882 0.59683 0.69623
vn -0.33840 0.63309 -0.69619
vn -0.33840 0.63309 -0.69619
vn -0.33840 0.63309 0.69619
vn -0.33840 0.63309 0.69619
vn -0.27470 0.66320 -0.69620
vn -0.27470 0.66320 -0.69620
vn -0.27470 0.66320 0.69620
vn -0.27470 0.66320 0.69620
vn -0.20840 0.68691 -0.69622
vn -0.20840 0.68691 -0.69622
vn -0.20840 0.68691 0.69622
vn -0.20840 0.68691 0.69622
vn -0.14001 0.70403 -0.69623
vn -0.14001 0.70403 -0.69623
vn -0.14001 0.70403 0.69623
vn -0.14001 0.70403 0.69623
vn -0.07040 0.71439 -0.69619
vn -0.07040 0.71439 -0.69619
vn -0.07040 0.71439 0.69619
vn -0.07040 0.71439 0.69619
vn 0.00000 0.71782 -0.69622
vn 0.00000 0.71782 -0.69622
vn 0.00000 0.71782 -0.69622
vn 0.00000 0.71782 0.69622
vn 0.00000 0.71782 0.69622
vn 0.00000 0.71782 0.69622
vn 0.07040 0.71439 -0.69619
vn 0.07040 0.71439 -0.69619
vn 0.07040 0.71439 0.69619
vn 0.07040 0.71439 0.69619
vn 0.14001 0.70403 -0.69623
vn 0.14001 0.70403 -0.69623
vn 0.14001 0.70403 0.69623
vn 0.14001 0.70403 0.69623
vn 0.20840 0.68691 -0.69622
vn 0.20840 0.68691 -0.69622
vn 0.20840 0.68691 0.69622
vn 0.20840 0.68691 0.69622
vn 0.27470 0.66320 -0.69620
vn 0.27470 0.66320 -0.69620
vn 0.27470 0.66320 0.69620
vn 0.27470 0.66320 0.69620
vn 0.33840 0.63309 -0.69619
vn 0.33840 0.63309 -0.69619
vn 0.33840 0.63309 0.69619
vn 0.33840 0.63309 0.69619
vn 0.39882 0.59683 -0.69623
vn 0.39882 0.59683 -0.69623
vn 0.39882 0.59683 0.69623
vn 0.39882 0.59683 0.69623
vn 0.45540 0.55490 -0.69620
vn 0.45540 0.55490 -0.69620
vn 0.45540 0.55490 0.69620
vn 0.45540 0.55490 0.69620
vn 0.50760 0.50760 -0.69620
vn 0.50760 0.50760 -0.69620
vn 0.50760 0.50760 0.69620
vn 0.50760 0.50760 0.69620
vn 0.55490 0.45540 -0.69620
vn 0.55490 0.45540 -0.69620
vn 0.55490 0.45540 0.69620
vn 0.55490 0.45540 0.69620
vn 0.59683 0.39882 -0.69623
vn 0.59683 0.39882 -0.69623
vn 0.59683 0.39882 0.69623
vn 0.59683 0.39882 0.69623
vn 0.63309 0.33840 -0.69619
vn 0.63309 0.33840 -0.69619
vn 0.63309 0.33840 0.69619
vn 0.63309 0.33840 0.69619
vn 0.66320 0.27470 -0.69620
vn 0.66320 0.27470 -0.69620
vn 0.66320 0.27470 0.69620
vn 0.66320 0.27470 0.69620
vn 0.68691 0.20840 -0.69622
vn 0.68691 0.20840 -0.69622
vn 0.68691 0.20840 0.69622
vn 0.68691 0.20840 0.69622
vn 0.70403 0.14001 -0.69623
vn 0.70403 0.14001 -0.69623
vn 0.70403 0.14001 0.69623
vn 0.70403 0.14001 0.69623
vn 0.71439 0.07040 -0.69619
vn 0.71439 0.07040 -0.69619
vn 0.71439 0.07040 0.69619
vn 0.71439 0.07040 0.69619
vn 0.71782 0.00000 -0.69622
vn 0.71782 0.00000 -0.69622
vn 0.71782 0.00000 0.69622
vn 0.71782 0.00000 0.69622
vn 0.71439 -0.07040 -0.69619
vn 0.71439 -0.07040 -0.69619
vn 0.71439 -0.07040 0.69619
vn 0.71439 -0.07040 0.69619
vn 0.70403 -0.14001 -0.69623
vn 0.70403 -0.14001 -0.69623
vn 0.70403 -0.14001 0.69623
vn 0.70403 -0.14001 0.69623
vn 0.68691 -0.20840 -0.69622
vn 0.68691 -0.20840 -0.69622
vn 0.68691 -0.20840 0.69622
vn 0.68691 -0.20840 0.69622
vn 0.66320 -0.27470 -0.69620
vn 0.66320 -0.27470 -0.69620
vn 0.66320 -0.27470 0.69620
vn 0.66320 -0.27470 0.69620
vn 0.63309 -0.33840 -0.69619
vn 0.63309 -0.33840 -0.69619
vn 0.63309 -0.33840 0.69619
vn 0.63309 -0.33840 0.69619
vn 0.59683 -0.39882 -0.69623
vn 0.59683 -0.39882 -0.69623
vn 0.59683 -0.39882 0.69623
vn 0.59683 -0.39882 0.69623
vn 0.55490 -0.45540 -0.69620
vn 0.55490 -0.45540 -0.69620
vn 0.55490 -0.45540 0.69620
vn 0.55490 -0.45540 0.69620
vn 0.50760 -0.50760 -0.69620
vn 0.50760 -0.50760 -0.69620
vn 0.50760 -0.50760 0.69620
vn 0.50760 -0.50760 0.69620
vn 0.45540 -0.55490 -0.69620
vn 0.45540 -0.55490 -0.69620
vn 0.45540 -0.55490 0.69620
vn 0.45540 -0.55490 0.69620
vn 0.39882 -0.59683 -0.69623
vn 0.39882 -0.59683 -0.69623
vn 0.39882 -0.59683 0.69623
vn 0.39882 -0.59683 0.69623
vn 0.33840 -0.63309 -0.69619
vn 0.33840 -0.63309 -0.69619
vn 0.33840 -0.63309 0.69619
vn 0.33840 -0.63309 0.69619
vn 0.27470 -0.66320 -0.69620
vn 0.27470 -0.66320 -0.69620
vn 0.27470 -0.66320 0.69620
vn 0.27470 -0.66320 0.69620
vn 0.20840 -0.68691 -0.69622
vn 0.20840 -0.68691 -0.69622
vn 0.20840 -0.68691 0.69622
vn 0.20840 -0.68691 0.69622
vn 0.14001 -0.70403 -0.69623
vn 0.14001 -0.70403 -0.69623
vn 0.14001 -0.70403 0.69623
vn 0.14001 -0.70403 0.69623
vn 0.07040 -0.71439 -0.69619
vn 0.07040 -0.71439 -0.69619
vn 0.07040 -0.71439 0.69619
vn 0.07040 -0.71439 0.69619
vn 0.00000 -0.71782 -0.69622
vn 0.00000 -0.71782 -0.69622
vn 0.00000 -0.71782 0.69622
vn 0.00000 -0.71782 0.69622
vn -0.07040 -0.71439 -0.69619
vn -0.07040 -0.71439 -0.69619
vn -0.07040 -0.71439 0.69619
vn -0.07040 -0.71439 0.69619
vn -0.14001 -0.70403 -0.69623
vn -0.14001 -0.70403 -0.69623
vn -0.14001 -0.70403 0.69623
vn -0.14001 -0.70403 0.69623
vn -0.20840 -0.68691 -0.69622
vn -0.20840 -0.68691 -0.69622
vn -0.20840 -0.68691 0.69622
vn -0.20840 -0.68691 0.69622
vn -0.27470 -0.66320 -0.69620
vn -0.27470 -0.66320 -0.69620
vn -0.27470 -0.66320 0.69620
vn -0.27470 -0.66320 0.69620
vn -0.33840 -0.63309 -0.69619
vn -0.33840 -0.63309 -0.69619
vn -0.33840 -0.63309 0.69619
vn -0.33840 -0.63309 0.69619
vn -0.39882 -0.59683 -0.69623
vn -0.39882 -0.59683 -0.69623
vn -0.39882 -0.59683 0.69623
vn -0.39882 -0.59683 0.69623
vn -0.45540 -0.55490 -0.69620
vn -0.45540 -0.55490 -0.69620
vn -0.45540 -0.55490 0.69620
vn -0.45540 -0.55490 0.69620
vn -0.50760 -0.50760 -0.69620
vn -0.50760 -0.50760 -0.69620
vn -0.50760 -0.50760 0.69620
vn -0.50760 -0.50760 0.69620
vn -0.55490 -0.45540 -0.69620
vn -0.55490 -0.45540 -0.69620
vn -0.55490 -0.45540 0.69620
vn -0.55490 -0.45540 0.69620
vn -0.59683 -0.39882 -0.69623
vn -0.59683 -0.39882 -0.69623
vn -0.59683 -0.39882 0.69623
vn -0.59683 -0.39882 0.69623
vn -0.63309 -0.33840 -0.69619
vn -0.63309 -0.33840 -0.69619
vn -0.63309 -0.33840 0.69619
vn -0.63309 -0.33840 0.69619
vn -0.66320 -0.27470 -0.69620
vn -0.66320 -0.27470 -0.69620
vn -0.66320 -0.27470 0.69620
vn -0.66320 -0.27470 0.69620
vn -0.68691 -0.20840 -0.69622
vn -0.68691 -0.20840 -0.69622
vn -0.68691 -0.20840 0.69622
vn -0.68691 -0.20840 0.69622
vn -0.70403 -0.14001 -0.69623
vn -0.70403 -0.14001 -0.69623
vn -0.70403 -0.14001 0.69623
vn -0.70403 -0.14001 0.69623
vn -0.71439 -0.07040 -0.69619
vn -0.71439 -0.07040 -0.69619
vn -0.71439 -0.07040 0.69619
vn -0.71439 -0.07040 0.69619
vn -0.71782 0.00000 -0.69622
vn -0.71782 0.00000 -0.69622
vn -0.71782 0.00000 0.69622
vn -0.71782 0.00000 0.69622
vn -0.71439 0.07040 -0.69619
vn -0.71439 0.07040 -0.69619
vn -0.71439 0.07040 0.69619
vn -0.71439 0.07040 0.69619
vn -0.70403 0.14001 -0.69623
vn -0.70403 0.14001 -0.69623
vn -0.70403 0.14001 0.69623
vn -0.70403 0.14001 0.69623
vn -0.68691 0.20840 -0.69622
vn -0.68691 0.20840 -0.69622
vn -0.68691 0.20840 0.69622
vn -0.68691 0.20840 0.69622
vn -0.66320 0.27470 -0.69620
vn -0.66320 0.27470 -0.69620
vn -0.66320 0.27470 0.69620
vn -0.66320 0.27470 0.69620
vn -0.63309 0.33840 -0.69619
vn -0.63309 0.33840 -0.69619
vn -0.63309 0.33840 0.69619
vn -0.63309 0.33840 0.69619
vn -0.59683 0.39882 -0.69623
vn -0.59683 0.39882 -0.69623
vn -0.59683 0.39882 0.69623
vn -0.59683 0.39882 0.69623
vn -0.55490 0.45540 -0.69620
vn -0.55490 0.45540 -0.69620
vn -0.55490 0.45540 0.69620
vn -0.55490 0.45540 0.69620
vn -0.50760 0.50760 -0.69620
vn -0.50760 0.50760 -0.69620
vn -0.50760 0.50760 0.69620
vn -0.50760 0.50760 0.69620
vn -0.45540 0.55490 -0.69620
vn -0.45540 0.55490 -0.69620
vn -0.45540 0.55490 0.69620
vn -0.45540 0.55490 0.69620
vn -0.39882 0.59683 -0.69623
vn -0.39882 0.59683 -0.69623
vn -0.39882 0.59683 0.69623
vn -0.39882 0.59683 0.69623
vn -0.33840 0.63309 -0.69619
vn -0.33840 0.63309 -0.69619
vn -0.33840 0.63309 0.69619
vn -0.33840 0.63309 0.69619
vn -0.27470 0.66320 -0.69620
vn -0.27470 0.66320 -0.69620
vn -0.27470 0.66320 0.69620
vn -0.27470 0.66320 0.69620
vn -0.20840 0.68691 -0.69622
vn -0.20840 0.68691 -0.69622
vn -0.20840 0.68691 0.69622
vn -0.20840 0.68691 0.69622
vn -0.14001 0.70403 -0.69623
vn -0.14001 0.70403 -0.69623
vn -0.14001 0.70403 0.69623
vn -0.14001 0.70403 0.69623
vn -0.07040 0.71439 -0.69619
vn -0.07040 0.71439 -0.69619
vn -0.07040 0.71439 0.69619
vn -0.07040 0.71439 0.69619
vn 0.00000 0.71782 -0.69622
vn 0.00000 0.71782 -0.69622
vn 0.00000 0.71782 -0.69622
vn 0.00000 0.71782 0.69622
vn 0.00000 0.71782 0.69622
vn 0.00000 0.71782 0.69622
vn 0.07040 0.71439 -0.69619
vn 0.07040 0.71439 -0.69619
vn 0.07040 0.71439 0.69619
vn 0.07040 0.71439 0.69619
vn 0.14001 0.70403 -0.69623
vn 0.14001 0.70403 -0.69623
vn 0.14001 0.70403 0.69623
vn 0.14001 0.70403 0.69623
vn 0.20840 0.68691 -0.69622
vn 0.20840 0.68691 -0.69622
vn 0.20840 0.68691 0.69622
vn 0.20840 0.68691 0.69622
vn 0.27470 0.66320 -0.69620
vn 0.27470 0.66320 -0.69620
vn 0.27470 0.66320 0.69620
vn 0.27470 0.66320 0.69620
vn 0.33840 0.63309 -0.69619
vn 0.33840 0.63309 -0.69619
vn 0.33840 0.63309 0.69619
vn 0.33840 0.63309 0.69619
vn 0.39882 0.59683 -0.69623
vn 0.39882 0.59683 -0.69623
vn 0.39882 0.59683 0.69623
vn 0.39882 0.59683 0.69623
vn 0.45540 0.55490 -0.69620
vn 0.45540 0.55490 -0.69620
vn 0.45540 0.55490 0.69620
vn 0.45540 0.55490 0.69620
vn 0.50760 0.50760 -0.69620
vn 0.50760 0.50760 -0.69620
vn 0.50760 0.50760 0.69620
vn 0.50760 0.50760 0.69620
vn 0.55490 0.45540 -0.69620
vn 0.55490 0.45540 -0.69620
vn 0.55490 0.45540 0.69620
vn 0.55490 0.45540 0.69620
vn 0.59683 0.39882 -0.69623
vn 0.59683 0.39882 -0.69623
vn 0.59683 0.39882 0.69623
vn 0.59683 0.39882 0.69623
vn 0.63309 0.33840 -0.69619
vn 0.63309 0.33840 -0.69619
vn 0.63309 0.33840 0.69619
vn 0.63309 0.33840 0.69619
vn 0.66320 0.27470 -0.69620
vn 0.66320 0.27470 -0.69620
vn 0.66320 0.27470 0.69620
vn 0.66320 0.27470 0.69620
vn 0.68691 0.20840 -0.69622
vn 0.68691 0.20840 -0.69622
vn 0.68691 0.20840 0.69622
vn 0.68691 0.20840 0.69622
vn 0.70403 0.14001 -0.69623
vn 0.70403 0.14001 -0.69623
vn 0.70403 0.14001 0.69623
vn 0.70403 0.14001 0.69623
vn 0.71439 0.07040 -0.69619
vn 0.71439 0.07040 -0.69619
vn 0.71439 0.07040 0.69619
vn 0.71439 0.07040 0.69619
vn 0.71782 0.00000 -0.69622
vn 0.71782 0.00000 -0.69622
vn 0.71782 0.00000 0.69622
vn 0.71782 0.00000 0.69622
vn 0.71439 -0.07040 -0.69619
vn 0.71439 -0.07040 -0.69619
vn 0.71439 -0.07040 0.69619
vn 0.71439 -0.07040 0.69619
vn 0.70403 -0.14001 -0.69623
vn 0.70403 -0.14001 -0.69623
vn 0.70403 -0.14001 0.69623
vn 0.70403 -0.14001 0.69623
vn 0.68691 -0.20840 -0.69622
vn 0.68691 -0.20840 -0.69622
vn 0.68691 -0.20840 0.69622
vn 0.68691 -0.20840 0.69622
vn 0.66320 -0.27470 -0.69620
vn 0.66320 -0.27470 -0.69620
vn 0.66320 -0.27470 0.69620
vn 0.66320 -0.27470 0.69620
vn 0.63309 -0.33840 -0.69619
vn 0.63309 -0.33840 -0.69619
vn 0.63309 -0.33840 0.69619
vn 0.63309 -0.33840 0.69619
vn 0.59683 -0.39882 -0.69623
vn 0.59683 -0.39882 -0.69623
vn 0.59683 -0.39882 0.69623
vn 0.59683 -0.39882 0.69623
vn 0.55490 -0.45540 -0.69620
vn 0.55490 -0.45540 -0.69620
vn 0.55490 -0.45540 0.69620
vn 0.55490 -0.45540 0.69620
vn 0.50760 -0.50760 -0.69620
vn 0.50760 -0.50760 -0.69620
vn 0.50760 -0.50760 0.69620
vn 0.50760 -0.50760 0.69620
vn 0.45540 -0.55490 -0.69620
vn 0.45540 -0.55490 -0.69620
vn 0.45540 -0.55490 0.69620
vn 0.45540 -0.55490 0.69620
vn 0.39882 -0.59683 -0.69623
vn 0.39882 -0.59683 -0.69623
vn 0.39882 -0.59683 0.69623
vn 0.39882 -0.59683 0.69623
vn 0.33840 -0.63309 -0.69619
vn 0.33840 -0.63309 -0.69619
vn 0.33840 -0.63309 0.69619
vn 0.33840 -0.63309 0.69619
vn 0.27470 -0.66320 -0.69620
vn 0.27470 -0.66320 -0.69620
vn 0.27470 -0.66320 0.69620
vn 0.27470 -0.66320 0.69620
vn 0.20840 -0.68691 -0.69622
vn 0.20840 -0.68691 -0.69622
vn 0.20840 -0.68691 0.69622
vn 0.20840 -0.68691 0.69622
vn 0.14001 -0.70403 -0.69623
vn 0.14001 -0.70403 -0.69623
vn 0.14001 -0.70403 0.69623
vn 0.14001 -0.70403 0.69623
vn 0.07040 -0.71439 -0.69619
vn 0.07040 -0.71439 -0.69619
vn 0.07040 -0.71439 0.69619
vn 0.07040 -0.71439 0.69619
vn 0.00000 -0.71782 -0.69622
vn 0.00000 -0.71782 -0.69622
vn 0.00000 -0.71782 0.69622
vn 0.00000 -0.71782 0.69622
vn -0.07040 -0.71439 -0.69619
vn -0.07040 -0.71439 -0.69619
vn -0.07040 -0.71439 0.69619
vn -0.07040 -0.71439 0.69619
vn -0.14001 -0.70403 -0.69623
vn -0.14001 -0.70403 -0.69623
vn -0.14001 -0.70403 0.69623
vn -0.14001 -0.70403 0.69623
vn -0.20840 -0.68691 -0.69622
vn -0.20840 -0.68691 -0.69622
vn -0.20840 -0.68691 0.69622
vn -0.20840 -0.68691 0.69622
vn -0.27470 -0.66320 -0.69620
vn -0.27470 -0.66320 -0.69620
vn -0.27470 -0.66320 0.69620
vn -0.27470 -0.66320 0.69620
vn -0.33840 -0.63309 -0.69619
vn -0.33840 -0.63309 -0.69619
vn -0.33840 -0.63309 0.69619
vn -0.33840 -0.63309 0.69619
vn -0.39882 -0.59683 -0.69623
vn -0.39882 -0.59683 -0.69623
vn -0.39882 -0.59683 0.69623
vn -0.39882 -0.59683 0.69623
vn -0.45540 -0.55490 -0.69620
vn -0.45540 -0.55490 -0.69620
vn -0.45540 -0.55490 0.69620
vn -0.45540 -0.55490 0.69620
vn -0.50760 -0.50760 -0.69620
vn -0.50760 -0.50760 -0.69620
vn -0.50760 -0.50760 0.69620
vn -0.50760 -0.50760 0.69620
vn -0.55490 -0.45540 -0.69620
vn -0.55490 -0.45540 -0.69620
vn -0.55490 -0.45540 0.69620
vn -0.55490 -0.45540 0.69620
vn -0.59683 -0.39882 -0.69623
vn -0.59683 -0.39882 -0.69623
vn -0.59683 -0.39882 0.69623
vn -0.59683 -0.39882 0.69623
vn -0.63309 -0.33840 -0.69619
vn -0.63309 -0.33840 -0.69619
vn -0.63309 -0.33840 0.69619
vn -0.63309 -0.33840 0.69619
vn -0.66320 -0.27470 -0.69620
vn -0.66320 -0.27470 -0.69620
vn -0.66320 -0.27470 0.69620
vn -0.66320 -0.27470 0.69620
vn -0.68691 -0.20840 -0.69622
vn -0.68691 -0.20840 -0.69622
vn -0.68691 -0.20840 0.69622
vn -0.68691 -0.20840 0.69622
vn -0.70403 -0.14001 -0.69623
vn -0.70403 -0.14001 -0.69623
vn -0.70403 -0.14001 0.69623
vn -0.70403 -0.14001 0.69623
vn -0.71439 -0.07040 -0.69619
vn -0.71439 -0.07040 -0.69619
vn -0.71439 -0.07040 0.69619
vn -0.71439 -0.07040 0.69619
vn -0.71782 0.00000 -0.69622
vn -0.71782 0.00000 -0.69622
vn -0.71782 0.00000 0.69622
vn -0.71782 0.00000 0.69622
vn -0.71439 0.07040 -0.69619
vn -0.71439 0.07040 -0.69619
vn -0.71439 0.07040 0.69619
vn -0.71439 0.07040 0.69619
vn -0.70403 0.14001 -0.69623
vn -0.70403 0.14001 -0.69623
vn -0.70403 0.14001 0.69623
vn -0.70403 0.14001 0.69623
vn -0.68691 0.20840 -0.69622
vn -0.68691 0.20840 -0.69622
vn -0.68691 0.20840 0.69622
vn -0.68691 0.20840 0.69622
vn -0.66320 0.27470 -0.69620
vn -0.66320 0.27470 -0.69620
vn -0.66320 0.27470 0.69620
vn -0.66320 0.27470 0.69620
vn -0.63309 0.33840 -0.69619
vn -0.63309 0.33840 -0.69619
vn -0.63309 0.33840 0.69619
vn -0.63309 0.33840 0.69619
vn -0.59683 0.39882 -0.69623
vn -0.59683 0.39882 -0.69623
vn -0.59683 0.39882 0.69623
vn -0.59683 0.39882 0.69623
vn -0.55490 0.45540 -0.69620
vn -0.55490 0.45540 -0.69620
vn -0.55490 0.45540 0.69620
vn -0.55490 0.45540 0.69620
vn -0.50760 0.50760 -0.69620
vn -0.50760 0.50760 -0.69620
vn -0.50760 0.50760 0.69620
vn -0.50760 0.50760 0.69620
vn -0.45540 0.55490 -0.69620
vn -0.45540 0.55490 -0.69620
vn -0.45540 0.55490 0.69620
vn -0.45540 0.55490 0.69620
vn -0.39882 0.59683 -0.69623
vn -0.39882 0.59683 -0.69623
vn -0.39882 0.59683 0.69623
vn -0.39882 0.59683 0.69623
vn -0.33840 0.63309 -0.69619
vn -0.33840 0.63309 -0.69619
vn -0.33840 0.63309 0.69619
vn -0.33840 0.63309 0.69619
vn -0.27470 0.66320 -0.69620
vn -0.27470 0.66320 -0.69620
vn -0.27470 0.66320 0.69620
vn -0.27470 0.66320 0.69620
vn -0.20840 0.68691 -0.69622
vn -0.20840 0.68691 -0.69622
vn -0.20840 0.68691 0.69622
vn -0.20840 0.68691 0.69622
vn -0.14001 0.70403 -0.69623
vn -0.14001 0.70403 -0.69623
vn -0.14001 0.70403 0.69623
vn -0.14001 0.70403 0.69623
vn -0.07040 0.71439 -0.69619
vn -0.07040 0.71439 -0.69619
vn -0.07040 0.71439 0.69619
vn -0.07040 0.71439 0.69619
vn 0.00000 0.71782 -0.69622
vn 0.00000 0.71782 -0.69622
vn 0.00000 0.71782 -0.69622
vn 0.00000 0.71782 0.69622
vn 0.00000 0.71782 0.69622
vn 0.00000 0.71782 0.69622
vn 0.07040 0.71439 -0.69619
vn 0.07040 0.71439 -0.69619
vn 0.07040 0.71439 0.69619
vn 0.07040 0.71439 0.69619
vn 0.14001 0.70403 -0.69623
vn 0.14001 0.70403 -0.69623
vn 0.14001 0.70403 0.69623
vn 0.14001 0.70403 0.69623
vn 0.20840 0.68691 -0.69622
vn 0.20840 0.68691 -0.69622
vn 0.20840 0.68691 0.69622
vn 0.20840 0.68691 0.69622
vn 0.27470 0.66320 -0.69620
vn 0.27470 0.66320 -0.69620
vn 0.27470 0.66320 0.69620
vn 0.27470 0.66320 0.69620
vn 0.33840 0.63309 -0.69619
vn 0.33840 0.63309 -0.69619
vn 0.33840 0.63309 0.69619
vn 0.33840 0.63309 0.69619
vn 0.39882 0.59683 -0.69623
vn 0.39882 0.59683 -0.69623
vn 0.39882 0.59683 0.69623
vn 0.39882 0.59683 0.69623
vn 0.45540 0.55490 -0.69620
vn 0.45540 0.55490 -0.69620
vn 0.45540 0.55490 0.69620
vn 0.45540 0.55490 0.69620
vn 0.50760 0.50760 -0.69620
vn 0.50760 0.50760 -0.69620
vn 0.50760 0.50760 0.69620
vn 0.50760 0.50760 0.69620
vn 0.55490 0.45540 -0.69620
vn 0.55490 0.45540 -0.69620
vn 0.55490 0.45540 0.69620
vn 0.55490 0.45540 0.69620
vn 0.59683 0.39882 -0.69623
vn 0.59683 0.39882 -0.69623
vn 0.59683 0.39882 0.69623
vn 0.59683 0.39882 0.69623
vn 0.63309 0.33840 -0.69619
vn 0.63309 0.33840 -0.69619
vn 0.63309 0.33840 0.69619
vn 0.63309 0.33840 0.69619
vn 0.66320 0.27470 -0.69620
vn 0.66320 0.27470 -0.69620
vn 0.66320 0.27470 0.69620
vn 0.66320 0.27470 0.69620
vn 0.68691 0.20840 -0.69622
vn 0.68691 0.20840 -0.69622
vn 0.68691 0.20840 0.69622
vn 0.68691 0.20840 0.69622
vn 0.70403 0.14001 -0.69623
vn 0.70403 0.14001 -0.69623
vn 0.70403 0.14001 0.69623
vn 0.70403 0.14001 0.69623
vn 0.71439 0.07040 -0.69619
vn 0.71439 0.07040 -0.69619
vn 0.71439 0.07040 0.69619
vn 0.71439 0.07040 0.69619
vn 0.71782 0.00000 -0.69622
vn 0.71782 0.00000 -0.69622
vn 0.71782 0.00000 0.69622
vn 0.71782 0.00000 0.69622
vn 0.71439 -0.07040 -0.69619
vn 0.71439 -0.07040 -0.69619
vn 0.71439 -0.07040 0.69619
vn 0.71439 -0.07040 0.69619
vn 0.70403 -0.14001 -0.69623
vn 0.70403 -0.14001 -0.69623
vn 0.70403 -0.14001 0.69623
vn 0.70403 -0.14001 0.69623
vn 0.68691 -0.20840 -0.69622
vn 0.68691 -0.20840 -0.69622
vn 0.68691 -0.20840 0.69622
vn 0.68691 -0.20840 0.69622
vn 0.66320 -0.27470 -0.69620
vn 0.66320 -0.27470 -0.69620
vn 0.66320 -0.27470 0.69620
vn 0.66320 -0.27470 0.69620
vn 0.63309 -0.33840 -0.69619
vn 0.63309 -0.33840 -0.69619
vn 0.63309 -0.33840 0.69619
vn 0.63309 -0.33840 0.69619
vn 0.59683 -0.39882 -0.69623
vn 0.59683 -0.39882 -0.69623
vn 0.59683 -0.39882 0.69623
vn 0.59683 -0.39882 0.69623
vn 0.55490 -0.45540 -0.69620
vn 0.55490 -0.45540 -0.69620
vn 0.55490 -0.45540 0.69620
vn 0.55490 -0.45540 0.69620
vn 0.50760 -0.50760 -0.69620
vn 0.50760 -0.50760 -0.69620
vn 0.50760 -0.50760 0.69620
vn 0.50760 -0.50760 0.69620
vn 0.45540 -0.55490 -0.69620
vn 0.45540 -0.55490 -0.69620
vn 0.45540 -0.55490 0.69620
vn 0.45540 -0.55490 0.69620
vn 0.39882 -0.59683 -0.69623
vn 0.39882 -0.59683 -0.69623
vn 0.39882 -0.59683 0.69623
vn 0.39882 -0.59683 0.69623
vn 0.33840 -0.63309 -0.69619
vn 0.33840 -0.63309 -0.69619
vn 0.33840 -0.63309 0.69619
vn 0.33840 -0.63309 0.69619
vn 0.27470 -0.66320 -0.69620
vn 0.27470 -0.66320 -0.69620
vn 0.27470 -0.66320 0.69620
vn 0.27470 -0.66320 0.69620
vn 0.20840 -0.68691 -0.69622
vn 0.20840 -0.68691 -0.69622
vn 0.20840 -0.68691 0.69622
vn 0.20840 -0.68691 0.69622
vn 0.14001 -0.70403 -0.69623
vn 0.14001 -0.70403 -0.69623
vn 0.14001 -0.70403 0.69623
vn 0.14001 -0.70403 0.69623
vn 0.07040 -0.71439 -0.69619
vn 0.07040 -0.71439 -0.69619
vn 0.07040 -0.71439 0.69619
vn 0.07040 -0.71439 0.69619
vn 0.00000 -0.71782 -0.69622
vn 0.00000 -0.71782 -0.69622
vn 0.00000 -0.71782 0.69622
vn 0.00000 -0.71782 0.69622
vn -0.07040 -0.71439 -0.69619
vn -0.07040 -0.71439 -0.69619
vn -0.07040 -0.71439 0.69619
vn -0.07040 -0.71439 0.69619
vn -0.14001 -0.70403 -0.69623
vn -0.14001 -0.70403 -0.69623
vn -0.14001 -0.70403 0.69623
vn -0.14001 -0.70403 0.69623
vn -0.20840 -0.68691 -0.69622
vn -0.20840 -0.68691 -0.69622
vn -0.20840 -0.68691 0.69622
vn -0.20840 -0.68691 0.69622
vn -0.27470 -0.66320 -0.69620
vn -0.27470 -0.66320 -0.69620
vn -0.27470 -0.66320 0.69620
vn -0.27470 -0.66320 0.69620
vn -0.33840 -0.63309 -0.69619
vn -0.33840 -0.63309 -0.69619
vn -0.33840 -0.63309 0.69619
vn -0.33840 -0.63309 0.69619
vn -0.39882 -0.59683 -0.69623
vn -0.39882 -0.59683 -0.69623
vn -0.39882 -0.59683 0.69623
vn -0.39882 -0.59683 0.69623
vn -0.45540 -0.55490 -0.69620
vn -0.45540 -0.55490 -0.69620
vn -0.45540 -0.55490 0.69620
vn -0.45540 -0.55490 0.69620
vn -0.50760 -0.50760 -0.69620
vn -0.50760 -0.50760 -0.69620
vn -0.50760 -0.50760 0.69620
vn -0.50760 -0.50760 0.69620
vn -0.55490 -0.45540 -0.69620
vn -0.55490 -0.45540 -0.69620
vn -0.55490 -0.45540 0.69620
vn -0.55490 -0.45540 0.69620
vn -0.59683 -0.39882 -0.69623
vn -0.59683 -0.39882 -0.69623
vn -0.59683 -0.39882 0.69623
vn -0.59683 -0.39882 0.69623
vn -0.63309 -0.33840 -0.69619
vn -0.63309 -0.33840 -0.69619
vn -0.63309 -0.33840 0.69619
vn -0.63309 -0.33840 0.69619
vn -0.66320 -0.27470 -0.69620
vn -0.66320 -0.27470 -0.69620
vn -0.66320 -0.27470 0.69620
vn -0.66320 -0.27470 0.69620
vn -0.68691 -0.20840 -0.69622
vn -0.68691 -0.20840 -0.69622
vn -0.68691 -0.20840 0.69622
vn -0.68691 -0.20840 0.69622
vn -0.70403 -0.14001 -0.69623
vn -0.70403 -0.14001 -0.69623
vn -0.70403 -0.14001 0.69623
vn -0.70403 -0.14001 0.69623
vn -0.71439 -0.07040 -0.69619
vn -0.71439 -0.07040 -0.69619
vn -0.71439 -0.07040 0.69619
vn -0.71439 -0.07040 0.69619
vn -0.71782 0.00000 -0.69622
vn -0.71782 0.00000 -0.69622
vn -0.71782 0.00000 0.69622
vn -0.71782 0.00000 0.69622
vn -0.71439 0.07040 -0.69619
vn -0.71439 0.07040 -0.69619
vn -0.71439 0.07040 0.69619
vn -0.71439 0.07040 0.69619
vn -0.70403 0.14001 -0.69623
vn -0.70403 0.14001 -0.69623
vn -0.70403 0.14001 0.69623
vn -0.70403 0.14001 0.69623
vn -0.68691 0.20840 -0.69622
vn -0.68691 0.20840 -0.69622
vn -0.68691 0.20840 0.69622
vn -0.68691 0.20840 0.69622
vn -0.66320 0.27470 -0.69620
vn -0.66320 0.27470 -0.69620
vn -0.66320 0.27470 0.69620
vn -0.66320 0.27470 0.69620
vn -0.63309 0.33840 -0.69619
vn -0.63309 0.33840 -0.69619
vn -0.63309 0.33840 0.69619
vn -0.63309 0.33840 0.69619
vn -0.59683 0.39882 -0.69623
vn -0.59683 0.39882 -0.69623
vn -0.59683 0.39882 0.69623
vn -0.59683 0.39882 0.69623
vn -0.55490 0.45540 -0.69620
vn -0.55490 0.45540 -0.69620
vn -0.55490 0.45540 0.69620
vn -0.55490 0.45540 0.69620
vn -0.50760 0.50760 -0.69620
vn -0.50760 0.50760 -0.69620
vn -0.50760 0.50760 0.69620
vn -0.50760 0.50760 0.69620
vn -0.45540 0.55490 -0.69620
vn -0.45540 0.55490 -0.69620
vn -0.45540 0.55490 0.69620
vn -0.45540 0.55490 0.69620
vn -0.39882 0.59683 -0.69623
vn -0.39882 0.59683 -0.69623
vn -0.39882 0.59683 0.69623
vn -0.39882 0.59683 0.69623
vn -0.33840 0.63309 -0.69619
vn -0.33840 0.63309 -0.69619
vn -0.33840 0.63309 0.69619
vn -0.33840 0.63309 0.69619
vn -0.27470 0.66320 -0.69620
vn -0.27470 0.66320 -0.69620
vn -0.27470 0.66320 0.69620
vn -0.27470 0.66320 0.69620
vn -0.20840 0.68691 -0.69622
vn -0.20840 0.68691 -0.69622
vn -0.20840 0.68691 0.69622
vn -0.20840 0.68691 0.69622
vn -0.14001 0.70403 -0.69623
vn -0.14001 0.70403 -0.69623
vn -0.14001 0.70403 0.69623
vn -0.14001 0.70403 0.69623
vn -0.07040 0.71439 -0.69619
vn -0.07040 0.71439 -0.69619
vn -0.07040 0.71439 0.69619
vn -0.07040 0.71439 0.69619
usemtl WF_Jacket
f 3//3 6//6 10//10
f 3//3 10//10 8//8
f 8//8 10//10 14//14
f 8//8 14//14 12//12
f 12//12 14//14 18//18
f 12//12 18//18 16//16
f 16//16 18//18 22//22
f 16//16 22//22 20//20
f 20//20 22//22 26//26
f 20//20 26//26 24//24
f 24//24 26//26 30//30
f 24//24 30//30 28//28
f 28//28 30//30 34//34
f 28//28 34//34 31//31
f 31//31 34//34 38//38
f 31//31 38//38 35//35
f 35//35 38//38 42//42
f 35//35 42//42 39//39
f 39//39 42//42 46//46
f 39//39 46//46 43//43
f 43//43 46//46 50//50
f 43//43 50//50 47//47
f 47//47 50//50 54//54
f 47//47 54//54 51//51
f 51//51 54//54 58//58
f 51//51 58//58 55//55
f 55//55 58//58 62//62
f 55//55 62//62 59//59
f 59//59 62//62 66//66
f 59//59 66//66 63//63
f 63//63 66//66 70//70
f 63//63 70//70 67//67
f 67//67 70//70 74//74
f 67//67 74//74 71//71
f 71//71 74//74 78//78
f 71//71 78//78 75//75
f 75//75 78//78 82//82
f 75//75 82//82 79//79
f 79//79 82//82 86//86
f 79//79 86//86 83//83
f 83//83 86//86 90//90
f 83//83 90//90 87//87
f 87//87 90//90 94//94
f 87//87 94//94 91//91
f 91//91 94//94 98//98
f 91//91 98//98 95//95
f 95//95 98//98 102//102
f 95//95 102//102 99//99
f 99//99 102//102 106//106
f 99//99 106//106 103//103
f 103//103 106//106 110//110
f 103//103 110//110 107//107
f 107//107 110//110 114//114
f 107//107 114//114 111//111
f 111//111 114//114 118//118
f 111//111 118//118 115//115
f 115//115 118//118 122//122
f 115//115 122//122 119//119
f 119//119 122//122 126//126
f 119//119 126//126 123//123
f 123//123 126//126 130//130
f 123//123 130//130 127//127
f 127//127 130//130 134//134
f 127//127 134//134 131//131
f 131//131 134//134 138//138
f 131//131 138//138 135//135
f 135//135 138//138 142//142
f 135//135 142//142 139//139
f 139//139 142//142 146//146
f 139//139 146//146 143//143
f 143//143 146//146 150//150
f 143//143 150//150 147//147
f 147//147 150//150 154//154
f 147//147 154//154 151//151
f 151//151 154//154 158//158
f 151//151 158//158 155//155
f 155//155 158//158 162//162
f 155//155 162//162 159//159
f 159//159 162//162 166//166
f 159//159 166//166 163//163
f 163//163 166//166 170//170
f 163//163 170//170 167//167
f 167//167 170//170 174//174
f 167//167 174//174 171//171
f 171//171 174//174 178//178
f 171//171 178//178 175//175
f 175//175 178//178 182//182
f 175//175 182//182 179//179
f 179//179 182//182 186//186
f 179//179 186//186 183//183
f 183//183 186//186 190//190
f 183//183 190//190 187//187
f 187//187 190//190 194//194
f 187//187 194//194 191//191
f 191//191 194//194 198//198
f 191//191 198//198 195//195
f 195//195 198//198 202//202
f 195//195 202//202 199//199
f 199//199 202//202 206//206
f 199//199 206//206 203//203
f 203//203 206//206 210//210
f 203//203 210//210 207//207
f 207//207 210//210 214//214
f 207//207 214//214 211//211
f 211//211 214//214 218//218
f 211//211 218//218 215//215
f 215//215 218//218 222//222
f 215//215 222//222 219//219
f 219//219 222//222 226//226
f 219//219 226//226 223//223
f 223//223 226//226 230//230
f 223//223 230//230 227//227
f 227//227 230//230 234//234
f 227//227 234//234 231//231
f 231//231 234//234 237//237
f 231//231 237//237 235//235
f 235//235 237//237 241//241
f 235//235 241//241 239//239
f 239//239 241//241 245//245
f 239//239 245//245 243//243
f 243//243 245//245 249//249
f 243//243 249//249 247//247
f 247//247 249//249 253//253
f 247//247 253//253 251//251
f 13//13 9//9 5//5
f 5//5 258//258 254//254
f 254//254 250//250 246//246
f 246//246 242//242 238//238
f 238//238 233//233 229//229
f 229//229 225//225 221//221
f 221//221 217//217 213//213
f 213//213 209//209 205//205
f 205//205 201//201 197//197
f 197//197 193//193 189//189
f 189//189 185//185 181//181
f 181//181 177//177 173//173
f 173//173 169//169 165//165
f 165//165 161//161 157//157
f 157//157 153//153 149//149
f 149//149 145//145 141//141
f 141//141 137//137 133//133
f 133//133 129//129 125//125
f 125//125 121//121 117//117
f 117//117 113//113 109//109
f 109//109 105//105 101//101
f 101//101 97//97 93//93
f 93//93 89//89 85//85
f 85//85 81//81 77//77
f 77//77 73//73 69//69
f 69//69 65//65 61//61
f 61//61 57//57 53//53
f 53//53 49//49 45//45
f 45//45 41//41 37//37
f 37//37 33//33 29//29
f 29//29 25//25 21//21
f 21//21 17//17 13//13
f 13//13 5//5 254//254
f 254//254 246//246 238//238
f 238//238 229//229 221//221
f 221//221 213//213 205//205
f 205//205 197//197 189//189
f 189//189 181//181 173//173
f 173//173 165//165 157//157
f 157//157 149//149 141//141
f 141//141 133//133 125//125
f 125//125 117//117 109//109
f 109//109 101//101 93//93
f 93//93 85//85 77//77
f 77//77 69//69 61//61
f 61//61 53//53 45//45
f 45//45 37//37 29//29
f 29//29 21//21 13//13
f 13//13 254//254 238//238
f 238//238 221//221 205//205
f 205//205 189//189 173//173
f 173//173 157//157 141//141
f 141//141 125//125 109//109
f 109//109 93//93 77//77
f 77//77 61//61 45//45
f 45//45 29//29 13//13
f 13//13 238//238 205//205
f 205//205 173//173 141//141
f 141//141 109//109 77//77
f 77//77 45//45 13//13
f 13//13 205//205 141//141
f 141//141 77//77 13//13
f 251//251 253//253 257//257
f 251//251 257//257 255//255
f 255//255 257//257 4//4
f 255//255 4//4 1//1
f 256//256 2//2 7//7
f 7//7 11//11 15//15
f 15//15 19//19 23//23
f 23//23 27//27 32//32
f 32//32 36//36 40//40
f 40//40 44//44 48//48
f 48//48 52//52 56//56
f 56//56 60//60 64//64
f 64//64 68//68 72//72
f 72//72 76//76 80//80
f 80//80 84//84 88//88
f 88//88 92//92 96//96
f 96//96 100//100 104//104
f 104//104 108//108 112//112
f 112//112 116//116 120//120
f 120//120 124//124 128//128
f 128//128 132//132 136//136
f 136//136 140//140 144//144
f 144//144 148//148 152//152
f 152//152 156//156 160//160
f 160//160 164//164 168//168
f 168//168 172//172 176//176
f 176//176 180//180 184//184
f 184//184 188//188 192//192
f 192//192 196//196 200//200
f 200//200 204//204 208//208
f 208//208 212//212 216//216
f 216//216 220//220 224//224
f 224//224 228//228 232//232
f 232//232 236//236 240//240
f 240//240 244//244 248//248
f 248//248 252//252 256//256
f 256//256 7//7 15//15
f 15//15 23//23 32//32
f 32//32 40//40 48//48
f 48//48 56//56 64//64
f 64//64 72//72 80//80
f 80//80 88//88 96//96
f 96//96 104//104 112//112
f 112//112 120//120 128//128
f 128//128 136//136 144//144
f 144//144 152//152 160//160
f 160//160 168//168 176//176
f 176//176 184//184 192//192
f 192//192 200//200 208//208
f 208//208 216//216 224//224
f 224//224 232//232 240//240
f 240//240 248//248 256//256
f 256//256 15//15 32//32
f 32//32 48//48 64//64
f 64//64 80//80 96//96
f 96//96 112//112 128//128
f 128//128 144//144 160//160
f 160//160 176//176 192//192
f 192//192 208//208 224//224
f 224//224 240//240 256//256
f 256//256 32//32 64//64
f 64//64 96//96 128//128
f 128//128 160//160 192//192
f 192//192 224//224 256//256
f 256//256 64//64 128//128
f 128//128 192//192 256//256
f 261//261 264//264 268//268
f 261//261 268//268 266//266
f 266//266 268//268 272//272
f 266//266 272//272 270//270
f 270//270 272//272 276//276
f 270//270 276//276 274//274
f 274//274 276//276 280//280
f 274//274 280//280 278//278
f 278//278 280//280 284//284
f 278//278 284//284 282//282
f 282//282 284//284 288//288
f 282//282 288//288 286//286
f 286//286 288//288 292//292
f 286//286 292//292 289//289
f 289//289 292//292 296//296
f 289//289 296//296 293//293
f 293//293 296//296 300//300
f 293//293 300//300 297//297
f 297//297 300//300 304//304
f 297//297 304//304 301//301
f 301//301 304//304 308//308
f 301//301 308//308 305//305
f 305//305 308//308 312//312
f 305//305 312//312 309//309
f 309//309 312//312 316//316
f 309//309 316//316 313//313
f 313//313 316//316 320//320
f 313//313 320//320 317//317
f 317//317 320//320 324//324
f 317//317 324//324 321//321
f 321//321 324//324 328//328
f 321//321 328//328 325//325
f 325//325 328//328 332//332
f 325//325 332//332 329//329
f 329//329 332//332 336//336
f 329//329 336//336 333//333
f 333//333 336//336 340//340
f 333//333 340//340 337//337
f 337//337 340//340 344//344
f 337//337 344//344 341//341
f 341//341 344//344 348//348
f 341//341 348//348 345//345
f 345//345 348//348 352//352
f 345//345 352//352 349//349
f 349//349 352//352 356//356
f 349//349 356//356 353//353
f 353//353 356//356 360//360
f 353//353 360//360 357//357
f 357//357 360//360 364//364
f 357//357 364//364 361//361
f 361//361 364//364 368//368
f 361//361 368//368 365//365
f 365//365 368//368 372//372
f 365//365 372//372 369//369
f 369//369 372//372 376//376
f 369//369 376//376 373//373
f 373//373 376//376 380//380
f 373//373 380//380 377//377
f 377//377 380//380 384//384
f 377//377 384//384 381//381
f 381//381 384//384 388//388
f 381//381 388//388 385//385
f 385//385 388//388 392//392
f 385//385 392//392 389//389
f 389//389 392//392 396//396
f 389//389 396//396 393//393
f 393//393 396//396 400//400
f 393//393 400//400 397//397
f 397//397 400//400 404//404
f 397//397 404//404 401//401
f 401//401 404//404 408//408
f 401//401 408//408 405//405
f 405//405 408//408 412//412
f 405//405 412//412 409//409
f 409//409 412//412 416//416
f 409//409 416//416 413//413
f 413//413 416//416 420//420
f 413//413 420//420 417//417
f 417//417 420//420 424//424
f 417//417 424//424 421//421
f 421//421 424//424 428//428
f 421//421 428//428 425//425
f 425//425 428//428 432//432
f 425//425 432//432 429//429
f 429//429 432//432 436//436
f 429//429 436//436 433//433
f 433//433 436//436 440//440
f 433//433 440//440 437//437
f 437//437 440//440 444//444
f 437//437 444//444 441//441
f 441//441 444//444 448//448
f 441//441 448//448 445//445
f 445//445 448//448 452//452
f 445//445 452//452 449//449
f 449//449 452//452 456//456
f 449//449 456//456 453//453
f 453//453 456//456 460//460
f 453//453 460//460 457//457
f 457//457 460//460 464//464
f 457//457 464//464 461//461
f 461//461 464//464 468//468
f 461//461 468//468 465//465
f 465//465 468//468 472//472
f 465//465 472//472 469//469
f 469//469 472//472 476//476
f 469//469 476//476 473//473
f 473//473 476//476 480//480
f 473//473 480//480 477//477
f 477//477 480//480 484//484
f 477//477 484//484 481//481
f 481//481 484//484 488//488
f 481//481 488//488 485//485
f 485//485 488//488 492//492
f 485//485 492//492 489//489
f 489//489 492//492 495//495
f 489//489 495//495 493//493
f 493//493 495//495 499//499
f 493//493 499//499 497//497
f 497//497 499//499 503//503
f 497//497 503//503 501//501
f 501//501 503//503 507//507
f 501//501 507//507 505//505
f 505//505 507//507 511//511
f 505//505 511//511 509//509
f 271//271 267//267 263//263
f 263//263 516//516 512//512
f 512//512 508//508 504//504
f 504//504 500//500 496//496
f 496//496 491//491 487//487
f 487//487 483//483 479//479
f 479//479 475//475 471//471
f 471//471 467//467 463//463
f 463//463 459//459 455//455
f 455//455 451//451 447//447
f 447//447 443//443 439//439
f 439//439 435//435 431//431
f 431//431 427//427 423//423
f 423//423 419//419 415//415
f 415//415 411//411 407//407
f 407//407 403//403 399//399
f 399//399 395//395 391//391
f 391//391 387//387 383//383
f 383//383 379//379 375//375
f 375//375 371//371 367//367
f 367//367 363//363 359//359
f 359//359 355//355 351//351
f 351//351 347//347 343//343
f 343//343 339//339 335//335
f 335//335 331//331 327//327
f 327//327 323//323 319//319
f 319//319 315//315 311//311
f 311//311 307//307 303//303
f 303//303 299//299 295//295
f 295//295 291//291 287//287
f 287//287 283//283 279//279
f 279//279 275//275 271//271
f 271//271 263//263 512//512
f 512//512 504//504 496//496
f 496//496 487//487 479//479
f 479//479 471//471 463//463
f 463//463 455//455 447//447
f 447//447 439//439 431//431
f 431//431 423//423 415//415
f 415//415 407//407 399//399
f 399//399 391//391 383//383
f 383//383 375//375 367//367
f 367//367 359//359 351//351
f 351//351 343//343 335//335
f 335//335 327//327 319//319
f 319//319 311//311 303//303
f 303//303 295//295 287//287
f 287//287 279//279 271//271
f 271//271 512//512 496//496
f 496//496 479//479 463//463
f 463//463 447//447 431//431
f 431//431 415//415 399//399
f 399//399 383//383 367//367
f 367//367 351//351 335//335
f 335//335 319//319 303//303
f 303//303 287//287 271//271
f 271//271 496//496 463//463
f 463//463 431//431 399//399
f 399//399 367//367 335//335
f 335//335 303//303 271//271
f 271//271 463//463 399//399
f 399//399 335//335 271//271
f 509//509 511//511 515//515
f 509//509 515//515 513//513
f 513//513 515//515 262//262
f 513//513 262//262 259//259
f 514//514 260//260 265//265
f 265//265 269//269 273//273
f 273//273 277//277 281//281
f 281//281 285//285 290//290
f 290//290 294//294 298//298
f 298//298 302//302 306//306
f 306//306 310//310 314//314
f 314//314 318//318 322//322
f 322//322 326//326 330//330
f 330//330 334//334 338//338
f 338//338 342//342 346//346
f 346//346 350//350 354//354
f 354//354 358//358 362//362
f 362//362 366//366 370//370
f 370//370 374//374 378//378
f 378//378 382//382 386//386
f 386//386 390//390 394//394
f 394//394 398//398 402//402
f 402//402 406//406 410//410
f 410//410 414//414 418//418
f 418//418 422//422 426//426
f 426//426 430//430 434//434
f 434//434 438//438 442//442
f 442//442 446//446 450//450
f 450//450 454//454 458//458
f 458//458 462//462 466//466
f 466//466 470//470 474//474
f 474//474 478//478 482//482
f 482//482 486//486 490//490
f 490//490 494//494 498//498
f 498//498 502//502 506//506
f 506//506 510//510 514//514
f 514//514 265//265 273//273
f 273//273 281//281 290//290
f 290//290 298//298 306//306
f 306//306 314//314 322//322
f 322//322 330//330 338//338
f 338//338 346//346 354//354
f 354//354 362//362 370//370
f 370//370 378//378 386//386
f 386//386 394//394 402//402
f 402//402 410//410 418//418
f 418//418 426//426 434//434
f 434//434 442//442 450//450
f 450//450 458//458 466//466
f 466//466 474//474 482//482
f 482//482 490//490 498//498
f 498//498 506//506 514//514
f 514//514 273//273 290//290
f 290//290 306//306 322//322
f 322//322 338//338 354//354
f 354//354 370//370 386//386
f 386//386 402//402 418//418
f 418//418 434//434 450//450
f 450//450 466//466 482//482
f 482//482 498//498 514//514
f 514//514 290//290 322//322
f 322//322 354//354 386//386
f 386//386 418//418 450//450
f 450//450 482//482 514//514
f 514//514 322//322 386//386
f 386//386 450//450 514//514
usemtl WF_Grey
f 519//519 522//522 526//526
f 519//519 526//526 524//524
f 524//524 526//526 530//530
f 524//524 530//530 528//528
f 528//528 530//530 534//534
f 528//528 534//534 532//532
f 532//532 534//534 538//538
f 532//532 538//538 536//536
f 536//536 538//538 542//542
f 536//536 542//542 540//540
f 540//540 542//542 546//546
f 540//540 546//546 544//544
f 544//544 546//546 550//550
f 544//544 550//550 547//547
f 547//547 550//550 554//554
f 547//547 554//554 551//551
f 551//551 554//554 558//558
f 551//551 558//558 555//555
f 555//555 558//558 562//562
f 555//555 562//562 559//559
f 559//559 562//562 566//566
f 559//559 566//566 563//563
f 563//563 566//566 570//570
f 563//563 570//570 567//567
f 567//567 570//570 574//574
f 567//567 574//574 571//571
f 571//571 574//574 578//578
f 571//571 578//578 575//575
f 575//575 578//578 582//582
f 575//575 582//582 579//579
f 579//579 582//582 586//586
f 579//579 586//586 583//583
f 583//583 586//586 590//590
f 583//583 590//590 587//587
f 587//587 590//590 594//594
f 587//587 594//594 591//591
f 591//591 594//594 598//598
f 591//591 598//598 595//595
f 595//595 598//598 602//602
f 595//595 602//602 599//599
f 599//599 602//602 606//606
f 599//599 606//606 603//603
f 603//603 606//606 610//610
f 603//603 610//610 607//607
f 607//607 610//610 614//614
f 607//607 614//614 611//611
f 611//611 614//614 618//618
f 611//611 618//618 615//615
f 615//615 618//618 622//622
f 615//615 622//622 619//619
f 619//619 622//622 626//626
f 619//619 626//626 623//623
f 623//623 626//626 630//630
f 623//623 630//630 627//627
f 627//627 630//630 634//634
f 627//627 634//634 631//631
f 631//631 634//634 638//638
f 631//631 638//638 635//635
f 635//635 638//638 642//642
f 635//635 642//642 639//639
f 639//639 642//642 646//646
f 639//639 646//646 643//643
f 643//643 646//646 650//650
f 643//643 650//650 647//647
f 647//647 650//650 654//654
f 647//647 654//654 651//651
f 651//651 654//654 658//658
f 651//651 658//658 655//655
f 655//655 658//658 662//662
f 655//655 662//662 659//659
f 659//659 662//662 666//666
f 659//659 666//666 663//663
f 663//663 666//666 670//670
f 663//663 670//670 667//667
f 667//667 670//670 674//674
f 667//667 674//674 671//671
f 671//671 674//674 678//678
f 671//671 678//678 675//675
f 675//675 678//678 682//682
f 675//675 682//682 679//679
f 679//679 682//682 686//686
f 679//679 686//686 683//683
f 683//683 686//686 690//690
f 683//683 690//690 687//687
f 687//687 690//690 694//694
f 687//687 694//694 691//691
f 691//691 694//694 698//698
f 691//691 698//698 695//695
f 695//695 698//698 702//702
f 695//695 702//702 699//699
f 699//699 702//702 706//706
f 699//699 706//706 703//703
f 703//703 706//706 710//710
f 703//703 710//710 707//707
f 707//707 710//710 714//714
f 707//707 714//714 711//711
f 711//711 714//714 718//718
f 711//711 718//718 715//715
f 715//715 718//718 722//722
f 715//715 722//722 719//719
f 719//719 722//722 726//726
f 719//719 726//726 723//723
f 723//723 726//726 730//730
f 723//723 730//730 727//727
f 727//727 730//730 734//734
f 727//727 734//734 731//731
f 731//731 734//734 738//738
f 731//731 738//738 735//735
f 735//735 738//738 742//742
f 735//735 742//742 739//739
f 739//739 742//742 746//746
f 739//739 746//746 743//743
f 743//743 746//746 750//750
f 743//743 750//750 747//747
f 747//747 750//750 753//753
f 747//747 753//753 751//751
f 751//751 753//753 757//757
f 751//751 757//757 755//755
f 755//755 757//757 761//761
f 755//755 761//761 759//759
f 759//759 761//761 765//765
f 759//759 765//765 763//763
f 763//763 765//765 769//769
f 763//763 769//769 767//767
f 529//529 525//525 521//521
f 521//521 774//774 770//770
f 770//770 766//766 762//762
f 762//762 758//758 754//754
f 754//754 749//749 745//745
f 745//745 741//741 737//737
f 737//737 733//733 729//729
f 729//729 725//725 721//721
f 721//721 717//717 713//713
f 713//713 709//709 705//705
f 705//705 701//701 697//697
f 697//697 693//693 689//689
f 689//689 685//685 681//681
f 681//681 677//677 673//673
f 673//673 669//669 665//665
f 665//665 661//661 657//657
f 657//657 653//653 649//649
f 649//649 645//645 641//641
f 641//641 637//637 633//633
f 633//633 629//629 625//625
f 625//625 621//621 617//617
f 617//617 613//613 609//609
f 609//609 605//605 601//601
f 601//601 597//597 593//593
f 593//593 589//589 585//585
f 585//585 581//581 577//577
f 577//577 573//573 569//569
f 569//569 565//565 561//561
f 561//561 557//557 553//553
f 553//553 549//549 545//545
f 545//545 541//541 537//537
f 537//537 533//533 529//529
f 529//529 521//521 770//770
f 770//770 762//762 754//754
f 754//754 745//745 737//737
f 737//737 729//729 721//721
f 721//721 713//713 705//705
f 705//705 697//697 689//689
f 689//689 681//681 673//673
f 673//673 665//665 657//657
f 657//657 649//649 641//641
f 641//641 633//633 625//625
f 625//625 617//617 609//609
f 609//609 601//601 593//593
f 593//593 585//585 577//577
f 577//577 569//569 561//561
f 561//561 553//553 545//545
f 545//545 537//537 529//529
f 529//529 770//770 754//754
f 754//754 737//737 721//721
f 721//721 705//705 689//689
f 689//689 673//673 657//657
f 657//657 641//641 625//625
f 625//625 609//609 593//593
f 593//593 577//577 561//561
f 561//561 545//545 529//529
f 529//529 754//754 721//721
f 721//721 689//689 657//657
f 657//657 625//625 593//593
f 593//593 561//561 529//529
f 529//529 721//721 657//657
f 657//657 593//593 529//529
f 767//767 769//769 773//773
f 767//767 773//773 771//771
f 771//771 773//773 520//520
f 771//771 520//520 517//517
f 772//772 518//518 523//523
f 523//523 527//527 531//531
f 531//531 535//535 539//539
f 539//539 543//543 548//548
f 548//548 552//552 556//556
f 556//556 560//560 564//564
f 564//564 568//568 572//572
f 572//572 576//576 580//580
f 580//580 584//584 588//588
f 588//588 592//592 596//596
f 596//596 600//600 604//604
f 604//604 608//608 612//612
f 612//612 616//616 620//620
f 620//620 624//624 628//628
f 628//628 632//632 636//636
f 636//636 640//640 644//644
f 644//644 648//648 652//652
f 652//652 656//656 660//660
f 660//660 664//664 668//668
f 668//668 672//672 676//676
f 676//676 680//680 684//684
f 684//684 688//688 692//692
f 692//692 696//696 700//700
f 700//700 704//704 708//708
f 708//708 712//712 716//716
f 716//716 720//720 724//724
f 724//724 728//728 732//732
f 732//732 736//736 740//740
f 740//740 744//744 748//748
f 748//748 752//752 756//756
f 756//756 760//760 764//764
f 764//764 768//768 772//772
f 772//772 523//523 531//531
f 531//531 539//539 548//548
f 548//548 556//556 564//564
f 564//564 572//572 580//580
f 580//580 588//588 596//596
f 596//596 604//604 612//612
f 612//612 620//620 628//628
f 628//628 636//636 644//644
f 644//644 652//652 660//660
f 660//660 668//668 676//676
f 676//676 684//684 692//692
f 692//692 700//700 708//708
f 708//708 716//716 724//724
f 724//724 732//732 740//740
f 740//740 748//748 756//756
f 756//756 764//764 772//772
f 772//772 531//531 548//548
f 548//548 564//564 580//580
f 580//580 596//596 612//612
f 612//612 628//628 644//644
f 644//644 660//660 676//676
f 676//676 692//692 708//708
f 708//708 724//724 740//740
f 740//740 756//756 772//772
f 772//772 548//548 580//580
f 580//580 612//612 644//644
f 644//644 676//676 708//708
f 708//708 740//740 772//772
f 772//772 580//580 644//644
f 644//644 708//708 772//772
usemtl WF_Yellow
f 777//777 780//780 784//784
f 777//777 784//784 782//782
f 782//782 784//784 788//788
f 782//782 788//788 786//786
f 786//786 788//788 792//792
f 786//786 792//792 790//790
f 790//790 792//792 796//796
f 790//790 796//796 794//794
f 794//794 796//796 800//800
f 794//794 800//800 798//798
f 798//798 800//800 804//804
f 798//798 804//804 802//802
f 802//802 804//804 808//808
f 802//802 808//808 805//805
f 805//805 808//808 812//812
f 805//805 812//812 809//809
f 809//809 812//812 816//816
f 809//809 816//816 813//813
f 813//813 816//816 820//820
f 813//813 820//820 817//817
f 817//817 820//820 824//824
f 817//817 824//824 821//821
f 821//821 824//824 828//828
f 821//821 828//828 825//825
f 825//825 828//828 832//832
f 825//825 832//832 829//829
f 829//829 832//832 836//836
f 829//829 836//836 833//833
f 833//833 836//836 840//840
f 833//833 840//840 837//837
f 837//837 840//840 844//844
f 837//837 844//844 841//841
f 841//841 844//844 848//848
f 841//841 848//848 845//845
f 845//845 848//848 852//852
f 845//845 852//852 849//849
f 849//849 852//852 856//856
f 849//849 856//856 853//853
f 853//853 856//856 860//860
f 853//853 860//860 857//857
f 857//857 860//860 864//864
f 857//857 864//864 861//861
f 861//861 864//864 868//868
f 861//861 868//868 865//865
f 865//865 868//868 872//872
f 865//865 872//872 869//869
f 869//869 872//872 876//876
f 869//869 876//876 873//873
f 873//873 876//876 880//880
f 873//873 880//880 877//877
f 877//877 880//880 884//884
f 877//877 884//884 881//881
f 881//881 884//884 888//888
f 881//881 888//888 885//885
f 885//885 888//888 892//892
f 885//885 892//892 889//889
f 889//889 892//892 896//896
f 889//889 896//896 893//893
f 893//893 896//896 900//900
f 893//893 900//900 897//897
f 897//897 900//900 904//904
f 897//897 904//904 901//901
f 901//901 904//904 908//908
f 901//901 908//908 905//905
f 905//905 908//908 912//912
f 905//905 912//912 909//909
f 909//909 912//912 916//916
f 909//909 916//916 913//913
f 913//913 916//916 920//920
f 913//913 920//920 917//917
f 917//917 920//920 924//924
f 917//917 924//924 921//921
f 921//921 924//924 928//928
f 921//921 928//928 925//925
f 925//925 928//928 932//932
f 925//925 932//932 929//929
f 929//929 932//932 936//936
f 929//929 936//936 933//933
f 933//933 936//936 940//940
f 933//933 940//940 937//937
f 937//937 940//940 944//944
f 937//937 944//944 941//941
f 941//941 944//944 948//948
f 941//941 948//948 945//945
f 945//945 948//948 952//952
f 945//945 952//952 949//949
f 949//949 952//952 956//956
f 949//949 956//956 953//953
f 953//953 956//956 960//960
f 953//953 960//960 957//957
f 957//957 960//960 964//964
f 957//957 964//964 961//961
f 961//961 964//964 968//968
f 961//961 968//968 965//965
f 965//965 968//968 972//972
f 965//965 972//972 969//969
f 969//969 972//972 976//976
f 969//969 976//976 973//973
f 973//973 976//976 980//980
f 973//973 980//980 977//977
f 977//977 980//980 984//984
f 977//977 984//984 981//981
f 981//981 984//984 988//988
f 981//981 988//988 985//985
f 985//985 988//988 992//992
f 985//985 992//992 989//989
f 989//989 992//992 996//996
f 989//989 996//996 993//993
f 993//993 996//996 1000//1000
f 993//993 1000//1000 997//997
f 997//997 1000//1000 1004//1004
f 997//997 1004//1004 1001//1001
f 1001//1001 1004//1004 1008//1008
f 1001//1001 1008//1008 1005//1005
f 1005//1005 1008//1008 1011//1011
f 1005//1005 1011//1011 1009//1009
f 1009//1009 1011//1011 1015//1015
f 1009//1009 1015//1015 1013//1013
f 1013//1013 1015//1015 1019//1019
f 1013//1013 1019//1019 1017//1017
f 1017//1017 1019//1019 1023//1023
f 1017//1017 1023//1023 1021//1021
f 1021//1021 1023//1023 1027//1027
f 1021//1021 1027//1027 1025//1025
f 787//787 783//783 779//779
f 779//779 1032//1032 1028//1028
f 1028//1028 1024//1024 1020//1020
f 1020//1020 1016//1016 1012//1012
f 1012//1012 1007//1007 1003//1003
f 1003//1003 999//999 995//995
f 995//995 991//991 987//987
f 987//987 983//983 979//979
f 979//979 975//975 971//971
f 971//971 967//967 963//963
f 963//963 959//959 955//955
f 955//955 951//951 947//947
f 947//947 943//943 939//939
f 939//939 935//935 931//931
f 931//931 927//927 923//923
f 923//923 919//919 915//915
f 915//915 911//911 907//907
f 907//907 903//903 899//899
f 899//899 895//895 891//891
f 891//891 887//887 883//883
f 883//883 879//879 875//875
f 875//875 871//871 867//867
f 867//867 863//863 859//859
f 859//859 855//855 851//851
f 851//851 847//847 843//843
f 843//843 839//839 835//835
f 835//835 831//831 827//827
f 827//827 823//823 819//819
f 819//819 815//815 811//811
f 811//811 807//807 803//803
f 803//803 799//799 795//795
f 795//795 791//791 787//787
f 787//787 779//779 1028//1028
f 1028//1028 1020//1020 1012//1012
f 1012//1012 1003//1003 995//995
f 995//995 987//987 979//979
f 979//979 971//971 963//963
f 963//963 955//955 947//947
f 947//947 939//939 931//931
f 931//931 923//923 915//915
f 915//915 907//907 899//899
f 899//899 891//891 883//883
f 883//883 875//875 867//867
f 867//867 859//859 851//851
f 851//851 843//843 835//835
f 835//835 827//827 819//819
f 819//819 811//811 803//803
f 803//803 795//795 787//787
f 787//787 1028//1028 1012//1012
f 1012//1012 995//995 979//979
f 979//979 963//963 947//947
f 947//947 931//931 915//915
f 915//915 899//899 883//883
f 883//883 867//867 851//851
f 851//851 835//835 819//819
f 819//819 803//803 787//787
f 787//787 1012//1012 979//979
f 979//979 947//947 915//915
f 915//915 883//883 851//851
f 851//851 819//819 787//787
f 787//787 979//979 915//915
f 915//915 851//851 787//787
f 1025//1025 1027//1027 1031//1031
f 1025//1025 1031//1031 1029//1029
f 1029//1029 1031//1031 778//778
f 1029//1029 778//778 775//775
f 1030//1030 776//776 781//781
f 781//781 785//785 789//789
f 789//789 793//793 797//797
f 797//797 801//801 806//806
f 806//806 810//810 814//814
f 814//814 818//818 822//822
f 822//822 826//826 830//830
f 830//830 834//834 838//838
f 838//838 842//842 846//846
f 846//846 850//850 854//854
f 854//854 858//858 862//862
f 862//862 866//866 870//870
f 870//870 874//874 878//878
f 878//878 882//882 886//886
f 886//886 890//890 894//894
f 894//894 898//898 902//902
f 902//902 906//906 910//910
f 910//910 914//914 918//918
f 918//918 922//922 926//926
f 926//926 930//930 934//934
f 934//934 938//938 942//942
f 942//942 946//946 950//950
f 950//950 954//954 958//958
f 958//958 962//962 966//966
f 966//966 970//970 974//974
f 974//974 978//978 982//982
f 982//982 986//986 990//990
f 990//990 994//994 998//998
f 998//998 1002//1002 1006//1006
f 1006//1006 1010//1010 1014//1014
f 1014//1014 1018//1018 1022//1022
f 1022//1022 1026//1026 1030//1030
f 1030//1030 781//781 789//789
f 789//789 797//797 806//806
f 806//806 814//814 822//822
f 822//822 830//830 838//838
f 838//838 846//846 854//854
f 854//854 862//862 870//870
f 870//870 878//878 886//886
f 886//886 894//894 902//902
f 902//902 910//910 918//918
f 918//918 926//926 934//934
f 934//934 942//942 950//950
f 950//950 958//958 966//966
f 966//966 974//974 982//982
f 982//982 990//990 998//998
f 998//998 1006//1006 1014//1014
f 1014//1014 1022//1022 1030//1030
f 1030//1030 789//789 806//806
f 806//806 822//822 838//838
f 838//838 854//854 870//870
f 870//870 886//886 902//902
f 902//902 918//918 934//934
f 934//934 950//950 966//966
f 966//966 982//982 998//998
f 998//998 1014//1014 1030//1030
f 1030//1030 806//806 838//838
f 838//838 870//870 902//902
f 902//902 934//934 966//966
f 966//966 998//998 1030//1030
f 1030//1030 838//838 902//902
f 902//902 966//966 1030//1030
