mtllib equipment_2.mtl
o equipment_2
v -3.10000 -1.20000 -1.30000
v -3.10000 -1.20000 -1.30000
v -3.10000 -1.20000 -1.30000
v -3.10000 -1.20000 1.30000
v -3.10000 -1.20000 1.30000
v -3.10000 -1.20000 1.30000
v -3.10000 1.20000 -1.30000
v -3.10000 1.20000 -1.30000
v -3.10000 1.20000 -1.30000
v -3.10000 1.20000 1.30000
v -3.10000 1.20000 1.30000
v -3.10000 1.20000 1.30000
v 0.10000 -1.20000 -1.30000
v 0.10000 -1.20000 -1.30000
v 0.10000 -1.20000 -1.30000
v 0.10000 -1.20000 1.30000
v 0.10000 -1.20000 1.30000
v 0.10000 -1.20000 1.30000
v 0.10000 1.20000 -1.30000
v 0.10000 1.20000 -1.30000
v 0.10000 1.20000 -1.30000
v 0.10000 1.20000 1.30000
v 0.10000 1.20000 1.30000
v 0.10000 1.20000 1.30000
v 0.20000 0.00000 -1.30000
v 0.20000 0.00000 -1.30000
v 0.20000 0.00000 -1.30000
v 0.20000 0.00000 1.30000
v 0.20000 0.00000 1.30000
v 0.20000 0.00000 1.30000
v 0.20000 2.40000 -1.30000
v 0.20000 2.40000 -1.30000
v 0.20000 2.40000 -1.30000
v 0.20000 2.40000 1.30000
v 0.20000 2.40000 1.30000
v 0.20000 2.40000 1.30000
v 3.40000 0.00000 -1.30000
v 3.40000 0.00000 -1.30000
v 3.40000 0.00000 -1.30000
v 3.40000 0.00000 1.30000
v 3.40000 0.00000 1.30000
v 3.40000 0.00000 1.30000
v 3.40000 2.40000 -1.30000
v 3.40000 2.40000 -1.30000
v 3.40000 2.40000 -1.30000
v 3.40000 2.40000 1.30000
v 3.40000 2.40000 1.30000
v 3.40000 2.40000 1.30000
vn 0.00000 -1.00000 0.00000
vn 0.00000 0.00000 -1.00000
vn -1.00000 0.00000 0.00000
vn 0.00000 -1.00000 0.00000
vn 0.00000 0.00000 1.00000
vn -1.00000 0.00000 0.00000
vn 0.00000 1.00000 0.00000
vn 0.00000 0.00000 -1.00000
vn -1.00000 0.00000 0.00000
vn 0.00000 1.00000 0.00000
vn 0.00000 0.00000 1.00000
vn -1.00000 0.00000 0.00000
vn 0.00000 -1.00000 0.00000
vn 0.00000 0.00000 -1.00000
vn 1.00000 0.00000 0.00000
vn 0.00000 -1.00000 0.00000
vn 0.00000 0.00000 1.00000
vn 1.00000 0.00000 0.00000
vn 0.00000 1.00000 0.00000
vn 0.00000 0.00000 -1.00000
vn 1.00000 0.00000 0.00000
vn 0.00000 1.00000 0.00000
vn 0.00000 0.00000 1.00000
vn 1.00000 0.00000 0.00000
vn 0.00000 -1.00000 0.00000
vn 0.00000 0.00000 -1.00000
vn -1.00000 0.00000 0.00000
vn 0.00000 -1.00000 0.00000
vn 0.00000 0.00000 1.00000
vn -1.00000 0.00000 0.00000
vn 0.00000 1.00000 0.00000
vn 0.00000 0.00000 -1.00000
vn -1.00000 0.00000 0.00000
vn 0.00000 1.00000 0.00000
vn 0.00000 0.00000 1.00000
vn -1.00000 0.00000 0.00000
vn 0.00000 -1.00000 0.00000
vn 0.00000 0.00000 -1.00000
vn 1.00000 0.00000 0.00000
vn 0.00000 -1.00000 0.00000
vn 0.00000 0.00000 1.00000
vn 1.00000 0.00000 0.00000
vn 0.00000 1.00000 0.00000
vn 0.00000 0.00000 -1.00000
vn 1.00000 0.00000 0.00000
vn 0.00000 1.00000 0.00000
vn 0.00000 0.00000 1.00000
vn 1.00000 0.00000 0.00000
usemtl WF_Grey
f 3//3 6//6 12//12
f 3//3 12//12 9//9
f 7//7 10//10 22//22
f 7//7 22//22 19//19
f 21//21 24//24 18//18
f 21//21 18//18 15//15
f 13//13 16//16 4//4
f 13//13 4//4 1//1
f 8//8 20//20 14//14
f 8//8 14//14 2//2
f 23//23 11//11 5//5
f 23//23 5//5 17//17
f 27//27 30//30 36//36
f 27//27 36//36 33//33
f 31//31 34//34 46//46
f 31//31 46//46 43//43
f 45//45 48//48 42//42
f 45//45 42//42 39//39
f 37//37 40//40 28//28
f 37//37 28//28 25//25
f 32//32 44//44 38//38
f 32//32 38//38 26//26
f 47//47 35//35 29//29
f 47//47 29//29 41//41
