mtllib jacket.mtl
o jacket
v -25.80232 15.79698 -14.37813
v -47.27976 28.19698 1.62187
v -25.65546 15.81601 -14.19574
v -47.13289 28.21601 1.80426
v -25.53076 15.77942 -14.00000
v -47.00819 28.17942 2.00000
v -25.43673 15.68973 -13.80426
v -46.91416 28.08972 2.19574
v -25.37978 15.55302 -13.62187
v -46.85721 27.95302 2.37813
v -25.36378 15.37863 -13.46524
v -46.84121 27.77863 2.53476
v -25.38983 15.17844 -13.34505
v -46.86726 27.57844 2.65495
v -25.45615 14.96609 -13.26950
v -46.93358 27.36609 2.73050
v -25.55822 14.75604 -13.24373
v -47.03565 27.15604 2.75627
v -25.68908 14.56263 -13.26950
v -47.16651 26.96263 2.73050
v -25.83983 14.39902 -13.34505
v -47.31726 26.79902 2.65495
v -26.00018 14.27636 -13.46524
v -47.47761 26.67636 2.53476
v -26.15920 14.20302 -13.62187
v -47.63663 26.60302 2.37813
v -26.30607 14.18400 -13.80426
v -47.78350 26.58399 2.19574
v -26.43076 14.22058 -14.00000
v -47.90819 26.62058 2.00000
v -26.52479 14.31028 -14.19574
v -48.00222 26.71028 1.80426
v -26.58175 14.44698 -14.37813
v -48.05918 26.84698 1.62187
v -26.59775 14.62137 -14.53476
v -48.07518 27.02137 1.46524
v -26.57170 14.82156 -14.65495
v -48.04913 27.22156 1.34505
v -26.50538 15.03392 -14.73050
v -47.98281 27.43392 1.26950
v -26.40331 15.24396 -14.75627
v -47.88074 27.64396 1.24373
v -26.27244 15.43738 -14.73050
v -47.74987 27.83737 1.26950
v -26.12170 15.60099 -14.65495
v -47.59913 28.00098 1.34505
v -25.96135 15.72364 -14.53476
v -47.43878 28.12364 1.46524
v -25.80233 15.79698 -13.62187
v -4.32489 3.39698 2.37813
v -25.65546 15.81600 -13.80426
v -4.17803 3.41601 2.19574
v -25.53076 15.77942 -14.00000
v -4.05333 3.37942 2.00000
v -25.43673 15.68972 -14.19574
v -3.95930 3.28972 1.80426
v -25.37978 15.55302 -14.37813
v -3.90235 3.15302 1.62187
v -25.36378 15.37863 -14.53476
v -3.88635 2.97863 1.46524
v -25.38983 15.17844 -14.65495
v -3.91240 2.77844 1.34505
v -25.45615 14.96608 -14.73050
v -3.97872 2.56609 1.26950
v -25.55822 14.75604 -14.75627
v -4.08079 2.35604 1.24373
v -25.68908 14.56263 -14.73050
v -4.21165 2.16263 1.26950
v -25.83983 14.39902 -14.65495
v -4.36240 1.99902 1.34505
v -26.00018 14.27636 -14.53476
v -4.52275 1.87636 1.46524
v -26.15920 14.20302 -14.37813
v -4.68177 1.80302 1.62187
v -26.30607 14.18399 -14.19574
v -4.82864 1.78400 1.80426
v -26.43076 14.22058 -14.00000
v -4.95333 1.82058 2.00000
v -26.52479 14.31028 -13.80426
v -5.04736 1.91028 2.19574
v -26.58175 14.44698 -13.62187
v -5.10432 2.04698 2.37813
v -26.59775 14.62137 -13.46524
v -5.12032 2.22137 2.53476
v -26.57170 14.82156 -13.34505
v -5.09427 2.42156 2.65495
v -26.50538 15.03391 -13.26950
v -5.02795 2.63392 2.73050
v -26.40331 15.24396 -13.24373
v -4.92588 2.84396 2.75627
v -26.27244 15.43737 -13.26950
v -4.79501 3.03737 2.73050
v -26.12170 15.60098 -13.34505
v -4.64427 3.20099 2.65495
v -25.96135 15.72364 -13.46524
v -4.48392 3.32364 2.53476
v -51.96152 0.48791 -13.24373
v -51.96152 -24.31208 2.75627
v -51.72859 0.47129 -13.26950
v -51.72859 -24.32871 2.73050
v -51.51152 0.42255 -13.34505
v -51.51152 -24.37745 2.65495
v -51.32513 0.34501 -13.46524
v -51.32513 -24.45499 2.53476
v -51.18210 0.24396 -13.62187
v -51.18210 -24.55604 2.37813
v -51.09219 0.12628 -13.80426
v -51.09219 -24.67372 2.19574
v -51.06152 -0.00000 -14.00000
v -51.06152 -24.80000 2.00000
v -51.09219 -0.12628 -14.19574
v -51.09219 -24.92628 1.80426
v -51.18210 -0.24396 -14.37813
v -51.18210 -25.04396 1.62187
v -51.32513 -0.34501 -14.53476
v -51.32513 -25.14501 1.46524
v -51.51152 -0.42255 -14.65495
v -51.51152 -25.22254 1.34505
v -51.72859 -0.47129 -14.73050
v -51.72859 -25.27129 1.26950
v -51.96152 -0.48792 -14.75627
v -51.96152 -25.28791 1.24373
v -52.19446 -0.47129 -14.73050
v -52.19446 -25.27129 1.26950
v -52.41152 -0.42255 -14.65495
v -52.41152 -25.22254 1.34505
v -52.59792 -0.34501 -14.53476
v -52.59792 -25.14501 1.46524
v -52.74095 -0.24396 -14.37813
v -52.74095 -25.04396 1.62187
v -52.83086 -0.12628 -14.19574
v -52.83086 -24.92628 1.80426
v -52.86152 -0.00000 -14.00000
v -52.86152 -24.80000 2.00000
v -52.83086 0.12628 -13.80426
v -52.83086 -24.67372 2.19574
v -52.74095 0.24396 -13.62187
v -52.74095 -24.55604 2.37813
v -52.59792 0.34501 -13.46524
v -52.59792 -24.45499 2.53476
v -52.41152 0.42255 -13.34505
v -52.41152 -24.37745 2.65495
v -52.19446 0.47129 -13.26950
v -52.19446 -24.32871 2.73050
v -51.96152 0.48792 -14.75627
v -51.96152 25.28791 1.24373
v -51.72859 0.47129 -14.73050
v -51.72859 25.27129 1.26950
v -51.51152 0.42255 -14.65495
v -51.51152 25.22254 1.34505
v -51.32513 0.34501 -14.53476
v -51.32513 25.14501 1.46524
v -51.18210 0.24396 -14.37813
v -51.18210 25.04396 1.62187
v -51.09219 0.12628 -14.19574
v -51.09219 24.92628 1.80426
v -51.06152 0.00000 -14.00000
v -51.06152 24.80000 2.00000
v -51.09219 -0.12628 -13.80426
v -51.09219 24.67372 2.19574
v -51.18210 -0.24396 -13.62187
v -51.18210 24.55604 2.37813
v -51.32513 -0.34501 -13.46524
v -51.32513 24.45499 2.53476
v -51.51152 -0.42255 -13.34505
v -51.51152 24.37745 2.65495
v -51.72859 -0.47129 -13.26950
v -51.72859 24.32871 2.73050
v -51.96152 -0.48791 -13.24373
v -51.96152 24.31208 2.75627
v -52.19446 -0.47129 -13.26950
v -52.19446 24.32871 2.73050
v -52.41152 -0.42255 -13.34505
v -52.41152 24.37745 2.65495
v -52.59792 -0.34501 -13.46524
v -52.59792 24.45499 2.53476
v -52.74095 -0.24396 -13.62187
v -52.74095 24.55604 2.37813
v -52.83086 -0.12628 -13.80426
v -52.83086 24.67372 2.19574
v -52.86152 0.00000 -14.00000
v -52.86152 24.80000 2.00000
v -52.83086 0.12628 -14.19574
v -52.83086 24.92628 1.80426
v -52.74095 0.24396 -14.37813
v -52.74095 25.04396 1.62187
v -52.59792 0.34501 -14.53476
v -52.59792 25.14501 1.46524
v -52.41152 0.42255 -14.65495
v -52.41152 25.22254 1.34505
v -52.19446 0.47129 -14.73050
v -52.19446 25.27129 1.26950
v -26.15920 -14.20302 -14.37813
v -4.68177 -1.80302 1.62187
v -26.00018 -14.27636 -14.53476
v -4.52275 -1.87636 1.46524
v -25.83983 -14.39902 -14.65495
v -4.36240 -1.99902 1.34505
v -25.68908 -14.56263 -14.73050
v -4.21165 -2.16263 1.26950
v -25.55822 -14.75604 -14.75627
v -4.08079 -2.35604 1.24373
v -25.45615 -14.96608 -14.73050
v -3.97872 -2.56609 1.26950
v -25.38983 -15.17844 -14.65495
v -3.91240 -2.77844 1.34505
v -25.36378 -15.37863 -14.53476
v -3.88635 -2.97863 1.46524
v -25.37978 -15.55302 -14.37813
v -3.90235 -3.15302 1.62187
v -25.43673 -15.68972 -14.19574
v -3.95930 -3.28972 1.80426
v -25.53076 -15.77942 -14.00000
v -4.05333 -3.37942 2.00000
v -25.65546 -15.81600 -13.80426
v -4.17803 -3.41601 2.19574
v -25.80233 -15.79698 -13.62187
v -4.32489 -3.39698 2.37813
v -25.96135 -15.72364 -13.46524
v -4.48392 -3.32364 2.53476
v -26.12170 -15.60098 -13.34505
v -4.64427 -3.20099 2.65495
v -26.27244 -15.43737 -13.26950
v -4.79501 -3.03737 2.73050
v -26.40331 -15.24396 -13.24373
v -4.92588 -2.84396 2.75627
v -26.50538 -15.03391 -13.26950
v -5.02795 -2.63392 2.73050
v -26.57170 -14.82156 -13.34505
v -5.09427 -2.42156 2.65495
v -26.59775 -14.62137 -13.46524
v -5.12032 -2.22137 2.53476
v -26.58175 -14.44698 -13.62187
v -5.10432 -2.04698 2.37813
v -26.52479 -14.31028 -13.80426
v -5.04736 -1.91028 2.19574
v -26.43076 -14.22058 -14.00000
v -4.95333 -1.82058 2.00000
v -26.30607 -14.18399 -14.19574
v -4.82864 -1.78400 1.80426
v -26.15920 -14.20302 -13.62187
v -47.63663 -26.60302 2.37813
v -26.00018 -14.27636 -13.46524
v -47.47761 -26.67636 2.53476
v -25.83983 -14.39902 -13.34505
v -47.31726 -26.79902 2.65495
v -25.68908 -14.56263 -13.26950
v -47.16651 -26.96263 2.73050
v -25.55822 -14.75604 -13.24373
v -47.03565 -27.15604 2.75627
v -25.45615 -14.96609 -13.26950
v -46.93358 -27.36609 2.73050
v -25.38983 -15.17844 -13.34505
v -46.86726 -27.57844 2.65495
v -25.36378 -15.37863 -13.46524
v -46.84121 -27.77863 2.53476
v -25.37978 -15.55302 -13.62187
v -46.85721 -27.95302 2.37813
v -25.43673 -15.68973 -13.80426
v -46.91416 -28.08972 2.19574
v -25.53076 -15.77942 -14.00000
v -47.00819 -28.17942 2.00000
v -25.65546 -15.81601 -14.19574
v -47.13289 -28.21601 1.80426
v -25.80232 -15.79698 -14.37813
v -47.27976 -28.19698 1.62187
v -25.96135 -15.72364 -14.53476
v -47.43878 -28.12364 1.46524
v -26.12170 -15.60099 -14.65495
v -47.59913 -28.00098 1.34505
v -26.27244 -15.43738 -14.73050
v -47.74987 -27.83737 1.26950
v -26.40331 -15.24396 -14.75627
v -47.88074 -27.64396 1.24373
v -26.50538 -15.03392 -14.73050
v -47.98281 -27.43392 1.26950
v -26.57170 -14.82156 -14.65495
v -48.04913 -27.22156 1.34505
v -26.59775 -14.62137 -14.53476
v -48.07518 -27.02137 1.46524
v -26.58175 -14.44698 -14.37813
v -48.05918 -26.84698 1.62187
v -26.52479 -14.31028 -14.19574
v -48.00222 -26.71028 1.80426
v -26.43076 -14.22058 -14.00000
v -47.90819 -26.62058 2.00000
v -26.30607 -14.18400 -13.80426
v -47.78350 -26.58399 2.19574
v 0.86603 1.50000 -15.00000
v -51.09550 31.50000 -15.00000
v 0.94693 1.64013 -14.64288
v -51.01459 31.64013 -14.64288
v 0.99144 1.71723 -14.26105
v -50.97008 31.71723 -14.26105
v 0.99786 1.72834 -13.86919
v -50.96367 31.72834 -13.86920
v 0.96593 1.67303 -13.48236
v -50.99560 31.67303 -13.48236
v 0.89687 1.55343 -13.11542
v -51.06465 31.55343 -13.11542
v 0.79335 1.37413 -12.78248
v -51.16817 31.37413 -12.78248
v 0.65935 1.14202 -12.49632
v -51.30218 31.14202 -12.49632
v 0.50000 0.86603 -12.26795
v -51.46153 30.86602 -12.26795
v 0.32144 0.55675 -12.10614
v -51.64009 30.55675 -12.10614
v 0.13053 0.22608 -12.01711
v -51.83100 30.22608 -12.01711
v -0.06540 -0.11328 -12.00428
v -52.02693 29.88672 -12.00428
v -0.25882 -0.44829 -12.06815
v -52.22034 29.55171 -12.06815
v -0.44229 -0.76607 -12.20625
v -52.40381 29.23393 -12.20626
v -0.60876 -1.05441 -12.41329
v -52.57029 28.94559 -12.41329
v -0.75184 -1.30222 -12.68131
v -52.71336 28.69777 -12.68131
v -0.86603 -1.50000 -13.00000
v -52.82755 28.50000 -13.00000
v -0.94693 -1.64013 -13.35712
v -52.90846 28.35987 -13.35712
v -0.99144 -1.71723 -13.73895
v -52.95297 28.28277 -13.73895
v -0.99786 -1.72834 -14.13080
v -52.95938 28.27166 -14.13081
v -0.96593 -1.67303 -14.51764
v -52.92745 28.32697 -14.51764
v -0.89687 -1.55343 -14.88458
v -52.85840 28.44657 -14.88458
v -0.79335 -1.37413 -15.21752
v -52.75488 28.62587 -15.21752
v -0.65935 -1.14202 -15.50368
v -52.62087 28.85798 -15.50368
v -0.50000 -0.86602 -15.73205
v -52.46152 29.13397 -15.73205
v -0.32144 -0.55675 -15.89386
v -52.28296 29.44325 -15.89386
v -0.13053 -0.22608 -15.98289
v -52.09205 29.77392 -15.98289
v 0.06540 0.11328 -15.99572
v -51.89612 30.11328 -15.99572
v 0.25882 0.44829 -15.93185
v -51.70271 30.44829 -15.93185
v 0.44229 0.76607 -15.79374
v -51.51924 30.76607 -15.79375
v 0.60876 1.05441 -15.58671
v -51.35276 31.05441 -15.58671
v 0.75184 1.30223 -15.31869
v -51.20969 31.30222 -15.31869
v -51.96152 30.00000 -12.00000
v -51.96152 -30.00000 -12.00000
v -51.57134 30.00000 -12.03843
v -51.57134 -30.00000 -12.03843
v -51.19616 30.00000 -12.15224
v -51.19616 -30.00000 -12.15224
v -50.85038 30.00000 -12.33706
v -50.85038 -30.00000 -12.33706
v -50.54731 30.00000 -12.58578
v -50.54731 -30.00000 -12.58579
v -50.29859 30.00000 -12.88886
v -50.29859 -30.00000 -12.88886
v -50.11377 30.00000 -13.23463
v -50.11377 -30.00000 -13.23464
v -49.99995 30.00000 -13.60982
v -49.99995 -30.00000 -13.60982
v -49.96152 30.00000 -14.00000
v -49.96152 -30.00000 -14.00000
v -49.99995 30.00000 -14.39018
v -49.99995 -30.00000 -14.39018
v -50.11377 30.00000 -14.76536
v -50.11377 -30.00000 -14.76537
v -50.29859 30.00000 -15.11114
v -50.29859 -30.00000 -15.11114
v -50.54731 30.00000 -15.41421
v -50.54731 -30.00000 -15.41422
v -50.85038 30.00000 -15.66294
v -50.85038 -30.00000 -15.66294
v -51.19616 30.00000 -15.84776
v -51.19616 -30.00000 -15.84776
v -51.57134 30.00000 -15.96157
v -51.57134 -30.00000 -15.96157
v -51.96152 30.00000 -16.00000
v -51.96152 -30.00000 -16.00000
v -52.35171 30.00000 -15.96157
v -52.35171 -30.00000 -15.96157
v -52.72689 30.00000 -15.84776
v -52.72689 -30.00000 -15.84776
v -53.07267 30.00000 -15.66294
v -53.07267 -30.00000 -15.66294
v -53.37574 30.00000 -15.41421
v -53.37574 -30.00000 -15.41422
v -53.62446 30.00000 -15.11114
v -53.62446 -30.00000 -15.11114
v -53.80928 30.00000 -14.76536
v -53.80928 -30.00000 -14.76537
v -53.92310 30.00000 -14.39018
v -53.92310 -30.00000 -14.39018
v -53.96152 30.00000 -14.00000
v -53.96152 -30.00000 -14.00000
v -53.92310 30.00000 -13.60982
v -53.92310 -30.00000 -13.60982
v -53.80928 30.00000 -13.23463
v -53.80928 -30.00000 -13.23464
v -53.62446 30.00000 -12.88886
v -53.62446 -30.00000 -12.88886
v -53.37574 30.00000 -12.58578
v -53.37574 -30.00000 -12.58579
v -53.07267 30.00000 -12.33706
v -53.07267 -30.00000 -12.33706
v -52.72689 30.00000 -12.15224
v -52.72689 -30.00000 -12.15224
v -52.35171 30.00000 -12.03843
v -52.35171 -30.00000 -12.03843
v -52.82755 -28.50000 -15.00000
v -0.86603 1.50000 -15.00000
v -52.71336 -28.69777 -15.31869
v -0.75184 1.30222 -15.31869
v -52.57029 -28.94559 -15.58671
v -0.60876 1.05441 -15.58671
v -52.40381 -29.23393 -15.79374
v -0.44229 0.76607 -15.79375
v -52.22034 -29.55171 -15.93185
v -0.25882 0.44829 -15.93185
v -52.02693 -29.88672 -15.99572
v -0.06540 0.11328 -15.99572
v -51.83100 -30.22608 -15.98289
v 0.13053 -0.22608 -15.98289
v -51.64009 -30.55675 -15.89386
v 0.32144 -0.55675 -15.89386
v -51.46153 -30.86602 -15.73205
v 0.50000 -0.86603 -15.73205
v -51.30218 -31.14202 -15.50368
v 0.65935 -1.14202 -15.50368
v -51.16817 -31.37413 -15.21752
v 0.79335 -1.37413 -15.21752
v -51.06465 -31.55343 -14.88458
v 0.89687 -1.55343 -14.88458
v -50.99560 -31.67303 -14.51764
v 0.96593 -1.67303 -14.51764
v -50.96367 -31.72834 -14.13080
v 0.99786 -1.72834 -14.13081
v -50.97008 -31.71723 -13.73895
v 0.99144 -1.71723 -13.73895
v -51.01459 -31.64013 -13.35712
v 0.94693 -1.64013 -13.35712
v -51.09550 -31.50000 -13.00000
v 0.86603 -1.50000 -13.00000
v -51.20969 -31.30222 -12.68131
v 0.75184 -1.30223 -12.68131
v -51.35276 -31.05441 -12.41329
v 0.60876 -1.05441 -12.41329
v -51.51924 -30.76607 -12.20625
v 0.44229 -0.76607 -12.20626
v -51.70271 -30.44829 -12.06815
v 0.25882 -0.44829 -12.06815
v -51.89612 -30.11328 -12.00428
v 0.06540 -0.11328 -12.00428
v -52.09205 -29.77392 -12.01711
v -0.13053 0.22608 -12.01711
v -52.28296 -29.44325 -12.10614
v -0.32144 0.55675 -12.10614
v -52.46152 -29.13397 -12.26795
v -0.50000 0.86602 -12.26795
v -52.62087 -28.85798 -12.49632
v -0.65935 1.14202 -12.49632
v -52.75488 -28.62587 -12.78248
v -0.79335 1.37413 -12.78248
v -52.85840 -28.44657 -13.11542
v -0.89687 1.55343 -13.11542
v -52.92745 -28.32697 -13.48236
v -0.96593 1.67303 -13.48236
v -52.95938 -28.27166 -13.86919
v -0.99786 1.72834 -13.86920
v -52.95297 -28.28277 -14.26105
v -0.99144 1.71723 -14.26105
v -52.90846 -28.35987 -14.64288
v -0.94693 1.64013 -14.64288
vn 0.63963 0.36493 -0.67654
vn -0.34849 0.93542 0.05958
vn 0.75942 0.38046 -0.52776
vn -0.22869 0.95094 0.20835
vn 0.86114 0.35065 -0.36807
vn -0.12693 0.92111 0.36802
vn 0.93787 0.27746 -0.20836
vn -0.05020 0.84793 0.52773
vn 0.98434 0.16591 -0.05953
vn -0.00374 0.73638 0.67656
vn 0.99739 0.02362 0.06822
vn 0.00928 0.59411 0.80433
vn 0.97614 -0.13968 0.16624
vn -0.01198 0.43081 0.90236
vn 0.92205 -0.31288 0.22788
vn -0.06606 0.25760 0.96399
vn 0.83878 -0.48423 0.24894
vn -0.14930 0.08624 0.98502
vn 0.73200 -0.64205 0.22792
vn -0.25608 -0.07159 0.96400
vn 0.60900 -0.77555 0.16626
vn -0.37908 -0.20508 0.90235
vn 0.47820 -0.87560 0.06819
vn -0.50991 -0.30511 0.80430
vn 0.34849 -0.93542 -0.05958
vn -0.63963 -0.36493 0.67654
vn 0.22869 -0.95094 -0.20835
vn -0.75942 -0.38046 0.52776
vn 0.12693 -0.92111 -0.36802
vn -0.86114 -0.35065 0.36807
vn 0.05020 -0.84793 -0.52773
vn -0.93787 -0.27746 0.20836
vn 0.00374 -0.73638 -0.67656
vn -0.98434 -0.16591 0.05953
vn -0.00928 -0.59411 -0.80433
vn -0.99739 -0.02362 -0.06822
vn 0.01198 -0.43081 -0.90236
vn -0.97614 0.13968 -0.16624
vn 0.06606 -0.25760 -0.96399
vn -0.92205 0.31288 -0.22788
vn 0.14930 -0.08624 -0.98502
vn -0.83878 0.48423 -0.24894
vn 0.25608 0.07159 -0.96400
vn -0.73200 0.64205 -0.22792
vn 0.37908 0.20508 -0.90235
vn -0.60900 0.77555 -0.16626
vn 0.50991 0.30511 -0.80430
vn -0.47820 0.87560 -0.06819
vn -0.34849 0.93542 -0.05958
vn 0.63963 0.36493 0.67654
vn -0.22869 0.95094 -0.20835
vn 0.75942 0.38046 0.52776
vn -0.12693 0.92111 -0.36802
vn 0.86114 0.35065 0.36807
vn -0.05020 0.84793 -0.52773
vn 0.93787 0.27746 0.20836
vn -0.00374 0.73638 -0.67656
vn 0.98434 0.16591 0.05953
vn 0.00928 0.59411 -0.80433
vn 0.99739 0.02362 -0.06822
vn -0.01198 0.43081 -0.90236
vn 0.97614 -0.13968 -0.16624
vn -0.06606 0.25760 -0.96399
vn 0.92205 -0.31288 -0.22788
vn -0.14930 0.08624 -0.98502
vn 0.83878 -0.48423 -0.24894
vn -0.25608 -0.07159 -0.96400
vn 0.73200 -0.64205 -0.22792
vn -0.37908 -0.20508 -0.90235
vn 0.60900 -0.77555 -0.16626
vn -0.50991 -0.30511 -0.80430
vn 0.47820 -0.87560 -0.06819
vn -0.63963 -0.36493 -0.67654
vn 0.34849 -0.93542 0.05958
vn -0.75942 -0.38046 -0.52776
vn 0.22869 -0.95094 0.20835
vn -0.86114 -0.35065 -0.36807
vn 0.12693 -0.92111 0.36802
vn -0.93787 -0.27746 -0.20836
vn 0.05020 -0.84793 0.52773
vn -0.98434 -0.16591 -0.05953
vn 0.00374 -0.73638 0.67656
vn -0.99739 -0.02362 0.06822
vn -0.00928 -0.59411 0.80433
vn -0.97614 0.13968 0.16624
vn 0.01198 -0.43081 0.90236
vn -0.92205 0.31288 0.22788
vn 0.06606 -0.25760 0.96399
vn -0.83878 0.48423 0.24894
vn 0.14930 -0.08624 0.98502
vn -0.73200 0.64205 0.22792
vn 0.25608 0.07159 0.96400
vn -0.60900 0.77555 0.16626
vn 0.37908 0.20508 0.90235
vn -0.47820 0.87560 0.06819
vn 0.50991 0.30511 0.80430
vn 0.00000 0.96853 0.24890
vn 0.00000 -0.17245 0.98502
vn 0.19000 0.95497 0.22789
vn 0.19000 -0.18600 0.96400
vn 0.36709 0.91520 0.16629
vn 0.36709 -0.22573 0.90238
vn 0.51919 0.85193 0.06823
vn 0.51919 -0.28900 0.80431
vn 0.63589 0.76948 -0.05958
vn 0.63589 -0.37146 0.67651
vn 0.70921 0.67349 -0.20840
vn 0.70921 -0.46748 0.52771
vn 0.73422 0.57049 -0.36806
vn 0.73422 -0.57049 0.36806
vn 0.70921 0.46748 -0.52771
vn 0.70921 -0.67349 0.20840
vn 0.63589 0.37146 -0.67651
vn 0.63589 -0.76948 0.05958
vn 0.51919 0.28900 -0.80431
vn 0.51919 -0.85193 -0.06823
vn 0.36709 0.22573 -0.90238
vn 0.36709 -0.91520 -0.16629
vn 0.19000 0.18600 -0.96400
vn 0.19000 -0.95497 -0.22789
vn 0.00000 0.17245 -0.98502
vn 0.00000 -0.96853 -0.24890
vn -0.19000 0.18600 -0.96400
vn -0.19000 -0.95497 -0.22789
vn -0.36709 0.22573 -0.90238
vn -0.36709 -0.91520 -0.16629
vn -0.51919 0.28900 -0.80431
vn -0.51919 -0.85193 -0.06823
vn -0.63589 0.37146 -0.67651
vn -0.63589 -0.76948 0.05958
vn -0.70921 0.46748 -0.52771
vn -0.70921 -0.67349 0.20840
vn -0.73422 0.57049 -0.36806
vn -0.73422 -0.57049 0.36806
vn -0.70921 0.67349 -0.20840
vn -0.70921 -0.46748 0.52771
vn -0.63589 0.76948 -0.05958
vn -0.63589 -0.37146 0.67651
vn -0.51919 0.85193 0.06823
vn -0.51919 -0.28900 0.80431
vn -0.36709 0.91520 0.16629
vn -0.36709 -0.22573 0.90238
vn -0.19000 0.95497 0.22789
vn -0.19000 -0.18600 0.96400
vn 0.00000 -0.17245 -0.98502
vn 0.00000 0.96853 -0.24890
vn 0.19000 -0.18600 -0.96400
vn 0.19000 0.95497 -0.22789
vn 0.36709 -0.22573 -0.90238
vn 0.36709 0.91520 -0.16629
vn 0.51919 -0.28900 -0.80431
vn 0.51919 0.85193 -0.06823
vn 0.63589 -0.37146 -0.67651
vn 0.63589 0.76948 0.05958
vn 0.70921 -0.46748 -0.52771
vn 0.70921 0.67349 0.20840
vn 0.73422 -0.57049 -0.36806
vn 0.73422 0.57049 0.36806
vn 0.70921 -0.67349 -0.20840
vn 0.70921 0.46748 0.52771
vn 0.63589 -0.76948 -0.05958
vn 0.63589 0.37146 0.67651
vn 0.51919 -0.85193 0.06823
vn 0.51919 0.28900 0.80431
vn 0.36709 -0.91520 0.16629
vn 0.36709 0.22573 0.90238
vn 0.19000 -0.95497 0.22789
vn 0.19000 0.18600 0.96400
vn 0.00000 -0.96853 0.24890
vn 0.00000 0.17245 0.98502
vn -0.19000 -0.95497 0.22789
vn -0.19000 0.18600 0.96400
vn -0.36709 -0.91520 0.16629
vn -0.36709 0.22573 0.90238
vn -0.51919 -0.85193 0.06823
vn -0.51919 0.28900 0.80431
vn -0.63589 -0.76948 -0.05958
vn -0.63589 0.37146 0.67651
vn -0.70921 -0.67349 -0.20840
vn -0.70921 0.46748 0.52771
vn -0.73422 -0.57049 -0.36806
vn -0.73422 0.57049 0.36806
vn -0.70921 -0.46748 -0.52771
vn -0.70921 0.67349 0.20840
vn -0.63589 -0.37146 -0.67651
vn -0.63589 0.76948 0.05958
vn -0.51919 -0.28900 -0.80431
vn -0.51919 0.85193 -0.06823
vn -0.36709 -0.22573 -0.90238
vn -0.36709 0.91520 -0.16629
vn -0.19000 -0.18600 -0.96400
vn -0.19000 0.95497 -0.22789
vn -0.63963 0.36493 -0.67654
vn 0.34849 0.93542 0.05958
vn -0.50991 0.30511 -0.80430
vn 0.47820 0.87560 -0.06819
vn -0.37908 0.20508 -0.90235
vn 0.60900 0.77555 -0.16626
vn -0.25608 0.07159 -0.96400
vn 0.73200 0.64205 -0.22792
vn -0.14930 -0.08624 -0.98502
vn 0.83878 0.48423 -0.24894
vn -0.06606 -0.25760 -0.96399
vn 0.92205 0.31288 -0.22788
vn -0.01198 -0.43081 -0.90236
vn 0.97614 0.13968 -0.16624
vn 0.00928 -0.59411 -0.80433
vn 0.99739 -0.02362 -0.06822
vn -0.00374 -0.73638 -0.67656
vn 0.98434 -0.16591 0.05953
vn -0.05020 -0.84793 -0.52773
vn 0.93787 -0.27746 0.20836
vn -0.12693 -0.92111 -0.36802
vn 0.86114 -0.35065 0.36807
vn -0.22869 -0.95094 -0.20835
vn 0.75942 -0.38046 0.52776
vn -0.34849 -0.93542 -0.05958
vn 0.63963 -0.36493 0.67654
vn -0.47820 -0.87560 0.06819
vn 0.50991 -0.30511 0.80430
vn -0.60900 -0.77555 0.16626
vn 0.37908 -0.20508 0.90235
vn -0.73200 -0.64205 0.22792
vn 0.25608 -0.07159 0.96400
vn -0.83878 -0.48423 0.24894
vn 0.14930 0.08624 0.98502
vn -0.92205 -0.31288 0.22788
vn 0.06606 0.25760 0.96399
vn -0.97614 -0.13968 0.16624
vn 0.01198 0.43081 0.90236
vn -0.99739 0.02362 0.06822
vn -0.00928 0.59411 0.80433
vn -0.98434 0.16591 -0.05953
vn 0.00374 0.73638 0.67656
vn -0.93787 0.27746 -0.20836
vn 0.05020 0.84793 0.52773
vn -0.86114 0.35065 -0.36807
vn 0.12693 0.92111 0.36802
vn -0.75942 0.38046 -0.52776
vn 0.22869 0.95094 0.20835
vn 0.34849 0.93542 -0.05958
vn -0.63963 0.36493 0.67654
vn 0.47820 0.87560 0.06819
vn -0.50991 0.30511 0.80430
vn 0.60900 0.77555 0.16626
vn -0.37908 0.20508 0.90235
vn 0.73200 0.64205 0.22792
vn -0.25608 0.07159 0.96400
vn 0.83878 0.48423 0.24894
vn -0.14930 -0.08624 0.98502
vn 0.92205 0.31288 0.22788
vn -0.06606 -0.25760 0.96399
vn 0.97614 0.13968 0.16624
vn -0.01198 -0.43081 0.90236
vn 0.99739 -0.02362 0.06822
vn 0.00928 -0.59411 0.80433
vn 0.98434 -0.16591 -0.05953
vn -0.00374 -0.73638 0.67656
vn 0.93787 -0.27746 -0.20836
vn -0.05020 -0.84793 0.52773
vn 0.86114 -0.35065 -0.36807
vn -0.12693 -0.92111 0.36802
vn 0.75942 -0.38046 -0.52776
vn -0.22869 -0.95094 0.20835
vn 0.63963 -0.36493 -0.67654
vn -0.34849 -0.93542 0.05958
vn 0.50991 -0.30511 -0.80430
vn -0.47820 -0.87560 -0.06819
vn 0.37908 -0.20508 -0.90235
vn -0.60900 -0.77555 -0.16626
vn 0.25608 -0.07159 -0.96400
vn -0.73200 -0.64205 -0.22792
vn 0.14930 0.08624 -0.98502
vn -0.83878 -0.48423 -0.24894
vn 0.06606 0.25760 -0.96399
vn -0.92205 -0.31288 -0.22788
vn 0.01198 0.43081 -0.90236
vn -0.97614 -0.13968 -0.16624
vn -0.00928 0.59411 -0.80433
vn -0.99739 0.02362 -0.06822
vn 0.00374 0.73638 -0.67656
vn -0.98434 0.16591 0.05953
vn 0.05020 0.84793 -0.52773
vn -0.93787 0.27746 0.20836
vn 0.12693 0.92111 -0.36802
vn -0.86114 0.35065 0.36807
vn 0.22869 0.95094 -0.20835
vn -0.75942 0.38046 0.52776
vn 0.90901 0.20307 -0.36395
vn -0.27864 0.88876 -0.36395
vn 0.93846 0.25406 -0.23397
vn -0.24921 0.93976 -0.23397
vn 0.95466 0.28212 -0.09506
vn -0.23301 0.96782 -0.09506
vn 0.95700 0.28616 0.04762
vn -0.23068 0.97186 0.04762
vn 0.94537 0.26604 0.18839
vn -0.24228 0.95174 0.18839
vn 0.92025 0.22251 0.32192
vn -0.26742 0.90821 0.32192
vn 0.88255 0.15723 0.44315
vn -0.30511 0.84292 0.44315
vn 0.83380 0.07278 0.54726
vn -0.35387 0.75848 0.54726
vn 0.77580 -0.02766 0.63037
vn -0.41185 0.65803 0.63037
vn 0.71082 -0.14022 0.68926
vn -0.47685 0.54548 0.68925
vn 0.64136 -0.26052 0.72165
vn -0.54630 0.42518 0.72165
vn 0.57003 -0.38409 0.72632
vn -0.61765 0.30161 0.72632
vn 0.49963 -0.50600 0.70309
vn -0.68802 0.17970 0.70309
vn 0.43288 -0.62164 0.65282
vn -0.75480 0.06406 0.65282
vn 0.37226 -0.72663 0.57744
vn -0.81541 -0.04093 0.57744
vn 0.32021 -0.81679 0.47993
vn -0.86746 -0.13109 0.47993
vn 0.27864 -0.88876 0.36395
vn -0.90901 -0.20307 0.36395
vn 0.24921 -0.93976 0.23397
vn -0.93846 -0.25406 0.23397
vn 0.23301 -0.96782 0.09506
vn -0.95466 -0.28212 0.09506
vn 0.23068 -0.97186 -0.04762
vn -0.95700 -0.28616 -0.04762
vn 0.24228 -0.95174 -0.18839
vn -0.94537 -0.26604 -0.18839
vn 0.26742 -0.90821 -0.32192
vn -0.92025 -0.22251 -0.32192
vn 0.30511 -0.84292 -0.44315
vn -0.88255 -0.15723 -0.44315
vn 0.35387 -0.75848 -0.54726
vn -0.83380 -0.07278 -0.54726
vn 0.41185 -0.65803 -0.63037
vn -0.77580 0.02766 -0.63037
vn 0.47685 -0.54548 -0.68925
vn -0.71082 0.14022 -0.68926
vn 0.54630 -0.42518 -0.72165
vn -0.64136 0.26052 -0.72165
vn 0.61765 -0.30161 -0.72632
vn -0.57003 0.38409 -0.72632
vn 0.68802 -0.17970 -0.70309
vn -0.49963 0.50600 -0.70309
vn 0.75480 -0.06406 -0.65282
vn -0.43288 0.62164 -0.65282
vn 0.81541 0.04093 -0.57744
vn -0.37226 0.72663 -0.57744
vn 0.86746 0.13109 -0.47993
vn -0.32021 0.81679 -0.47993
vn 0.00000 0.68569 0.72789
vn 0.00000 -0.68569 0.72789
vn 0.14200 0.68570 0.71390
vn 0.14200 -0.68570 0.71390
vn 0.27850 0.68570 0.67250
vn 0.27850 -0.68570 0.67250
vn 0.40440 0.68570 0.60520
vn 0.40440 -0.68570 0.60520
vn 0.51470 0.68569 0.51470
vn 0.51470 -0.68569 0.51470
vn 0.60520 0.68570 0.40440
vn 0.60520 -0.68570 0.40440
vn 0.67250 0.68570 0.27850
vn 0.67250 -0.68570 0.27850
vn 0.71390 0.68570 0.14200
vn 0.71390 -0.68570 0.14200
vn 0.72789 0.68569 0.00000
vn 0.72789 -0.68569 -0.00000
vn 0.71390 0.68570 -0.14200
vn 0.71390 -0.68570 -0.14200
vn 0.67250 0.68570 -0.27850
vn 0.67250 -0.68570 -0.27850
vn 0.60520 0.68570 -0.40440
vn 0.60520 -0.68570 -0.40440
vn 0.51470 0.68569 -0.51470
vn 0.51470 -0.68569 -0.51470
vn 0.40440 0.68570 -0.60520
vn 0.40440 -0.68570 -0.60520
vn 0.27850 0.68570 -0.67250
vn 0.27850 -0.68570 -0.67250
vn 0.14200 0.68570 -0.71390
vn 0.14200 -0.68570 -0.71390
vn 0.00000 0.68569 -0.72789
vn 0.00000 -0.68569 -0.72789
vn -0.14200 0.68570 -0.71390
vn -0.14200 -0.68570 -0.71390
vn -0.27850 0.68570 -0.67250
vn -0.27850 -0.68570 -0.67250
vn -0.40440 0.68570 -0.60520
vn -0.40440 -0.68570 -0.60520
vn -0.51470 0.68569 -0.51470
vn -0.51470 -0.68569 -0.51470
vn -0.60520 0.68570 -0.40440
vn -0.60520 -0.68570 -0.40440
vn -0.67250 0.68570 -0.27850
vn -0.67250 -0.68570 -0.27850
vn -0.71390 0.68570 -0.14200
vn -0.71390 -0.68570 -0.14200
vn -0.72789 0.68569 0.00000
vn -0.72789 -0.68569 -0.00000
vn -0.71390 0.68570 0.14200
vn -0.71390 -0.68570 0.14200
vn -0.67250 0.68570 0.27850
vn -0.67250 -0.68570 0.27850
vn -0.60520 0.68570 0.40440
vn -0.60520 -0.68570 0.40440
vn -0.51470 0.68569 0.51470
vn -0.51470 -0.68569 0.51470
vn -0.40440 0.68570 0.60520
vn -0.40440 -0.68570 0.60520
vn -0.27850 0.68570 0.67250
vn -0.27850 -0.68570 0.67250
vn -0.14200 0.68570 0.71390
vn -0.14200 -0.68570 0.71390
vn -0.90901 0.20307 -0.36395
vn 0.27864 0.88876 -0.36395
vn -0.86746 0.13109 -0.47993
vn 0.32021 0.81679 -0.47993
vn -0.81541 0.04093 -0.57744
vn 0.37226 0.72663 -0.57744
vn -0.75480 -0.06406 -0.65282
vn 0.43288 0.62164 -0.65282
vn -0.68802 -0.17970 -0.70309
vn 0.49963 0.50600 -0.70309
vn -0.61765 -0.30161 -0.72632
vn 0.57003 0.38409 -0.72632
vn -0.54630 -0.42518 -0.72165
vn 0.64136 0.26052 -0.72165
vn -0.47685 -0.54548 -0.68925
vn 0.71082 0.14022 -0.68926
vn -0.41185 -0.65803 -0.63037
vn 0.77580 0.02766 -0.63037
vn -0.35387 -0.75848 -0.54726
vn 0.83380 -0.07278 -0.54726
vn -0.30511 -0.84292 -0.44315
vn 0.88255 -0.15723 -0.44315
vn -0.26742 -0.90821 -0.32192
vn 0.92025 -0.22251 -0.32192
vn -0.24228 -0.95174 -0.18839
vn 0.94537 -0.26604 -0.18839
vn -0.23068 -0.97186 -0.04762
vn 0.95700 -0.28616 -0.04762
vn -0.23301 -0.96782 0.09506
vn 0.95466 -0.28212 0.09506
vn -0.24921 -0.93976 0.23397
vn 0.93846 -0.25406 0.23397
vn -0.27864 -0.88876 0.36395
vn 0.90901 -0.20307 0.36395
vn -0.32021 -0.81679 0.47993
vn 0.86746 -0.13109 0.47993
vn -0.37226 -0.72663 0.57744
vn 0.81541 -0.04093 0.57744
vn -0.43288 -0.62164 0.65282
vn 0.75480 0.06406 0.65282
vn -0.49963 -0.50600 0.70309
vn 0.68802 0.17970 0.70309
vn -0.57003 -0.38409 0.72632
vn 0.61765 0.30161 0.72632
vn -0.64136 -0.26052 0.72165
vn 0.54630 0.42518 0.72165
vn -0.71082 -0.14022 0.68926
vn 0.47685 0.54548 0.68925
vn -0.77580 -0.02766 0.63037
vn 0.41185 0.65803 0.63037
vn -0.83380 0.07278 0.54726
vn 0.35387 0.75848 0.54726
vn -0.88255 0.15723 0.44315
vn 0.30511 0.84292 0.44315
vn -0.92025 0.22251 0.32192
vn 0.26742 0.90821 0.32192
vn -0.94537 0.26604 0.18839
vn 0.24228 0.95174 0.18839
vn -0.95700 0.28616 0.04762
vn 0.23068 0.97186 0.04762
vn -0.95466 0.28212 -0.09506
vn 0.23301 0.96782 -0.09506
vn -0.93846 0.25406 -0.23397
vn 0.24921 0.93976 -0.23397
usemtl WF_Jacket
f 1//1 2//2 4//4
f 1//1 4//4 3//3
f 3//3 4//4 6//6
f 3//3 6//6 5//5
f 5//5 6//6 8//8
f 5//5 8//8 7//7
f 7//7 8//8 10//10
f 7//7 10//10 9//9
f 9//9 10//10 12//12
f 9//9 12//12 11//11
f 11//11 12//12 14//14
f 11//11 14//14 13//13
f 13//13 14//14 16//16
f 13//13 16//16 15//15
f 15//15 16//16 18//18
f 15//15 18//18 17//17
f 17//17 18//18 20//20
f 17//17 20//20 19//19
f 19//19 20//20 22//22
f 19//19 22//22 21//21
f 21//21 22//22 24//24
f 21//21 24//24 23//23
f 23//23 24//24 26//26
f 23//23 26//26 25//25
f 25//25 26//26 28//28
f 25//25 28//28 27//27
f 27//27 28//28 30//30
f 27//27 30//30 29//29
f 29//29 30//30 32//32
f 29//29 32//32 31//31
f 31//31 32//32 34//34
f 31//31 34//34 33//33
f 33//33 34//34 36//36
f 33//33 36//36 35//35
f 35//35 36//36 38//38
f 35//35 38//38 37//37
f 37//37 38//38 40//40
f 37//37 40//40 39//39
f 39//39 40//40 42//42
f 39//39 42//42 41//41
f 41//41 42//42 44//44
f 41//41 44//44 43//43
f 43//43 44//44 46//46
f 43//43 46//46 45//45
f 6//6 4//4 2//2
f 2//2 48//48 46//46
f 46//46 44//44 42//42
f 42//42 40//40 38//38
f 38//38 36//36 34//34
f 34//34 32//32 30//30
f 30//30 28//28 26//26
f 26//26 24//24 22//22
f 22//22 20//20 18//18
f 18//18 16//16 14//14
f 14//14 12//12 10//10
f 10//10 8//8 6//6
f 6//6 2//2 46//46
f 46//46 42//42 38//38
f 38//38 34//34 30//30
f 30//30 26//26 22//22
f 22//22 18//18 14//14
f 14//14 10//10 6//6
f 6//6 46//46 38//38
f 38//38 30//30 22//22
f 22//22 14//14 6//6
f 38//38 22//22 6//6
f 45//45 46//46 48//48
f 45//45 48//48 47//47
f 47//47 48//48 2//2
f 47//47 2//2 1//1
f 47//47 1//1 3//3
f 3//3 5//5 7//7
f 7//7 9//9 11//11
f 11//11 13//13 15//15
f 15//15 17//17 19//19
f 19//19 21//21 23//23
f 23//23 25//25 27//27
f 27//27 29//29 31//31
f 31//31 33//33 35//35
f 35//35 37//37 39//39
f 39//39 41//41 43//43
f 43//43 45//45 47//47
f 47//47 3//3 7//7
f 7//7 11//11 15//15
f 15//15 19//19 23//23
f 23//23 27//27 31//31
f 31//31 35//35 39//39
f 39//39 43//43 47//47
f 47//47 7//7 15//15
f 15//15 23//23 31//31
f 31//31 39//39 47//47
f 15//15 31//31 47//47
f 49//49 50//50 52//52
f 49//49 52//52 51//51
f 51//51 52//52 54//54
f 51//51 54//54 53//53
f 53//53 54//54 56//56
f 53//53 56//56 55//55
f 55//55 56//56 58//58
f 55//55 58//58 57//57
f 57//57 58//58 60//60
f 57//57 60//60 59//59
f 59//59 60//60 62//62
f 59//59 62//62 61//61
f 61//61 62//62 64//64
f 61//61 64//64 63//63
f 63//63 64//64 66//66
f 63//63 66//66 65//65
f 65//65 66//66 68//68
f 65//65 68//68 67//67
f 67//67 68//68 70//70
f 67//67 70//70 69//69
f 69//69 70//70 72//72
f 69//69 72//72 71//71
f 71//71 72//72 74//74
f 71//71 74//74 73//73
f 73//73 74//74 76//76
f 73//73 76//76 75//75
f 75//75 76//76 78//78
f 75//75 78//78 77//77
f 77//77 78//78 80//80
f 77//77 80//80 79//79
f 79//79 80//80 82//82
f 79//79 82//82 81//81
f 81//81 82//82 84//84
f 81//81 84//84 83//83
f 83//83 84//84 86//86
f 83//83 86//86 85//85
f 85//85 86//86 88//88
f 85//85 88//88 87//87
f 87//87 88//88 90//90
f 87//87 90//90 89//89
f 89//89 90//90 92//92
f 89//89 92//92 91//91
f 91//91 92//92 94//94
f 91//91 94//94 93//93
f 54//54 52//52 50//50
f 50//50 96//96 94//94
f 94//94 92//92 90//90
f 90//90 88//88 86//86
f 86//86 84//84 82//82
f 82//82 80//80 78//78
f 78//78 76//76 74//74
f 74//74 72//72 70//70
f 70//70 68//68 66//66
f 66//66 64//64 62//62
f 62//62 60//60 58//58
f 58//58 56//56 54//54
f 54//54 50//50 94//94
f 94//94 90//90 86//86
f 86//86 82//82 78//78
f 78//78 74//74 70//70
f 70//70 66//66 62//62
f 62//62 58//58 54//54
f 54//54 94//94 86//86
f 86//86 78//78 70//70
f 70//70 62//62 54//54
f 86//86 70//70 54//54
f 93//93 94//94 96//96
f 93//93 96//96 95//95
f 95//95 96//96 50//50
f 95//95 50//50 49//49
f 95//95 49//49 51//51
f 51//51 53//53 55//55
f 55//55 57//57 59//59
f 59//59 61//61 63//63
f 63//63 65//65 67//67
f 67//67 69//69 71//71
f 71//71 73//73 75//75
f 75//75 77//77 79//79
f 79//79 81//81 83//83
f 83//83 85//85 87//87
f 87//87 89//89 91//91
f 91//91 93//93 95//95
f 95//95 51//51 55//55
f 55//55 59//59 63//63
f 63//63 67//67 71//71
f 71//71 75//75 79//79
f 79//79 83//83 87//87
f 87//87 91//91 95//95
f 95//95 55//55 63//63
f 63//63 71//71 79//79
f 79//79 87//87 95//95
f 63//63 79//79 95//95
f 97//97 98//98 100//100
f 97//97 100//100 99//99
f 99//99 100//100 102//102
f 99//99 102//102 101//101
f 101//101 102//102 104//104
f 101//101 104//104 103//103
f 103//103 104//104 106//106
f 103//103 106//106 105//105
f 105//105 106//106 108//108
f 105//105 108//108 107//107
f 107//107 108//108 110//110
f 107//107 110//110 109//109
f 109//109 110//110 112//112
f 109//109 112//112 111//111
f 111//111 112//112 114//114
f 111//111 114//114 113//113
f 113//113 114//114 116//116
f 113//113 116//116 115//115
f 115//115 116//116 118//118
f 115//115 118//118 117//117
f 117//117 118//118 120//120
f 117//117 120//120 119//119
f 119//119 120//120 122//122
f 119//119 122//122 121//121
f 121//121 122//122 124//124
f 121//121 124//124 123//123
f 123//123 124//124 126//126
f 123//123 126//126 125//125
f 125//125 126//126 128//128
f 125//125 128//128 127//127
f 127//127 128//128 130//130
f 127//127 130//130 129//129
f 129//129 130//130 132//132
f 129//129 132//132 131//131
f 131//131 132//132 134//134
f 131//131 134//134 133//133
f 133//133 134//134 136//136
f 133//133 136//136 135//135
f 135//135 136//136 138//138
f 135//135 138//138 137//137
f 137//137 138//138 140//140
f 137//137 140//140 139//139
f 139//139 140//140 142//142
f 139//139 142//142 141//141
f 102//102 100//100 98//98
f 98//98 144//144 142//142
f 142//142 140//140 138//138
f 138//138 136//136 134//134
f 134//134 132//132 130//130
f 130//130 128//128 126//126
f 126//126 124//124 122//122
f 122//122 120//120 118//118
f 118//118 116//116 114//114
f 114//114 112//112 110//110
f 110//110 108//108 106//106
f 106//106 104//104 102//102
f 102//102 98//98 142//142
f 142//142 138//138 134//134
f 134//134 130//130 126//126
f 126//126 122//122 118//118
f 118//118 114//114 110//110
f 110//110 106//106 102//102
f 102//102 142//142 134//134
f 134//134 126//126 118//118
f 118//118 110//110 102//102
f 134//134 118//118 102//102
f 141//141 142//142 144//144
f 141//141 144//144 143//143
f 143//143 144//144 98//98
f 143//143 98//98 97//97
f 143//143 97//97 99//99
f 99//99 101//101 103//103
f 103//103 105//105 107//107
f 107//107 109//109 111//111
f 111//111 113//113 115//115
f 115//115 117//117 119//119
f 119//119 121//121 123//123
f 123//123 125//125 127//127
f 127//127 129//129 131//131
f 131//131 133//133 135//135
f 135//135 137//137 139//139
f 139//139 141//141 143//143
f 143//143 99//99 103//103
f 103//103 107//107 111//111
f 111//111 115//115 119//119
f 119//119 123//123 127//127
f 127//127 131//131 135//135
f 135//135 139//139 143//143
f 143//143 103//103 111//111
f 111//111 119//119 127//127
f 127//127 135//135 143//143
f 111//111 127//127 143//143
f 145//145 146//146 148//148
f 145//145 148//148 147//147
f 147//147 148//148 150//150
f 147//147 150//150 149//149
f 149//149 150//150 152//152
f 149//149 152//152 151//151
f 151//151 152//152 154//154
f 151//151 154//154 153//153
f 153//153 154//154 156//156
f 153//153 156//156 155//155
f 155//155 156//156 158//158
f 155//155 158//158 157//157
f 157//157 158//158 160//160
f 157//157 160//160 159//159
f 159//159 160//160 162//162
f 159//159 162//162 161//161
f 161//161 162//162 164//164
f 161//161 164//164 163//163
f 163//163 164//164 166//166
f 163//163 166//166 165//165
f 165//165 166//166 168//168
f 165//165 168//168 167//167
f 167//167 168//168 170//170
f 167//167 170//170 169//169
f 169//169 170//170 172//172
f 169//169 172//172 171//171
f 171//171 172//172 174//174
f 171//171 174//174 173//173
f 173//173 174//174 176//176
f 173//173 176//176 175//175
f 175//175 176//176 178//178
f 175//175 178//178 177//177
f 177//177 178//178 180//180
f 177//177 180//180 179//179
f 179//179 180//180 182//182
f 179//179 182//182 181//181
f 181//181 182//182 184//184
f 181//181 184//184 183//183
f 183//183 184//184 186//186
f 183//183 186//186 185//185
f 185//185 186//186 188//188
f 185//185 188//188 187//187
f 187//187 188//188 190//190
f 187//187 190//190 189//189
f 150//150 148//148 146//146
f 146//146 192//192 190//190
f 190//190 188//188 186//186
f 186//186 184//184 182//182
f 182//182 180//180 178//178
f 178//178 176//176 174//174
f 174//174 172//172 170//170
f 170//170 168//168 166//166
f 166//166 164//164 162//162
f 162//162 160//160 158//158
f 158//158 156//156 154//154
f 154//154 152//152 150//150
f 150//150 146//146 190//190
f 190//190 186//186 182//182
f 182//182 178//178 174//174
f 174//174 170//170 166//166
f 166//166 162//162 158//158
f 158//158 154//154 150//150
f 150//150 190//190 182//182
f 182//182 174//174 166//166
f 166//166 158//158 150//150
f 182//182 166//166 150//150
f 189//189 190//190 192//192
f 189//189 192//192 191//191
f 191//191 192//192 146//146
f 191//191 146//146 145//145
f 191//191 145//145 147//147
f 147//147 149//149 151//151
f 151//151 153//153 155//155
f 155//155 157//157 159//159
f 159//159 161//161 163//163
f 163//163 165//165 167//167
f 167//167 169//169 171//171
f 171//171 173//173 175//175
f 175//175 177//177 179//179
f 179//179 181//181 183//183
f 183//183 185//185 187//187
f 187//187 189//189 191//191
f 191//191 147//147 151//151
f 151//151 155//155 159//159
f 159//159 163//163 167//167
f 167//167 171//171 175//175
f 175//175 179//179 183//183
f 183//183 187//187 191//191
f 191//191 151//151 159//159
f 159//159 167//167 175//175
f 175//175 183//183 191//191
f 159//159 175//175 191//191
f 193//193 194//194 196//196
f 193//193 196//196 195//195
f 195//195 196//196 198//198
f 195//195 198//198 197//197
f 197//197 198//198 200//200
f 197//197 200//200 199//199
f 199//199 200//200 202//202
f 199//199 202//202 201//201
f 201//201 202//202 204//204
f 201//201 204//204 203//203
f 203//203 204//204 206//206
f 203//203 206//206 205//205
f 205//205 206//206 208//208
f 205//205 208//208 207//207
f 207//207 208//208 210//210
f 207//207 210//210 209//209
f 209//209 210//210 212//212
f 209//209 212//212 211//211
f 211//211 212//212 214//214
f 211//211 214//214 213//213
f 213//213 214//214 216//216
f 213//213 216//216 215//215
f 215//215 216//216 218//218
f 215//215 218//218 217//217
f 217//217 218//218 220//220
f 217//217 220//220 219//219
f 219//219 220//220 222//222
f 219//219 222//222 221//221
f 221//221 222//222 224//224
f 221//221 224//224 223//223
f 223//223 224//224 226//226
f 223//223 226//226 225//225
f 225//225 226//226 228//228
f 225//225 228//228 227//227
f 227//227 228//228 230//230
f 227//227 230//230 229//229
f 229//229 230//230 232//232
f 229//229 232//232 231//231
f 231//231 232//232 234//234
f 231//231 234//234 233//233
f 233//233 234//234 236//236
f 233//233 236//236 235//235
f 235//235 236//236 238//238
f 235//235 238//238 237//237
f 198//198 196//196 194//194
f 194//194 240//240 238//238
f 238//238 236//236 234//234
f 234//234 232//232 230//230
f 230//230 228//228 226//226
f 226//226 224//224 222//222
f 222//222 220//220 218//218
f 218//218 216//216 214//214
f 214//214 212//212 210//210
f 210//210 208//208 206//206
f 206//206 204//204 202//202
f 202//202 200//200 198//198
f 198//198 194//194 238//238
f 238//238 234//234 230//230
f 230//230 226//226 222//222
f 222//222 218//218 214//214
f 214//214 210//210 206//206
f 206//206 202//202 198//198
f 198//198 238//238 230//230
f 230//230 222//222 214//214
f 214//214 206//206 198//198
f 230//230 214//214 198//198
f 237//237 238//238 240//240
f 237//237 240//240 239//239
f 239//239 240//240 194//194
f 239//239 194//194 193//193
f 239//239 193//193 195//195
f 195//195 197//197 199//199
f 199//199 201//201 203//203
f 203//203 205//205 207//207
f 207//207 209//209 211//211
f 211//211 213//213 215//215
f 215//215 217//217 219//219
f 219//219 221//221 223//223
f 223//223 225//225 227//227
f 227//227 229//229 231//231
f 231//231 233//233 235//235
f 235//235 237//237 239//239
f 239//239 195//195 199//199
f 199//199 203//203 207//207
f 207//207 211//211 215//215
f 215//215 219//219 223//223
f 223//223 227//227 231//231
f 231//231 235//235 239//239
f 239//239 199//199 207//207
f 207//207 215//215 223//223
f 223//223 231//231 239//239
f 207//207 223//223 239//239
f 241//241 242//242 244//244
f 241//241 244//244 243//243
f 243//243 244//244 246//246
f 243//243 246//246 245//245
f 245//245 246//246 248//248
f 245//245 248//248 247//247
f 247//247 248//248 250//250
f 247//247 250//250 249//249
f 249//249 250//250 252//252
f 249//249 252//252 251//251
f 251//251 252//252 254//254
f 251//251 254//254 253//253
f 253//253 254//254 256//256
f 253//253 256//256 255//255
f 255//255 256//256 258//258
f 255//255 258//258 257//257
f 257//257 258//258 260//260
f 257//257 260//260 259//259
f 259//259 260//260 262//262
f 259//259 262//262 261//261
f 261//261 262//262 264//264
f 261//261 264//264 263//263
f 263//263 264//264 266//266
f 263//263 266//266 265//265
f 265//265 266//266 268//268
f 265//265 268//268 267//267
f 267//267 268//268 270//270
f 267//267 270//270 269//269
f 269//269 270//270 272//272
f 269//269 272//272 271//271
f 271//271 272//272 274//274
f 271//271 274//274 273//273
f 273//273 274//274 276//276
f 273//273 276//276 275//275
f 275//275 276//276 278//278
f 275//275 278//278 277//277
f 277//277 278//278 280//280
f 277//277 280//280 279//279
f 279//279 280//280 282//282
f 279//279 282//282 281//281
f 281//281 282//282 284//284
f 281//281 284//284 283//283
f 283//283 284//284 286//286
f 283//283 286//286 285//285
f 246//246 244//244 242//242
f 242//242 288//288 286//286
f 286//286 284//284 282//282
f 282//282 280//280 278//278
f 278//278 276//276 274//274
f 274//274 272//272 270//270
f 270//270 268//268 266//266
f 266//266 264//264 262//262
f 262//262 260//260 258//258
f 258//258 256//256 254//254
f 254//254 252//252 250//250
f 250//250 248//248 246//246
f 246//246 242//242 286//286
f 286//286 282//282 278//278
f 278//278 274//274 270//270
f 270//270 266//266 262//262
f 262//262 258//258 254//254
f 254//254 250//250 246//246
f 246//246 286//286 278//278
f 278//278 270//270 262//262
f 262//262 254//254 246//246
f 278//278 262//262 246//246
f 285//285 286//286 288//288
f 285//285 288//288 287//287
f 287//287 288//288 242//242
f 287//287 242//242 241//241
f 287//287 241//241 243//243
f 243//243 245//245 247//247
f 247//247 249//249 251//251
f 251//251 253//253 255//255
f 255//255 257//257 259//259
f 259//259 261//261 263//263
f 263//263 265//265 267//267
f 267//267 269//269 271//271
f 271//271 273//273 275//275
f 275//275 277//277 279//279
f 279//279 281//281 283//283
f 283//283 285//285 287//287
f 287//287 243//243 247//247
f 247//247 251//251 255//255
f 255//255 259//259 263//263
f 263//263 267//267 271//271
f 271//271 275//275 279//279
f 279//279 283//283 287//287
f 287//287 247//247 255//255
f 255//255 263//263 271//271
f 271//271 279//279 287//287
f 255//255 271//271 287//287
f 289//289 290//290 292//292
f 289//289 292//292 291//291
f 291//291 292//292 294//294
f 291//291 294//294 293//293
f 293//293 294//294 296//296
f 293//293 296//296 295//295
f 295//295 296//296 298//298
f 295//295 298//298 297//297
f 297//297 298//298 300//300
f 297//297 300//300 299//299
f 299//299 300//300 302//302
f 299//299 302//302 301//301
f 301//301 302//302 304//304
f 301//301 304//304 303//303
f 303//303 304//304 306//306
f 303//303 306//306 305//305
f 305//305 306//306 308//308
f 305//305 308//308 307//307
f 307//307 308//308 310//310
f 307//307 310//310 309//309
f 309//309 310//310 312//312
f 309//309 312//312 311//311
f 311//311 312//312 314//314
f 311//311 314//314 313//313
f 313//313 314//314 316//316
f 313//313 316//316 315//315
f 315//315 316//316 318//318
f 315//315 318//318 317//317
f 317//317 318//318 320//320
f 317//317 320//320 319//319
f 319//319 320//320 322//322
f 319//319 322//322 321//321
f 321//321 322//322 324//324
f 321//321 324//324 323//323
f 323//323 324//324 326//326
f 323//323 326//326 325//325
f 325//325 326//326 328//328
f 325//325 328//328 327//327
f 327//327 328//328 330//330
f 327//327 330//330 329//329
f 329//329 330//330 332//332
f 329//329 332//332 331//331
f 331//331 332//332 334//334
f 331//331 334//334 333//333
f 333//333 334//334 336//336
f 333//333 336//336 335//335
f 335//335 336//336 338//338
f 335//335 338//338 337//337
f 337//337 338//338 340//340
f 337//337 340//340 339//339
f 339//339 340//340 342//342
f 339//339 342//342 341//341
f 341//341 342//342 344//344
f 341//341 344//344 343//343
f 343//343 344//344 346//346
f 343//343 346//346 345//345
f 345//345 346//346 348//348
f 345//345 348//348 347//347
f 347//347 348//348 350//350
f 347//347 350//350 349//349
f 294//294 292//292 290//290
f 290//290 352//352 350//350
f 350//350 348//348 346//346
f 346//346 344//344 342//342
f 342//342 340//340 338//338
f 338//338 336//336 334//334
f 334//334 332//332 330//330
f 330//330 328//328 326//326
f 326//326 324//324 322//322
f 322//322 320//320 318//318
f 318//318 316//316 314//314
f 314//314 312//312 310//310
f 310//310 308//308 306//306
f 306//306 304//304 302//302
f 302//302 300//300 298//298
f 298//298 296//296 294//294
f 294//294 290//290 350//350
f 350//350 346//346 342//342
f 342//342 338//338 334//334
f 334//334 330//330 326//326
f 326//326 322//322 318//318
f 318//318 314//314 310//310
f 310//310 306//306 302//302
f 302//302 298//298 294//294
f 294//294 350//350 342//342
f 342//342 334//334 326//326
f 326//326 318//318 310//310
f 310//310 302//302 294//294
f 294//294 342//342 326//326
f 326//326 310//310 294//294
f 349//349 350//350 352//352
f 349//349 352//352 351//351
f 351//351 352//352 290//290
f 351//351 290//290 289//289
f 351//351 289//289 291//291
f 291//291 293//293 295//295
f 295//295 297//297 299//299
f 299//299 301//301 303//303
f 303//303 305//305 307//307
f 307//307 309//309 311//311
f 311//311 313//313 315//315
f 315//315 317//317 319//319
f 319//319 321//321 323//323
f 323//323 325//325 327//327
f 327//327 329//329 331//331
f 331//331 333//333 335//335
f 335//335 337//337 339//339
f 339//339 341//341 343//343
f 343//343 345//345 347//347
f 347//347 349//349 351//351
f 351//351 291//291 295//295
f 295//295 299//299 303//303
f 303//303 307//307 311//311
f 311//311 315//315 319//319
f 319//319 323//323 327//327
f 327//327 331//331 335//335
f 335//335 339//339 343//343
f 343//343 347//347 351//351
f 351//351 295//295 303//303
f 303//303 311//311 319//319
f 319//319 327//327 335//335
f 335//335 343//343 351//351
f 351//351 303//303 319//319
f 319//319 335//335 351//351
f 353//353 354//354 356//356
f 353//353 356//356 355//355
f 355//355 356//356 358//358
f 355//355 358//358 357//357
f 357//357 358//358 360//360
f 357//357 360//360 359//359
f 359//359 360//360 362//362
f 359//359 362//362 361//361
f 361//361 362//362 364//364
f 361//361 364//364 363//363
f 363//363 364//364 366//366
f 363//363 366//366 365//365
f 365//365 366//366 368//368
f 365//365 368//368 367//367
f 367//367 368//368 370//370
f 367//367 370//370 369//369
f 369//369 370//370 372//372
f 369//369 372//372 371//371
f 371//371 372//372 374//374
f 371//371 374//374 373//373
f 373//373 374//374 376//376
f 373//373 376//376 375//375
f 375//375 376//376 378//378
f 375//375 378//378 377//377
f 377//377 378//378 380//380
f 377//377 380//380 379//379
f 379//379 380//380 382//382
f 379//379 382//382 381//381
f 381//381 382//382 384//384
f 381//381 384//384 383//383
f 383//383 384//384 386//386
f 383//383 386//386 385//385
f 385//385 386//386 388//388
f 385//385 388//388 387//387
f 387//387 388//388 390//390
f 387//387 390//390 389//389
f 389//389 390//390 392//392
f 389//389 392//392 391//391
f 391//391 392//392 394//394
f 391//391 394//394 393//393
f 393//393 394//394 396//396
f 393//393 396//396 395//395
f 395//395 396//396 398//398
f 395//395 398//398 397//397
f 397//397 398//398 400//400
f 397//397 400//400 399//399
f 399//399 400//400 402//402
f 399//399 402//402 401//401
f 401//401 402//402 404//404
f 401//401 404//404 403//403
f 403//403 404//404 406//406
f 403//403 406//406 405//405
f 405//405 406//406 408//408
f 405//405 408//408 407//407
f 407//407 408//408 410//410
f 407//407 410//410 409//409
f 409//409 410//410 412//412
f 409//409 412//412 411//411
f 411//411 412//412 414//414
f 411//411 414//414 413//413
f 358//358 356//356 354//354
f 354//354 416//416 414//414
f 414//414 412//412 410//410
f 410//410 408//408 406//406
f 406//406 404//404 402//402
f 402//402 400//400 398//398
f 398//398 396//396 394//394
f 394//394 392//392 390//390
f 390//390 388//388 386//386
f 386//386 384//384 382//382
f 382//382 380//380 378//378
f 378//378 376//376 374//374
f 374//374 372//372 370//370
f 370//370 368//368 366//366
f 366//366 364//364 362//362
f 362//362 360//360 358//358
f 358//358 354//354 414//414
f 414//414 410//410 406//406
f 406//406 402//402 398//398
f 398//398 394//394 390//390
f 390//390 386//386 382//382
f 382//382 378//378 374//374
f 374//374 370//370 366//366
f 366//366 362//362 358//358
f 358//358 414//414 406//406
f 406//406 398//398 390//390
f 390//390 382//382 374//374
f 374//374 366//366 358//358
f 358//358 406//406 390//390
f 390//390 374//374 358//358
f 413//413 414//414 416//416
f 413//413 416//416 415//415
f 415//415 416//416 354//354
f 415//415 354//354 353//353
f 415//415 353//353 355//355
f 355//355 357//357 359//359
f 359//359 361//361 363//363
f 363//363 365//365 367//367
f 367//367 369//369 371//371
f 371//371 373//373 375//375
f 375//375 377//377 379//379
f 379//379 381//381 383//383
f 383//383 385//385 387//387
f 387//387 389//389 391//391
f 391//391 393//393 395//395
f 395//395 397//397 399//399
f 399//399 401//401 403//403
f 403//403 405//405 407//407
f 407//407 409//409 411//411
f 411//411 413//413 415//415
f 415//415 355//355 359//359
f 359//359 363//363 367//367
f 367//367 371//371 375//375
f 375//375 379//379 383//383
f 383//383 387//387 391//391
f 391//391 395//395 399//399
f 399//399 403//403 407//407
f 407//407 411//411 415//415
f 415//415 359//359 367//367
f 367//367 375//375 383//383
f 383//383 391//391 399//399
f 399//399 407//407 415//415
f 415//415 367//367 383//383
f 383//383 399//399 415//415
f 417//417 418//418 420//420
f 417//417 420//420 419//419
f 419//419 420//420 422//422
f 419//419 422//422 421//421
f 421//421 422//422 424//424
f 421//421 424//424 423//423
f 423//423 424//424 426//426
f 423//423 426//426 425//425
f 425//425 426//426 428//428
f 425//425 428//428 427//427
f 427//427 428//428 430//430
f 427//427 430//430 429//429
f 429//429 430//430 432//432
f 429//429 432//432 431//431
f 431//431 432//432 434//434
f 431//431 434//434 433//433
f 433//433 434//434 436//436
f 433//433 436//436 435//435
f 435//435 436//436 438//438
f 435//435 438//438 437//437
f 437//437 438//438 440//440
f 437//437 440//440 439//439
f 439//439 440//440 442//442
f 439//439 442//442 441//441
f 441//441 442//442 444//444
f 441//441 444//444 443//443
f 443//443 444//444 446//446
f 443//443 446//446 445//445
f 445//445 446//446 448//448
f 445//445 448//448 447//447
f 447//447 448//448 450//450
f 447//447 450//450 449//449
f 449//449 450//450 452//452
f 449//449 452//452 451//451
f 451//451 452//452 454//454
f 451//451 454//454 453//453
f 453//453 454//454 456//456
f 453//453 456//456 455//455
f 455//455 456//456 458//458
f 455//455 458//458 457//457
f 457//457 458//458 460//460
f 457//457 460//460 459//459
f 459//459 460//460 462//462
f 459//459 462//462 461//461
f 461//461 462//462 464//464
f 461//461 464//464 463//463
f 463//463 464//464 466//466
f 463//463 466//466 465//465
f 465//465 466//466 468//468
f 465//465 468//468 467//467
f 467//467 468//468 470//470
f 467//467 470//470 469//469
f 469//469 470//470 472//472
f 469//469 472//472 471//471
f 471//471 472//472 474//474
f 471//471 474//474 473//473
f 473//473 474//474 476//476
f 473//473 476//476 475//475
f 475//475 476//476 478//478
f 475//475 478//478 477//477
f 422//422 420//420 418//418
f 418//418 480//480 478//478
f 478//478 476//476 474//474
f 474//474 472//472 470//470
f 470//470 468//468 466//466
f 466//466 464//464 462//462
f 462//462 460//460 458//458
f 458//458 456//456 454//454
f 454//454 452//452 450//450
f 450//450 448//448 446//446
f 446//446 444//444 442//442
f 442//442 440//440 438//438
f 438//438 436//436 434//434
f 434//434 432//432 430//430
f 430//430 428//428 426//426
f 426//426 424//424 422//422
f 422//422 418//418 478//478
f 478//478 474//474 470//470
f 470//470 466//466 462//462
f 462//462 458//458 454//454
f 454//454 450//450 446//446
f 446//446 442//442 438//438
f 438//438 434//434 430//430
f 430//430 426//426 422//422
f 422//422 478//478 470//470
f 470//470 462//462 454//454
f 454//454 446//446 438//438
f 438//438 430//430 422//422
f 422//422 470//470 454//454
f 454//454 438//438 422//422
f 477//477 478//478 480//480
f 477//477 480//480 479//479
f 479//479 480//480 418//418
f 479//479 418//418 417//417
f 479//479 417//417 419//419
f 419//419 421//421 423//423
f 423//423 425//425 427//427
f 427//427 429//429 431//431
f 431//431 433//433 435//435
f 435//435 437//437 439//439
f 439//439 441//441 443//443
f 443//443 445//445 447//447
f 447//447 449//449 451//451
f 451//451 453//453 455//455
f 455//455 457//457 459//459
f 459//459 461//461 463//463
f 463//463 465//465 467//467
f 467//467 469//469 471//471
f 471//471 473//473 475//475
f 475//475 477//477 479//479
f 479//479 419//419 423//423
f 423//423 427//427 431//431
f 431//431 435//435 439//439
f 439//439 443//443 447//447
f 447//447 451//451 455//455
f 455//455 459//459 463//463
f 463//463 467//467 471//471
f 471//471 475//475 479//479
f 479//479 423//423 431//431
f 431//431 439//439 447//447
f 447//447 455//455 463//463
f 463//463 471//471 479//479
f 479//479 431//431 447//447
f 447//447 463//463 479//479
