mtllib nacelle.mtl
o nacelle
v -12.00000 -2.75000 -0.55000
v -12.00000 -2.75000 -0.55000
v -12.00000 -2.75000 -0.55000
v -12.00000 -2.75000 4.95000
v -12.00000 -2.75000 4.95000
v -12.00000 -2.75000 4.95000
v -12.00000 2.75000 -0.55000
v -12.00000 2.75000 -0.55000
v -12.00000 2.75000 -0.55000
v -12.00000 2.75000 4.95000
v -12.00000 2.75000 4.95000
v -12.00000 2.75000 4.95000
v 5.00000 -2.75000 -0.55000
v 5.00000 -2.75000 -0.55000
v 5.00000 -2.75000 -0.55000
v 5.00000 -2.75000 4.95000
v 5.00000 -2.75000 4.95000
v 5.00000 -2.75000 4.95000
v 5.00000 2.75000 -0.55000
v 5.00000 2.75000 -0.55000
v 5.00000 2.75000 -0.55000
v 5.00000 2.75000 4.95000
v 5.00000 2.75000 4.95000
v 5.00000 2.75000 4.95000
v 0.00000 2.60000 -0.50000
v 0.00000 2.60000 0.70000
v 0.33937 2.57776 -0.50000
v 0.33937 2.57776 0.70000
v 0.67293 2.51141 -0.50000
v 0.67293 2.51141 0.70000
v 0.99498 2.40209 -0.50000
v 0.99498 2.40209 0.70000
v 1.30000 2.25167 -0.50000
v 1.30000 2.25167 0.70000
v 1.58278 2.06272 -0.50000
v 1.58278 2.06272 0.70000
v 1.83848 1.83848 -0.50000
v 1.83848 1.83848 0.70000
v 2.06272 1.58278 -0.50000
v 2.06272 1.58278 0.70000
v 2.25167 1.30000 -0.50000
v 2.25167 1.30000 0.70000
v 2.40209 0.99498 -0.50000
v 2.40209 0.99498 0.70000
v 2.51141 0.67293 -0.50000
v 2.51141 0.67293 0.70000
v 2.57776 0.33937 -0.50000
v 2.57776 0.33937 0.70000
v 2.60000 0.00000 -0.50000
v 2.60000 0.00000 0.70000
v 2.57776 -0.33937 -0.50000
v 2.57776 -0.33937 0.70000
v 2.51141 -0.67293 -0.50000
v 2.51141 -0.67293 0.70000
v 2.40209 -0.99498 -0.50000
v 2.40209 -0.99498 0.70000
v 2.25167 -1.30000 -0.50000
v 2.25167 -1.30000 0.70000
v 2.06272 -1.58278 -0.50000
v 2.06272 -1.58278 0.70000
v 1.83848 -1.83848 -0.50000
v 1.83848 -1.83848 0.70000
v 1.58278 -2.06272 -0.50000
v 1.58278 -2.06272 0.70000
v 1.30000 -2.25167 -0.50000
v 1.30000 -2.25167 0.70000
v 0.99498 -2.40209 -0.50000
v 0.99498 -2.40209 0.70000
v 0.67293 -2.51141 -0.50000
v 0.67293 -2.51141 0.70000
v 0.33937 -2.57776 -0.50000
v 0.33937 -2.57776 0.70000
v 0.00000 -2.60000 -0.50000
v 0.00000 -2.60000 0.70000
v -0.33937 -2.57776 -0.50000
v -0.33937 -2.57776 0.70000
v -0.67293 -2.51141 -0.50000
v -0.67293 -2.51141 0.70000
v -0.99498 -2.40209 -0.50000
v -0.99498 -2.40209 0.70000
v -1.30000 -2.25167 -0.50000
v -1.30000 -2.25167 0.70000
v -1.58278 -2.06272 -0.50000
v -1.58278 -2.06272 0.70000
v -1.83848 -1.83848 -0.50000
v -1.83848 -1.83848 0.70000
v -2.06272 -1.58278 -0.50000
v -2.06272 -1.58278 0.70000
v -2.25167 -1.30000 -0.50000
v -2.25167 -1.30000 0.70000
v -2.40209 -0.99498 -0.50000
v -2.40209 -0.99498 0.70000
v -2.51141 -0.67293 -0.50000
v -2.51141 -0.67293 0.70000
v -2.57776 -0.33937 -0.50000
v -2.57776 -0.33937 0.70000
v -2.60000 0.00000 -0.50000
v -2.60000 0.00000 0.70000
v -2.57776 0.33937 -0.50000
v -2.57776 0.33937 0.70000
v -2.51141 0.67293 -0.50000
v -2.51141 0.67293 0.70000
v -2.40209 0.99498 -0.50000
v -2.40209 0.99498 0.70000
v -2.25167 1.30000 -0.50000
v -2.25167 1.30000 0.70000
v -2.06272 1.58278 -0.50000
v -2.06272 1.58278 0.70000
v -1.83848 1.83848 -0.50000
v -1.83848 1.83848 0.70000
v -1.58278 2.06272 -0.50000
v -1.58278 2.06272 0.70000
v -1.30000 2.25167 -0.50000
v -1.30000 2.25167 0.70000
v -0.99498 2.40209 -0.50000
v -0.99498 2.40209 0.70000
v -0.67293 2.51141 -0.50000
v -0.67293 2.51141 0.70000
v -0.33937 2.57776 -0.50000
v -0.33937 2.57776 0.70000
vn 0.00000 -1.00000 0.00000
vn 0.00000 0.00000 -1.00000
vn -1.00000 0.00000 0.00000
vn 0.00000 -1.00000 0.00000
vn 0.00000 0.00000 1.00000
vn -1.00000 0.00000 0.00000
vn 0.00000 1.00000 0.00000
vn 0.00000 0.00000 -1.00000
vn -1.00000 0.00000 0.00000
vn 0.00000 1.00000 0.00000
vn 0.00000 0.00000 1.00000
vn -1.00000 0.00000 0.00000
vn 0.00000 -1.00000 0.00000
vn 0.00000 0.00000 -1.00000
vn 1.00000 0.00000 0.00000
vn 0.00000 -1.00000 0.00000
vn 0.00000 0.00000 1.00000
vn 1.00000 0.00000 0.00000
vn 0.00000 1.00000 0.00000
vn 0.00000 0.00000 -1.00000
vn 1.00000 0.00000 0.00000
vn 0.00000 1.00000 0.00000
vn 0.00000 0.00000 1.00000
vn 1.00000 0.00000 0.00000
vn 0.00000 0.72121 -0.69271
vn 0.00000 0.72121 0.69271
vn 0.09410 0.71508 -0.69268
vn 0.09410 0.71508 0.69268
vn 0.18669 0.69667 -0.69267
vn 0.18669 0.69667 0.69267
vn 0.27600 0.66631 -0.69271
vn 0.27600 0.66631 0.69271
vn 0.36060 0.62460 -0.69270
vn 0.36060 0.62460 0.69270
vn 0.43909 0.57218 -0.69268
vn 0.43909 0.57218 0.69268
vn 0.50999 0.50999 -0.69269
vn 0.50999 0.50999 0.69269
vn 0.57218 0.43909 -0.69268
vn 0.57218 0.43909 0.69268
vn 0.62460 0.36060 -0.69270
vn 0.62460 0.36060 0.69270
vn 0.66631 0.27600 -0.69271
vn 0.66631 0.27600 0.69271
vn 0.69667 0.18669 -0.69267
vn 0.69667 0.18669 0.69267
vn 0.71508 0.09410 -0.69268
vn 0.71508 0.09410 0.69268
vn 0.72121 0.00000 -0.69271
vn 0.72121 0.00000 0.69271
vn 0.71508 -0.09410 -0.69268
vn 0.71508 -0.09410 0.69268
vn 0.69667 -0.18669 -0.69267
vn 0.69667 -0.18669 0.69267
vn 0.66631 -0.27600 -0.69271
vn 0.66631 -0.27600 0.69271
vn 0.62460 -0.36060 -0.69270
vn 0.62460 -0.36060 0.69270
vn 0.57218 -0.43909 -0.69268
vn 0.57218 -0.43909 0.69268
vn 0.50999 -0.50999 -0.69269
vn 0.50999 -0.50999 0.69269
vn 0.43909 -0.57218 -0.69268
vn 0.43909 -0.57218 0.69268
vn 0.36060 -0.62460 -0.69270
vn 0.36060 -0.62460 0.69270
vn 0.27600 -0.66631 -0.69271
vn 0.27600 -0.66631 0.69271
vn 0.18669 -0.69667 -0.69267
vn 0.18669 -0.69667 0.69267
vn 0.09410 -0.71508 -0.69268
vn 0.09410 -0.71508 0.69268
vn 0.00000 -0.72121 -0.69271
vn 0.00000 -0.72121 0.69271
vn -0.09410 -0.71508 -0.69268
vn -0.09410 -0.71508 0.69268
vn -0.18669 -0.69667 -0.69267
vn -0.18669 -0.69667 0.69267
vn -0.27600 -0.66631 -0.69271
vn -0.27600 -0.66631 0.69271
vn -0.36060 -0.62460 -0.69270
vn -0.36060 -0.62460 0.69270
vn -0.43909 -0.57218 -0.69268
vn -0.43909 -0.57218 0.69268
vn -0.50999 -0.50999 -0.69269
vn -0.50999 -0.50999 0.69269
vn -0.57218 -0.43909 -0.69268
vn -0.57218 -0.43909 0.69268
vn -0.62460 -0.36060 -0.69270
vn -0.62460 -0.36060 0.69270
vn -0.66631 -0.27600 -0.69271
vn -0.66631 -0.27600 0.69271
vn -0.69667 -0.18669 -0.69267
vn -0.69667 -0.18669 0.69267
vn -0.71508 -0.09410 -0.69268
vn -0.71508 -0.09410 0.69268
vn -0.72121 0.00000 -0.69271
vn -0.72121 0.00000 0.69271
vn -0.71508 0.09410 -0.69268
vn -0.71508 0.09410 0.69268
vn -0.69667 0.18669 -0.69267
vn -0.69667 0.18669 0.69267
vn -0.66631 0.27600 -0.69271
vn -0.66631 0.27600 0.69271
vn -0.62460 0.36060 -0.69270
vn -0.62460 0.36060 0.69270
vn -0.57218 0.43909 -0.69268
vn -0.57218 0.43909 0.69268
vn -0.50999 0.50999 -0.69269
vn -0.50999 0.50999 0.69269
vn -0.43909 0.57218 -0.69268
vn -0.43909 0.57218 0.69268
vn -0.36060 0.62460 -0.69270
vn -0.36060 0.62460 0.69270
vn -0.27600 0.66631 -0.69271
vn -0.27600 0.66631 0.69271
vn -0.18669 0.69667 -0.69267
vn -0.18669 0.69667 0.69267
vn -0.09410 0.71508 -0.69268
vn -0.09410 0.71508 0.69268
usemtl WF_White
f 3//3 6//6 12//12
f 3//3 12//12 9//9
f 7//7 10//10 22//22
f 7//7 22//22 19//19
f 21//21 24//24 18//18
f 21//21 18//18 15//15
f 13//13 16//16 4//4
f 13//13 4//4 1//1
f 8//8 20//20 14//14
f 8//8 14//14 2//2
f 23//23 11//11 5//5
f 23//23 5//5 17//17
usemtl WF_Grey
f 25//25 26//26 28//28
f 25//25 28//28 27//27
f 27//27 28//28 30//30
f 27//27 30//30 29//29
f 29//29 30//30 32//32
f 29//29 32//32 31//31
f 31//31 32//32 34//34
f 31//31 34//34 33//33
f 33//33 34//34 36//36
f 33//33 36//36 35//35
f 35//35 36//36 38//38
f 35//35 38//38 37//37
f 37//37 38//38 40//40
f 37//37 40//40 39//39
f 39//39 40//40 42//42
f 39//39 42//42 41//41
f 41//41 42//42 44//44
f 41//41 44//44 43//43
f 43//43 44//44 46//46
f 43//43 46//46 45//45
f 45//45 46//46 48//48
f 45//45 48//48 47//47
f 47//47 48//48 50//50
f 47//47 50//50 49//49
f 49//49 50//50 52//52
f 49//49 52//52 51//51
f 51//51 52//52 54//54
f 51//51 54//54 53//53
f 53//53 54//54 56//56
f 53//53 56//56 55//55
f 55//55 56//56 58//58
f 55//55 58//58 57//57
f 57//57 58//58 60//60
f 57//57 60//60 59//59
f 59//59 60//60 62//62
f 59//59 62//62 61//61
f 61//61 62//62 64//64
f 61//61 64//64 63//63
f 63//63 64//64 66//66
f 63//63 66//66 65//65
f 65//65 66//66 68//68
f 65//65 68//68 67//67
f 67//67 68//68 70//70
f 67//67 70//70 69//69
f 69//69 70//70 72//72
f 69//69 72//72 71//71
f 71//71 72//72 74//74
f 71//71 74//74 73//73
f 73//73 74//74 76//76
f 73//73 76//76 75//75
f 75//75 76//76 78//78
f 75//75 78//78 77//77
f 77//77 78//78 80//80
f 77//77 80//80 79//79
f 79//79 80//80 82//82
f 79//79 82//82 81//81
f 81//81 82//82 84//84
f 81//81 84//84 83//83
f 83//83 84//84 86//86
f 83//83 86//86 85//85
f 85//85 86//86 88//88
f 85//85 88//88 87//87
f 87//87 88//88 90//90
f 87//87 90//90 89//89
f 89//89 90//90 92//92
f 89//89 92//92 91//91
f 91//91 92//92 94//94
f 91//91 94//94 93//93
f 93//93 94//94 96//96
f 93//93 96//96 95//95
f 95//95 96//96 98//98
f 95//95 98//98 97//97
f 97//97 98//98 100//100
f 97//97 100//100 99//99
f 99//99 100//100 102//102
f 99//99 102//102 101//101
f 101//101 102//102 104//104
f 101//101 104//104 103//103
f 103//103 104//104 106//106
f 103//103 106//106 105//105
f 105//105 106//106 108//108
f 105//105 108//108 107//107
f 107//107 108//108 110//110
f 107//107 110//110 109//109
f 109//109 110//110 112//112
f 109//109 112//112 111//111
f 111//111 112//112 114//114
f 111//111 114//114 113//113
f 113//113 114//114 116//116
f 113//113 116//116 115//115
f 115//115 116//116 118//118
f 115//115 118//118 117//117
f 30//30 28//28 26//26
f 26//26 120//120 118//118
f 118//118 116//116 114//114
f 114//114 112//112 110//110
f 110//110 108//108 106//106
f 106//106 104//104 102//102
f 102//102 100//100 98//98
f 98//98 96//96 94//94
f 94//94 92//92 90//90
f 90//90 88//88 86//86
f 86//86 84//84 82//82
f 82//82 80//80 78//78
f 78//78 76//76 74//74
f 74//74 72//72 70//70
f 70//70 68//68 66//66
f 66//66 64//64 62//62
f 62//62 60//60 58//58
f 58//58 56//56 54//54
f 54//54 52//52 50//50
f 50//50 48//48 46//46
f 46//46 44//44 42//42
f 42//42 40//40 38//38
f 38//38 36//36 34//34
f 34//34 32//32 30//30
f 30//30 26//26 118//118
f 118//118 114//114 110//110
f 110//110 106//106 102//102
f 102//102 98//98 94//94
f 94//94 90//90 86//86
f 86//86 82//82 78//78
f 78//78 74//74 70//70
f 70//70 66//66 62//62
f 62//62 58//58 54//54
f 54//54 50//50 46//46
f 46//46 42//42 38//38
f 38//38 34//34 30//30
f 30//30 118//118 110//110
f 110//110 102//102 94//94
f 94//94 86//86 78//78
f 78//78 70//70 62//62
f 62//62 54//54 46//46
f 46//46 38//38 30//30
f 30//30 110//110 94//94
f 94//94 78//78 62//62
f 62//62 46//46 30//30
f 94//94 62//62 30//30
f 117//117 118//118 120//120
f 117//117 120//120 119//119
f 119//119 120//120 26//26
f 119//119 26//26 25//25
f 119//119 25//25 27//27
f 27//27 29//29 31//31
f 31//31 33//33 35//35
f 35//35 37//37 39//39
f 39//39 41//41 43//43
f 43//43 45//45 47//47
f 47//47 49//49 51//51
f 51//51 53//53 55//55
f 55//55 57//57 59//59
f 59//59 61//61 63//63
f 63//63 65//65 67//67
f 67//67 69//69 71//71
f 71//71 73//73 75//75
f 75//75 77//77 79//79
f 79//79 81//81 83//83
f 83//83 85//85 87//87
f 87//87 89//89 91//91
f 91//91 93//93 95//95
f 95//95 97//97 99//99
f 99//99 101//101 103//103
f 103//103 105//105 107//107
f 107//107 109//109 111//111
f 111//111 113//113 115//115
f 115//115 117//117 119//119
f 119//119 27//27 31//31
f 31//31 35//35 39//39
f 39//39 43//43 47//47
f 47//47 51//51 55//55
f 55//55 59//59 63//63
f 63//63 67//67 71//71
f 71//71 75//75 79//79
f 79//79 83//83 87//87
f 87//87 91//91 95//95
f 95//95 99//99 103//103
f 103//103 107//107 111//111
f 111//111 115//115 119//119
f 119//119 31//31 39//39
f 39//39 47//47 55//55
f 55//55 63//63 71//71
f 71//71 79//79 87//87
f 87//87 95//95 103//103
f 103//103 111//111 119//119
f 119//119 39//39 55//55
f 55//55 71//71 87//87
f 87//87 103//103 119//119
f 55//55 87//87 119//119
