mtllib tower.mtl
o tower
v 0.00000 3.40000 2.50000
v 0.00000 2.20000 92.50000
v 0.33326 3.38363 2.50000
v 0.21564 2.18941 92.50000
v 0.66331 3.33467 2.50000
v 0.42920 2.15773 92.50000
v 0.98697 3.25360 2.50000
v 0.63863 2.10527 92.50000
v 1.30112 3.14119 2.50000
v 0.84190 2.03253 92.50000
v 1.60275 2.99853 2.50000
v 1.03707 1.94023 92.50000
v 1.88894 2.82700 2.50000
v 1.22225 1.82923 92.50000
v 2.15694 2.62824 2.50000
v 1.39567 1.70062 92.50000
v 2.40416 2.40416 2.50000
v 1.55563 1.55563 92.50000
v 2.62824 2.15694 2.50000
v 1.70062 1.39567 92.50000
v 2.82700 1.88894 2.50000
v 1.82923 1.22225 92.50000
v 2.99853 1.60275 2.50000
v 1.94023 1.03707 92.50000
v 3.14119 1.30112 2.50000
v 2.03253 0.84190 92.50000
v 3.25360 0.98697 2.50000
v 2.10527 0.63863 92.50000
v 3.33467 0.66331 2.50000
v 2.15773 0.42920 92.50000
v 3.38363 0.33326 2.50000
v 2.18941 0.21564 92.50000
v 3.40000 0.00000 2.50000
v 2.20000 0.00000 92.50000
v 3.38363 -0.33326 2.50000
v 2.18941 -0.21564 92.50000
v 3.33467 -0.66331 2.50000
v 2.15773 -0.42920 92.50000
v 3.25360 -0.98697 2.50000
v 2.10527 -0.63863 92.50000
v 3.14119 -1.30112 2.50000
v 2.03253 -0.84190 92.50000
v 2.99853 -1.60275 2.50000
v 1.94023 -1.03707 92.50000
v 2.82700 -1.88894 2.50000
v 1.82923 -1.22225 92.50000
v 2.62824 -2.15694 2.50000
v 1.70062 -1.39567 92.50000
v 2.40416 -2.40416 2.50000
v 1.55563 -1.55563 92.50000
v 2.15694 -2.62824 2.50000
v 1.39567 -1.70062 92.50000
v 1.88894 -2.82700 2.50000
v 1.22225 -1.82923 92.50000
v 1.60275 -2.99853 2.50000
v 1.03707 -1.94023 92.50000
v 1.30112 -3.14119 2.50000
v 0.84190 -2.03253 92.50000
v 0.98697 -3.25360 2.50000
v 0.63863 -2.10527 92.50000
v 0.66331 -3.33467 2.50000
v 0.42920 -2.15773 92.50000
v 0.33326 -3.38363 2.50000
v 0.21564 -2.18941 92.50000
v 0.00000 -3.40000 2.50000
v 0.00000 -2.20000 92.50000
v -0.33326 -3.38363 2.50000
v -0.21564 -2.18941 92.50000
v -0.66331 -3.33467 2.50000
v -0.42920 -2.15773 92.50000
v -0.98697 -3.25360 2.50000
v -0.63863 -2.10527 92.50000
v -1.30112 -3.14119 2.50000
v -0.84190 -2.03253 92.50000
v -1.60275 -2.99853 2.50000
v -1.03707 -1.94023 92.50000
v -1.88894 -2.82700 2.50000
v -1.22225 -1.82923 92.50000
v -2.15694 -2.62824 2.50000
v -1.39567 -1.70062 92.50000
v -2.40416 -2.40416 2.50000
v -1.55563 -1.55563 92.50000
v -2.62824 -2.15694 2.50000
v -1.70062 -1.39567 92.50000
v -2.82700 -1.88894 2.50000
v -1.82923 -1.22225 92.50000
v -2.99853 -1.60275 2.50000
v -1.94023 -1.03707 92.50000
v -3.14119 -1.30112 2.50000
v -2.03253 -0.84190 92.50000
v -3.25360 -0.98697 2.50000
v -2.10527 -0.63863 92.50000
v -3.33467 -0.66331 2.50000
v -2.15773 -0.42920 92.50000
v -3.38363 -0.33326 2.50000
v -2.18941 -0.21564 92.50000
v -3.40000 0.00000 2.50000
v -2.20000 0.00000 92.50000
v -3.38363 0.33326 2.50000
v -2.18941 0.21564 92.50000
v -3.33467 0.66331 2.50000
v -2.15773 0.42920 92.50000
v -3.25360 0.98697 2.50000
v -2.10527 0.63863 92.50000
v -3.14119 1.30112 2.50000
v -2.03253 0.84190 92.50000
v -2.99853 1.60275 2.50000
v -1.94023 1.03707 92.50000
v -2.82700 1.88894 2.50000
v -1.82923 1.22225 92.50000
v -2.62824 2.15694 2.50000
v -1.70062 1.39567 92.50000
v -2.40416 2.40416 2.50000
v -1.55563 1.55563 92.50000
v -2.15694 2.62824 2.50000
v -1.39567 1.70062 92.50000
v -1.88894 2.82700 2.50000
v -1.22225 1.82923 92.50000
v -1.60275 2.99853 2.50000
v -1.03707 1.94023 92.50000
v -1.30112 3.14119 2.50000
v -0.84190 2.03253 92.50000
v -0.98697 3.25360 2.50000
v -0.63863 2.10527 92.50000
v -0.66331 3.33467 2.50000
v -0.42920 2.15773 92.50000
v -0.33326 3.38363 2.50000
v -0.21564 2.18941 92.50000
v 0.00000 3.40000 0.00000
v 0.00000 3.40000 2.50000
v 0.33326 3.38363 0.00000
v 0.33326 3.38363 2.50000
v 0.66331 3.33467 0.00000
v 0.66331 3.33467 2.50000
v 0.98697 3.25360 0.00000
v 0.98697 3.25360 2.50000
v 1.30112 3.14119 0.00000
v 1.30112 3.14119 2.50000
v 1.60275 2.99853 0.00000
v 1.60275 2.99853 2.50000
v 1.88894 2.82700 0.00000
v 1.88894 2.82700 2.50000
v 2.15694 2.62824 0.00000
v 2.15694 2.62824 2.50000
v 2.40416 2.40416 0.00000
v 2.40416 2.40416 2.50000
v 2.62824 2.15694 0.00000
v 2.62824 2.15694 2.50000
v 2.82700 1.88894 0.00000
v 2.82700 1.88894 2.50000
v 2.99853 1.60275 0.00000
v 2.99853 1.60275 2.50000
v 3.14119 1.30112 0.00000
v 3.14119 1.30112 2.50000
v 3.25360 0.98697 0.00000
v 3.25360 0.98697 2.50000
v 3.33467 0.66331 0.00000
v 3.33467 0.66331 2.50000
v 3.38363 0.33326 0.00000
v 3.38363 0.33326 2.50000
v 3.40000 0.00000 0.00000
v 3.40000 0.00000 2.50000
v 3.38363 -0.33326 0.00000
v 3.38363 -0.33326 2.50000
v 3.33467 -0.66331 0.00000
v 3.33467 -0.66331 2.50000
v 3.25360 -0.98697 0.00000
v 3.25360 -0.98697 2.50000
v 3.14119 -1.30112 0.00000
v 3.14119 -1.30112 2.50000
v 2.99853 -1.60275 0.00000
v 2.99853 -1.60275 2.50000
v 2.82700 -1.88894 0.00000
v 2.82700 -1.88894 2.50000
v 2.62824 -2.15694 0.00000
v 2.62824 -2.15694 2.50000
v 2.40416 -2.40416 0.00000
v 2.40416 -2.40416 2.50000
v 2.15694 -2.62824 0.00000
v 2.15694 -2.62824 2.50000
v 1.88894 -2.82700 0.00000
v 1.88894 -2.82700 2.50000
v 1.60275 -2.99853 0.00000
v 1.60275 -2.99853 2.50000
v 1.30112 -3.14119 0.00000
v 1.30112 -3.14119 2.50000
v 0.98697 -3.25360 0.00000
v 0.98697 -3.25360 2.50000
v 0.66331 -3.33467 0.00000
v 0.66331 -3.33467 2.50000
v 0.33326 -3.38363 0.00000
v 0.33326 -3.38363 2.50000
v 0.00000 -3.40000 0.00000
v 0.00000 -3.40000 2.50000
v -0.33326 -3.38363 0.00000
v -0.33326 -3.38363 2.50000
v -0.66331 -3.33467 0.00000
v -0.66331 -3.33467 2.50000
v -0.98697 -3.25360 0.00000
v -0.98697 -3.25360 2.50000
v -1.30112 -3.14119 0.00000
v -1.30112 -3.14119 2.50000
v -1.60275 -2.99853 0.00000
v -1.60275 -2.99853 2.50000
v -1.88894 -2.82700 0.00000
v -1.88894 -2.82700 2.50000
v -2.15694 -2.62824 0.00000
v -2.15694 -2.62824 2.50000
v -2.40416 -2.40416 0.00000
v -2.40416 -2.40416 2.50000
v -2.62824 -2.15694 0.00000
v -2.62824 -2.15694 2.50000
v -2.82700 -1.88894 0.00000
v -2.82700 -1.88894 2.50000
v -2.99853 -1.60275 0.00000
v -2.99853 -1.60275 2.50000
v -3.14119 -1.30112 0.00000
v -3.14119 -1.30112 2.50000
v -3.25360 -0.98697 0.00000
v -3.25360 -0.98697 2.50000
v -3.33467 -0.66331 0.00000
v -3.33467 -0.66331 2.50000
v -3.38363 -0.33326 0.00000
v -3.38363 -0.33326 2.50000
v -3.40000 0.00000 0.00000
v -3.40000 0.00000 2.50000
v -3.38363 0.33326 0.00000
v -3.38363 0.33326 2.50000
v -3.33467 0.66331 0.00000
v -3.33467 0.66331 2.50000
v -3.25360 0.98697 0.00000
v -3.25360 0.98697 2.50000
v -3.14119 1.30112 0.00000
v -3.14119 1.30112 2.50000
v -2.99853 1.60275 0.00000
v -2.99853 1.60275 2.50000
v -2.82700 1.88894 0.00000
v -2.82700 1.88894 2.50000
v -2.62824 2.15694 0.00000
v -2.62824 2.15694 2.50000
v -2.40416 2.40416 0.00000
v -2.40416 2.40416 2.50000
v -2.15694 2.62824 0.00000
v -2.15694 2.62824 2.50000
v -1.88894 2.82700 0.00000
v -1.88894 2.82700 2.50000
v -1.60275 2.99853 0.00000
v -1.60275 2.99853 2.50000
v -1.30112 3.14119 0.00000
v -1.30112 3.14119 2.50000
v -0.98697 3.25360 0.00000
v -0.98697 3.25360 2.50000
v -0.66331 3.33467 0.00000
v -0.66331 3.33467 2.50000
v -0.33326 3.38363 0.00000
v -0.33326 3.38363 2.50000
vn 0.00000 0.72244 -0.69144
vn 0.00000 0.71318 0.70098
vn 0.07080 0.71900 -0.69140
vn 0.06990 0.70971 0.70101
vn 0.14090 0.70860 -0.69140
vn 0.13910 0.69948 0.70098
vn 0.20971 0.69133 -0.69143
vn 0.20699 0.68248 0.70098
vn 0.27651 0.66743 -0.69143
vn 0.27290 0.65889 0.70099
vn 0.34061 0.63712 -0.69142
vn 0.33619 0.62898 0.70097
vn 0.40140 0.60070 -0.69140
vn 0.39620 0.59299 0.70099
vn 0.45830 0.55850 -0.69140
vn 0.45240 0.55130 0.70100
vn 0.51083 0.51083 -0.69145
vn 0.50429 0.50429 0.70099
vn 0.55850 0.45830 -0.69140
vn 0.55130 0.45240 0.70100
vn 0.60070 0.40140 -0.69140
vn 0.59299 0.39620 0.70099
vn 0.63712 0.34061 -0.69142
vn 0.62898 0.33619 0.70097
vn 0.66743 0.27651 -0.69143
vn 0.65889 0.27290 0.70099
vn 0.69133 0.20971 -0.69143
vn 0.68248 0.20699 0.70098
vn 0.70860 0.14090 -0.69140
vn 0.69948 0.13910 0.70098
vn 0.71900 0.07080 -0.69140
vn 0.70971 0.06990 0.70101
vn 0.72244 0.00000 -0.69144
vn 0.71318 0.00000 0.70098
vn 0.71900 -0.07080 -0.69140
vn 0.70971 -0.06990 0.70101
vn 0.70860 -0.14090 -0.69140
vn 0.69948 -0.13910 0.70098
vn 0.69133 -0.20971 -0.69143
vn 0.68248 -0.20699 0.70098
vn 0.66743 -0.27651 -0.69143
vn 0.65889 -0.27290 0.70099
vn 0.63712 -0.34061 -0.69142
vn 0.62898 -0.33619 0.70097
vn 0.60070 -0.40140 -0.69140
vn 0.59299 -0.39620 0.70099
vn 0.55850 -0.45830 -0.69140
vn 0.55130 -0.45240 0.70100
vn 0.51083 -0.51083 -0.69145
vn 0.50429 -0.50429 0.70099
vn 0.45830 -0.55850 -0.69140
vn 0.45240 -0.55130 0.70100
vn 0.40140 -0.60070 -0.69140
vn 0.39620 -0.59299 0.70099
vn 0.34061 -0.63712 -0.69142
vn 0.33619 -0.62898 0.70097
vn 0.27651 -0.66743 -0.69143
vn 0.27290 -0.65889 0.70099
vn 0.20971 -0.69133 -0.69143
vn 0.20699 -0.68248 0.70098
vn 0.14090 -0.70860 -0.69140
vn 0.13910 -0.69948 0.70098
vn 0.07080 -0.71900 -0.69140
vn 0.06990 -0.70971 0.70101
vn 0.00000 -0.72244 -0.69144
vn 0.00000 -0.71318 0.70098
vn -0.07080 -0.71900 -0.69140
vn -0.06990 -0.70971 0.70101
vn -0.14090 -0.70860 -0.69140
vn -0.13910 -0.69948 0.70098
vn -0.20971 -0.69133 -0.69143
vn -0.20699 -0.68248 0.70098
vn -0.27651 -0.66743 -0.69143
vn -0.27290 -0.65889 0.70099
vn -0.34061 -0.63712 -0.69142
vn -0.33619 -0.62898 0.70097
vn -0.40140 -0.60070 -0.69140
vn -0.39620 -0.59299 0.70099
vn -0.45830 -0.55850 -0.69140
vn -0.45240 -0.55130 0.70100
vn -0.51083 -0.51083 -0.69145
vn -0.50429 -0.50429 0.70099
vn -0.55850 -0.45830 -0.69140
vn -0.55130 -0.45240 0.70100
vn -0.60070 -0.40140 -0.69140
vn -0.59299 -0.39620 0.70099
vn -0.63712 -0.34061 -0.69142
vn -0.62898 -0.33619 0.70097
vn -0.66743 -0.27651 -0.69143
vn -0.65889 -0.27290 0.70099
vn -0.69133 -0.20971 -0.69143
vn -0.68248 -0.20699 0.70098
vn -0.70860 -0.14090 -0.69140
vn -0.69948 -0.13910 0.70098
vn -0.71900 -0.07080 -0.69140
vn -0.70971 -0.06990 0.70101
vn -0.72244 0.00000 -0.69144
vn -0.71318 0.00000 0.70098
vn -0.71900 0.07080 -0.69140
vn -0.70971 0.06990 0.70101
vn -0.70860 0.14090 -0.69140
vn -0.69948 0.13910 0.70098
vn -0.69133 0.20971 -0.69143
vn -0.68248 0.20699 0.70098
vn -0.66743 0.27651 -0.69143
vn -0.65889 0.27290 0.70099
vn -0.63712 0.34061 -0.69142
vn -0.62898 0.33619 0.70097
vn -0.60070 0.40140 -0.69140
vn -0.59299 0.39620 0.70099
vn -0.55850 0.45830 -0.69140
vn -0.55130 0.45240 0.70100
vn -0.51083 0.51083 -0.69145
vn -0.50429 0.50429 0.70099
vn -0.45830 0.55850 -0.69140
vn -0.45240 0.55130 0.70100
vn -0.40140 0.60070 -0.69140
vn -0.39620 0.59299 0.70099
vn -0.34061 0.63712 -0.69142
vn -0.33619 0.62898 0.70097
vn -0.27651 0.66743 -0.69143
vn -0.27290 0.65889 0.70099
vn -0.20971 0.69133 -0.69143
vn -0.20699 0.68248 0.70098
vn -0.14090 0.70860 -0.69140
vn -0.13910 0.69948 0.70098
vn -0.07080 0.71900 -0.69140
vn -0.06990 0.70971 0.70101
vn 0.00000 0.71782 -0.69622
vn 0.00000 0.71782 0.69622
vn 0.07040 0.71439 -0.69619
vn 0.07040 0.71439 0.69619
vn 0.14001 0.70403 -0.69623
vn 0.14001 0.70403 0.69623
vn 0.20840 0.68691 -0.69622
vn 0.20840 0.68691 0.69622
vn 0.27470 0.66320 -0.69620
vn 0.27470 0.66320 0.69620
vn 0.33840 0.63309 -0.69619
vn 0.33840 0.63309 0.69619
vn 0.39882 0.59683 -0.69623
vn 0.39882 0.59683 0.69623
vn 0.45540 0.55490 -0.69620
vn 0.45540 0.55490 0.69620
vn 0.50760 0.50760 -0.69620
vn 0.50760 0.50760 0.69620
vn 0.55490 0.45540 -0.69620
vn 0.55490 0.45540 0.69620
vn 0.59683 0.39882 -0.69623
vn 0.59683 0.39882 0.69623
vn 0.63309 0.33840 -0.69619
vn 0.63309 0.33840 0.69619
vn 0.66320 0.27470 -0.69620
vn 0.66320 0.27470 0.69620
vn 0.68691 0.20840 -0.69622
vn 0.68691 0.20840 0.69622
vn 0.70403 0.14001 -0.69623
vn 0.70403 0.14001 0.69623
vn 0.71439 0.07040 -0.69619
vn 0.71439 0.07040 0.69619
vn 0.71782 0.00000 -0.69622
vn 0.71782 0.00000 0.69622
vn 0.71439 -0.07040 -0.69619
vn 0.71439 -0.07040 0.69619
vn 0.70403 -0.14001 -0.69623
vn 0.70403 -0.14001 0.69623
vn 0.68691 -0.20840 -0.69622
vn 0.68691 -0.20840 0.69622
vn 0.66320 -0.27470 -0.69620
vn 0.66320 -0.27470 0.69620
vn 0.63309 -0.33840 -0.69619
vn 0.63309 -0.33840 0.69619
vn 0.59683 -0.39882 -0.69623
vn 0.59683 -0.39882 0.69623
vn 0.55490 -0.45540 -0.69620
vn 0.55490 -0.45540 0.69620
vn 0.50760 -0.50760 -0.69620
vn 0.50760 -0.50760 0.69620
vn 0.45540 -0.55490 -0.69620
vn 0.45540 -0.55490 0.69620
vn 0.39882 -0.59683 -0.69623
vn 0.39882 -0.59683 0.69623
vn 0.33840 -0.63309 -0.69619
vn 0.33840 -0.63309 0.69619
vn 0.27470 -0.66320 -0.69620
vn 0.27470 -0.66320 0.69620
vn 0.20840 -0.68691 -0.69622
vn 0.20840 -0.68691 0.69622
vn 0.14001 -0.70403 -0.69623
vn 0.14001 -0.70403 0.69623
vn 0.07040 -0.71439 -0.69619
vn 0.07040 -0.71439 0.69619
vn 0.00000 -0.71782 -0.69622
vn 0.00000 -0.71782 0.69622
vn -0.07040 -0.71439 -0.69619
vn -0.07040 -0.71439 0.69619
vn -0.14001 -0.70403 -0.69623
vn -0.14001 -0.70403 0.69623
vn -0.20840 -0.68691 -0.69622
vn -0.20840 -0.68691 0.69622
vn -0.27470 -0.66320 -0.69620
vn -0.27470 -0.66320 0.69620
vn -0.33840 -0.63309 -0.69619
vn -0.33840 -0.63309 0.69619
vn -0.39882 -0.59683 -0.69623
vn -0.39882 -0.59683 0.69623
vn -0.45540 -0.55490 -0.69620
vn -0.45540 -0.55490 0.69620
vn -0.50760 -0.50760 -0.69620
vn -0.50760 -0.50760 0.69620
vn -0.55490 -0.45540 -0.69620
vn -0.55490 -0.45540 0.69620
vn -0.59683 -0.39882 -0.69623
vn -0.59683 -0.39882 0.69623
vn -0.63309 -0.33840 -0.69619
vn -0.63309 -0.33840 0.69619
vn -0.66320 -0.27470 -0.69620
vn -0.66320 -0.27470 0.69620
vn -0.68691 -0.20840 -0.69622
vn -0.68691 -0.20840 0.69622
vn -0.70403 -0.14001 -0.69623
vn -0.70403 -0.14001 0.69623
vn -0.71439 -0.07040 -0.69619
vn -0.71439 -0.07040 0.69619
vn -0.71782 0.00000 -0.69622
vn -0.71782 0.00000 0.69622
vn -0.71439 0.07040 -0.69619
vn -0.71439 0.07040 0.69619
vn -0.70403 0.14001 -0.69623
vn -0.70403 0.14001 0.69623
vn -0.68691 0.20840 -0.69622
vn -0.68691 0.20840 0.69622
vn -0.66320 0.27470 -0.69620
vn -0.66320 0.27470 0.69620
vn -0.63309 0.33840 -0.69619
vn -0.63309 0.33840 0.69619
vn -0.59683 0.39882 -0.69623
vn -0.59683 0.39882 0.69623
vn -0.55490 0.45540 -0.69620
vn -0.55490 0.45540 0.69620
vn -0.50760 0.50760 -0.69620
vn -0.50760 0.50760 0.69620
vn -0.45540 0.55490 -0.69620
vn -0.45540 0.55490 0.69620
vn -0.39882 0.59683 -0.69623
vn -0.39882 0.59683 0.69623
vn -0.33840 0.63309 -0.69619
vn -0.33840 0.63309 0.69619
vn -0.27470 0.66320 -0.69620
vn -0.27470 0.66320 0.69620
vn -0.20840 0.68691 -0.69622
vn -0.20840 0.68691 0.69622
vn -0.14001 0.70403 -0.69623
vn -0.14001 0.70403 0.69623
vn -0.07040 0.71439 -0.69619
vn -0.07040 0.71439 0.69619
usemtl WF_White
f 1//1 2//2 4//4
f 1//1 4//4 3//3
f 3//3 4//4 6//6
f 3//3 6//6 5//5
f 5//5 6//6 8//8
f 5//5 8//8 7//7
f 7//7 8//8 10//10
f 7//7 10//10 9//9
f 9//9 10//10 12//12
f 9//9 12//12 11//11
f 11//11 12//12 14//14
f 11//11 14//14 13//13
f 13//13 14//14 16//16
f 13//13 16//16 15//15
f 15//15 16//16 18//18
f 15//15 18//18 17//17
f 17//17 18//18 20//20
f 17//17 20//20 19//19
f 19//19 20//20 22//22
f 19//19 22//22 21//21
f 21//21 22//22 24//24
f 21//21 24//24 23//23
f 23//23 24//24 26//26
f 23//23 26//26 25//25
f 25//25 26//26 28//28
f 25//25 28//28 27//27
f 27//27 28//28 30//30
f 27//27 30//30 29//29
f 29//29 30//30 32//32
f 29//29 32//32 31//31
f 31//31 32//32 34//34
f 31//31 34//34 33//33
f 33//33 34//34 36//36
f 33//33 36//36 35//35
f 35//35 36//36 38//38
f 35//35 38//38 37//37
f 37//37 38//38 40//40
f 37//37 40//40 39//39
f 39//39 40//40 42//42
f 39//39 42//42 41//41
f 41//41 42//42 44//44
f 41//41 44//44 43//43
f 43//43 44//44 46//46
f 43//43 46//46 45//45
f 45//45 46//46 48//48
f 45//45 48//48 47//47
f 47//47 48//48 50//50
f 47//47 50//50 49//49
f 49//49 50//50 52//52
f 49//49 52//52 51//51
f 51//51 52//52 54//54
f 51//51 54//54 53//53
f 53//53 54//54 56//56
f 53//53 56//56 55//55
f 55//55 56//56 58//58
f 55//55 58//58 57//57
f 57//57 58//58 60//60
f 57//57 60//60 59//59
f 59//59 60//60 62//62
f 59//59 62//62 61//61
f 61//61 62//62 64//64
f 61//61 64//64 63//63
f 63//63 64//64 66//66
f 63//63 66//66 65//65
f 65//65 66//66 68//68
f 65//65 68//68 67//67
f 67//67 68//68 70//70
f 67//67 70//70 69//69
f 69//69 70//70 72//72
f 69//69 72//72 71//71
f 71//71 72//72 74//74
f 71//71 74//74 73//73
f 73//73 74//74 76//76
f 73//73 76//76 75//75
f 75//75 76//76 78//78
f 75//75 78//78 77//77
f 77//77 78//78 80//80
f 77//77 80//80 79//79
f 79//79 80//80 82//82
f 79//79 82//82 81//81
f 81//81 82//82 84//84
f 81//81 84//84 83//83
f 83//83 84//84 86//86
f 83//83 86//86 85//85
f 85//85 86//86 88//88
f 85//85 88//88 87//87
f 87//87 88//88 90//90
f 87//87 90//90 89//89
f 89//89 90//90 92//92
f 89//89 92//92 91//91
f 91//91 92//92 94//94
f 91//91 94//94 93//93
f 93//93 94//94 96//96
f 93//93 96//96 95//95
f 95//95 96//96 98//98
f 95//95 98//98 97//97
f 97//97 98//98 100//100
f 97//97 100//100 99//99
f 99//99 100//100 102//102
f 99//99 102//102 101//101
f 101//101 102//102 104//104
f 101//101 104//104 103//103
f 103//103 104//104 106//106
f 103//103 106//106 105//105
f 105//105 106//106 108//108
f 105//105 108//108 107//107
f 107//107 108//108 110//110
f 107//107 110//110 109//109
f 109//109 110//110 112//112
f 109//109 112//112 111//111
f 111//111 112//112 114//114
f 111//111 114//114 113//113
f 113//113 114//114 116//116
f 113//113 116//116 115//115
f 115//115 116//116 118//118
f 115//115 118//118 117//117
f 117//117 118//118 120//120
f 117//117 120//120 119//119
f 119//119 120//120 122//122
f 119//119 122//122 121//121
f 121//121 122//122 124//124
f 121//121 124//124 123//123
f 123//123 124//124 126//126
f 123//123 126//126 125//125
f 6//6 4//4 2//2
f 2//2 128//128 126//126
f 126//126 124//124 122//122
f 122//122 120//120 118//118
f 118//118 116//116 114//114
f 114//114 112//112 110//110
f 110//110 108//108 106//106
f 106//106 104//104 102//102
f 102//102 100//100 98//98
f 98//98 96//96 94//94
f 94//94 92//92 90//90
f 90//90 88//88 86//86
f 86//86 84//84 82//82
f 82//82 80//80 78//78
f 78//78 76//76 74//74
f 74//74 72//72 70//70
f 70//70 68//68 66//66
f 66//66 64//64 62//62
f 62//62 60//60 58//58
f 58//58 56//56 54//54
f 54//54 52//52 50//50
f 50//50 48//48 46//46
f 46//46 44//44 42//42
f 42//42 40//40 38//38
f 38//38 36//36 34//34
f 34//34 32//32 30//30
f 30//30 28//28 26//26
f 26//26 24//24 22//22
f 22//22 20//20 18//18
f 18//18 16//16 14//14
f 14//14 12//12 10//10
f 10//10 8//8 6//6
f 6//6 2//2 126//126
f 126//126 122//122 118//118
f 118//118 114//114 110//110
f 110//110 106//106 102//102
f 102//102 98//98 94//94
f 94//94 90//90 86//86
f 86//86 82//82 78//78
f 78//78 74//74 70//70
f 70//70 66//66 62//62
f 62//62 58//58 54//54
f 54//54 50//50 46//46
f 46//46 42//42 38//38
f 38//38 34//34 30//30
f 30//30 26//26 22//22
f 22//22 18//18 14//14
f 14//14 10//10 6//6
f 6//6 126//126 118//118
f 118//118 110//110 102//102
f 102//102 94//94 86//86
f 86//86 78//78 70//70
f 70//70 62//62 54//54
f 54//54 46//46 38//38
f 38//38 30//30 22//22
f 22//22 14//14 6//6
f 6//6 118//118 102//102
f 102//102 86//86 70//70
f 70//70 54//54 38//38
f 38//38 22//22 6//6
f 6//6 102//102 70//70
f 70//70 38//38 6//6
f 125//125 126//126 128//128
f 125//125 128//128 127//127
f 127//127 128//128 2//2
f 127//127 2//2 1//1
f 127//127 1//1 3//3
f 3//3 5//5 7//7
f 7//7 9//9 11//11
f 11//11 13//13 15//15
f 15//15 17//17 19//19
f 19//19 21//21 23//23
f 23//23 25//25 27//27
f 27//27 29//29 31//31
f 31//31 33//33 35//35
f 35//35 37//37 39//39
f 39//39 41//41 43//43
f 43//43 45//45 47//47
f 47//47 49//49 51//51
f 51//51 53//53 55//55
f 55//55 57//57 59//59
f 59//59 61//61 63//63
f 63//63 65//65 67//67
f 67//67 69//69 71//71
f 71//71 73//73 75//75
f 75//75 77//77 79//79
f 79//79 81//81 83//83
f 83//83 85//85 87//87
f 87//87 89//89 91//91
f 91//91 93//93 95//95
f 95//95 97//97 99//99
f 99//99 101//101 103//103
f 103//103 105//105 107//107
f 107//107 109//109 111//111
f 111//111 113//113 115//115
f 115//115 117//117 119//119
f 119//119 121//121 123//123
f 123//123 125//125 127//127
f 127//127 3//3 7//7
f 7//7 11//11 15//15
f 15//15 19//19 23//23
f 23//23 27//27 31//31
f 31//31 35//35 39//39
f 39//39 43//43 47//47
f 47//47 51//51 55//55
f 55//55 59//59 63//63
f 63//63 67//67 71//71
f 71//71 75//75 79//79
f 79//79 83//83 87//87
f 87//87 91//91 95//95
f 95//95 99//99 103//103
f 103//103 107//107 111//111
f 111//111 115//115 119//119
f 119//119 123//123 127//127
f 127//127 7//7 15//15
f 15//15 23//23 31//31
f 31//31 39//39 47//47
f 47//47 55//55 63//63
f 63//63 71//71 79//79
f 79//79 87//87 95//95
f 95//95 103//103 111//111
f 111//111 119//119 127//127
f 127//127 15//15 31//31
f 31//31 47//47 63//63
f 63//63 79//79 95//95
f 95//95 111//111 127//127
f 127//127 31//31 63//63
f 63//63 95//95 127//127
usemtl WF_Yellow
f 129//129 130//130 132//132
f 129//129 132//132 131//131
f 131//131 132//132 134//134
f 131//131 134//134 133//133
f 133//133 134//134 136//136
f 133//133 136//136 135//135
f 135//135 136//136 138//138
f 135//135 138//138 137//137
f 137//137 138//138 140//140
f 137//137 140//140 139//139
f 139//139 140//140 142//142
f 139//139 142//142 141//141
f 141//141 142//142 144//144
f 141//141 144//144 143//143
f 143//143 144//144 146//146
f 143//143 146//146 145//145
f 145//145 146//146 148//148
f 145//145 148//148 147//147
f 147//147 148//148 150//150
f 147//147 150//150 149//149
f 149//149 150//150 152//152
f 149//149 152//152 151//151
f 151//151 152//152 154//154
f 151//151 154//154 153//153
f 153//153 154//154 156//156
f 153//153 156//156 155//155
f 155//155 156//156 158//158
f 155//155 158//158 157//157
f 157//157 158//158 160//160
f 157//157 160//160 159//159
f 159//159 160//160 162//162
f 159//159 162//162 161//161
f 161//161 162//162 164//164
f 161//161 164//164 163//163
f 163//163 164//164 166//166
f 163//163 166//166 165//165
f 165//165 166//166 168//168
f 165//165 168//168 167//167
f 167//167 168//168 170//170
f 167//167 170//170 169//169
f 169//169 170//170 172//172
f 169//169 172//172 171//171
f 171//171 172//172 174//174
f 171//171 174//174 173//173
f 173//173 174//174 176//176
f 173//173 176//176 175//175
f 175//175 176//176 178//178
f 175//175 178//178 177//177
f 177//177 178//178 180//180
f 177//177 180//180 179//179
f 179//179 180//180 182//182
f 179//179 182//182 181//181
f 181//181 182//182 184//184
f 181//181 184//184 183//183
f 183//183 184//184 186//186
f 183//183 186//186 185//185
f 185//185 186//186 188//188
f 185//185 188//188 187//187
f 187//187 188//188 190//190
f 187//187 190//190 189//189
f 189//189 190//190 192//192
f 189//189 192//192 191//191
f 191//191 192//192 194//194
f 191//191 194//194 193//193
f 193//193 194//194 196//196
f 193//193 196//196 195//195
f 195//195 196//196 198//198
f 195//195 198//198 197//197
f 197//197 198//198 200//200
f 197//197 200//200 199//199
f 199//199 200//200 202//202
f 199//199 202//202 201//201
f 201//201 202//202 204//204
f 201//201 204//204 203//203
f 203//203 204//204 206//206
f 203//203 206//206 205//205
f 205//205 206//206 208//208
f 205//205 208//208 207//207
f 207//207 208//208 210//210
f 207//207 210//210 209//209
f 209//209 210//210 212//212
f 209//209 212//212 211//211
f 211//211 212//212 214//214
f 211//211 214//214 213//213
f 213//213 214//214 216//216
f 213//213 216//216 215//215
f 215//215 216//216 218//218
f 215//215 218//218 217//217
f 217//217 218//218 220//220
f 217//217 220//220 219//219
f 219//219 220//220 222//222
f 219//219 222//222 221//221
f 221//221 222//222 224//224
f 221//221 224//224 223//223
f 223//223 224//224 226//226
f 223//223 226//226 225//225
f 225//225 226//226 228//228
f 225//225 228//228 227//227
f 227//227 228//228 230//230
f 227//227 230//230 229//229
f 229//229 230//230 232//232
f 229//229 232//232 231//231
f 231//231 232//232 234//234
f 231//231 234//234 233//233
f 233//233 234//234 236//236
f 233//233 236//236 235//235
f 235//235 236//236 238//238
f 235//235 238//238 237//237
f 237//237 238//238 240//240
f 237//237 240//240 239//239
f 239//239 240//240 242//242
f 239//239 242//242 241//241
f 241//241 242//242 244//244
f 241//241 244//244 243//243
f 243//243 244//244 246//246
f 243//243 246//246 245//245
f 245//245 246//246 248//248
f 245//245 248//248 247//247
f 247//247 248//248 250//250
f 247//247 250//250 249//249
f 249//249 250//250 252//252
f 249//249 252//252 251//251
f 251//251 252//252 254//254
f 251//251 254//254 253//253
f 134//134 132//132 130//130
f 130//130 256//256 254//254
f 254//254 252//252 250//250
f 250//250 248//248 246//246
f 246//246 244//244 242//242
f 242//242 240//240 238//238
f 238//238 236//236 234//234
f 234//234 232//232 230//230
f 230//230 228//228 226//226
f 226//226 224//224 222//222
f 222//222 220//220 218//218
f 218//218 216//216 214//214
f 214//214 212//212 210//210
f 210//210 208//208 206//206
f 206//206 204//204 202//202
f 202//202 200//200 198//198
f 198//198 196//196 194//194
f 194//194 192//192 190//190
f 190//190 188//188 186//186
f 186//186 184//184 182//182
f 182//182 180//180 178//178
f 178//178 176//176 174//174
f 174//174 172//172 170//170
f 170//170 168//168 166//166
f 166//166 164//164 162//162
f 162//162 160//160 158//158
f 158//158 156//156 154//154
f 154//154 152//152 150//150
f 150//150 148//148 146//146
f 146//146 144//144 142//142
f 142//142 140//140 138//138
f 138//138 136//136 134//134
f 134//134 130//130 254//254
f 254//254 250//250 246//246
f 246//246 242//242 238//238
f 238//238 234//234 230//230
f 230//230 226//226 222//222
f 222//222 218//218 214//214
f 214//214 210//210 206//206
f 206//206 202//202 198//198
f 198//198 194//194 190//190
f 190//190 186//186 182//182
f 182//182 178//178 174//174
f 174//174 170//170 166//166
f 166//166 162//162 158//158
f 158//158 154//154 150//150
f 150//150 146//146 142//142
f 142//142 138//138 134//134
f 134//134 254//254 246//246
f 246//246 238//238 230//230
f 230//230 222//222 214//214
f 214//214 206//206 198//198
f 198//198 190//190 182//182
f 182//182 174//174 166//166
f 166//166 158//158 150//150
f 150//150 142//142 134//134
f 134//134 246//246 230//230
f 230//230 214//214 198//198
f 198//198 182//182 166//166
f 166//166 150//150 134//134
f 134//134 230//230 198//198
f 198//198 166//166 134//134
f 253//253 254//254 256//256
f 253//253 256//256 255//255
f 255//255 256//256 130//130
f 255//255 130//130 129//129
f 255//255 129//129 131//131
f 131//131 133//133 135//135
f 135//135 137//137 139//139
f 139//139 141//141 143//143
f 143//143 145//145 147//147
f 147//147 149//149 151//151
f 151//151 153//153 155//155
f 155//155 157//157 159//159
f 159//159 161//161 163//163
f 163//163 165//165 167//167
f 167//167 169//169 171//171
f 171//171 173//173 175//175
f 175//175 177//177 179//179
f 179//179 181//181 183//183
f 183//183 185//185 187//187
f 187//187 189//189 191//191
f 191//191 193//193 195//195
f 195//195 197//197 199//199
f 199//199 201//201 203//203
f 203//203 205//205 207//207
f 207//207 209//209 211//211
f 211//211 213//213 215//215
f 215//215 217//217 219//219
f 219//219 221//221 223//223
f 223//223 225//225 227//227
f 227//227 229//229 231//231
f 231//231 233//233 235//235
f 235//235 237//237 239//239
f 239//239 241//241 243//243
f 243//243 245//245 247//247
f 247//247 249//249 251//251
f 251//251 253//253 255//255
f 255//255 131//131 135//135
f 135//135 139//139 143//143
f 143//143 147//147 151//151
f 151//151 155//155 159//159
f 159//159 163//163 167//167
f 167//167 171//171 175//175
f 175//175 179//179 183//183
f 183//183 187//187 191//191
f 191//191 195//195 199//199
f 199//199 203//203 207//207
f 207//207 211//211 215//215
f 215//215 219//219 223//223
f 223//223 227//227 231//231
f 231//231 235//235 239//239
f 239//239 243//243 247//247
f 247//247 251//251 255//255
f 255//255 135//135 143//143
f 143//143 151//151 159//159
f 159//159 167//167 175//175
f 175//175 183//183 191//191
f 191//191 199//199 207//207
f 207//207 215//215 223//223
f 223//223 231//231 239//239
f 239//239 247//247 255//255
f 255//255 143//143 159//159
f 159//159 175//175 191//191
f 191//191 207//207 223//223
f 223//223 239//239 255//255
f 255//255 159//159 191//191
f 191//191 223//223 255//255
